<?xml version="1.0" encoding="utf-8"?>
<!-- Generator: Adobe Illustrator 25.2.0, SVG Export Plug-In . SVG Version: 6.00 Build 0)  -->
<svg version="1.1" id="Layer_1" xmlns="http://www.w3.org/2000/svg" xmlns:xlink="http://www.w3.org/1999/xlink" x="0px" y="0px"
	 viewBox="0 0 1000 1000" style="enable-background:new 0 0 1000 1000;" xml:space="preserve">
<style type="text/css">
	.st0{fill:#212630;}
	.st1{fill:#FFFFFF;}
</style>
<circle class="st0" cx="500" cy="500" r="500"/>
<g>
	<g>
		<polygon class="st1" points="842.86,256.38 728.28,256.38 675.43,437.89 788.5,437.89 		"/>
	</g>
	<g>
		<path class="st1" d="M637.15,569.3l-56.5-140.37c-12.87-35.48-45.24-58.92-81.36-58.92l0,0c-35.76,0-67.88,22.98-81.01,57.96
			L359.51,569.3l-89.55-312.92H157.14l133.98,458.29c5.09,17.22,20.24,28.96,37.39,28.96h64.75c16.02,0,30.42-10.26,36.36-25.9
			l69.37-180.05l70.61,180.27c6,15.53,20.34,25.68,36.28,25.68h63.73c17.09,0,32.2-11.65,37.34-28.78l63.62-217.14H658.01
			L637.15,569.3z"/>
	</g>
</g>
</svg>
