<?xml version="1.0" encoding="utf-8"?>
<!-- Generator: Adobe Illustrator 25.2.3, SVG Export Plug-In . SVG Version: 6.00 Build 0)  -->
<svg version="1.1" id="Layer_1" xmlns="http://www.w3.org/2000/svg" xmlns:xlink="http://www.w3.org/1999/xlink" x="0px" y="0px"
	 viewBox="0 0 35 35" style="enable-background:new 0 0 35 35;" xml:space="preserve">
<style type="text/css">
	.st0{fill:#CCF66C;}
	.st1{fill:#FB8681;}
	.st2{fill:#15181A;}
	.st3{fill:#F8B1AE;}
	.st4{fill:#DE5852;}
	.st5{fill:#CDED6A;}
	.st6{fill:#AFCC47;}
	.st7{fill:#F3F38B;}
	.st8{fill:#FFFFFF;}
	.st9{fill:#EFD567;}
	.st10{fill:#16191B;}
	.st11{fill:#F4FFB3;}
	.st12{fill:#8247E5;}
</style>
<g transform="translate(-2472 -40)">
	<circle class="st0" cx="2489.5" cy="57.5" r="17.5"/>
	<g transform="translate(2477.294 45.292)">
		<g transform="translate(0 0.757)">
			<g transform="translate(0 0)">
				<g transform="translate(0.521 0.523)">
					<path class="st1" d="M7.17,8.247C5.871,8.14,4.607,7.772,3.453,7.167c-1.448-0.693-3.1-1.773-3.4-2.728
						c-0.087-0.245-0.065-0.515,0.061-0.743c0.27-0.383,0.73-0.584,1.194-0.522c0.064,0,0.13,0,0.2,0.006
						c-0.273-0.431-0.257-0.985,0.041-1.4C1.745,1.57,2.023,1.458,2.31,1.472c0.201,0.005,0.4,0.039,0.591,0.1
						c-0.16-0.497-0.021-1.041,0.358-1.4c0.153-0.11,0.336-0.168,0.524-0.166c1.008,0,2.369,1.6,3.307,3.09
						C7.928,4.43,8.806,6.328,8.565,7.345c-0.02,0.185-0.096,0.36-0.218,0.5c-0.09,0.101-0.203,0.18-0.33,0.229
						C7.754,8.203,7.462,8.263,7.17,8.247z"/>
				</g>
				<path class="st2" d="M4.303,1.043c0.615,0,1.81,1.166,2.864,2.846c1.028,1.638,1.586,3.23,1.4,3.88
					c-0.002,0.09-0.035,0.177-0.093,0.246c-0.045,0.048-0.103,0.082-0.166,0.1c-0.19,0.099-0.403,0.144-0.616,0.129
					C6.472,8.135,5.285,7.785,4.2,7.215c-2.028-0.97-3.423-2.2-3.113-2.742c0.1-0.174,0.362-0.258,0.741-0.258
					C2.242,4.228,2.653,4.29,3.052,4.4C2.46,3.594,2.209,2.925,2.457,2.646c0.099-0.095,0.233-0.143,0.37-0.132
					C3.322,2.57,3.797,2.74,4.215,3.009c-0.355-0.953-0.428-1.684-0.13-1.9C4.147,1.063,4.223,1.04,4.3,1.042 M4.3,0L4.3,0
					C4.001-0.003,3.709,0.091,3.467,0.267C3.091,0.554,2.869,0.999,2.862,1.472H2.828C2.029,1.433,1.35,2.049,1.312,2.848
					C1.306,2.97,1.315,3.093,1.34,3.213c-0.482,0.054-0.911,0.33-1.16,0.746c-0.194,0.354-0.23,0.774-0.1,1.156
					c0.439,1.4,2.924,2.684,3.674,3.043c1.224,0.639,2.565,1.024,3.942,1.131c0.371,0.014,0.739-0.066,1.071-0.231
					c0.187-0.08,0.354-0.2,0.49-0.352C9.444,8.493,9.564,8.229,9.6,7.948c0.322-1.479-1.1-3.9-1.547-4.617
					c-0.629-1-2.255-3.332-3.748-3.332L4.3,0z"/>
			</g>
			<g transform="translate(3.93 1.061)">
				<path class="st3" d="M2.655,2.504C1.917,1.609,1.016,0.863,0,0.304C0.021,0.207,0.075,0.12,0.152,0.057
					c0.5-0.37,1.883,0.875,3.079,2.78C3.565,3.367,3.862,3.92,4.12,4.491C3.698,3.782,3.207,3.117,2.655,2.504z"/>
			</g>
			<g transform="translate(1.043 2.561)">
				<path class="st4" d="M0.043,1.916c0.186-0.328,0.946-0.333,1.965-0.073C1.416,1.036,1.165,0.368,1.413,0.089
					c0.036-0.038,0.078-0.068,0.126-0.088l5.962,5.317C7.487,5.369,7.462,5.416,7.428,5.455c-0.045,0.048-0.103,0.082-0.166,0.1
					c-0.535,0.346-2.266-0.019-4.108-0.9C1.127,3.688-0.267,2.461,0.043,1.916z"/>
			</g>
		</g>
		<g transform="translate(1.971)">
			<path class="st5" d="M16.07,3.738c-0.814-1.046-1.864-1.885-3.064-2.449c-2.711-1.26-5.89-0.971-8.33,0.757
				c-1.233,0.947-2.19,2.207-2.769,3.65c-0.889,2.209-1.354,4.566-1.37,6.948c-0.081,2.609,0.115,5.219,0.586,7.786
				c0.089,0.802,0.417,1.559,0.943,2.172c0.276,0.289,0.663,0.445,1.062,0.428c1.011-0.1,0.969-1.41,0.991-2.152
				c-0.062-0.566,0.064-1.137,0.358-1.625c0.164-0.207,0.442-0.288,0.692-0.2c0.177,0.072,0.325,0.202,0.419,0.368
				c0.406,0.672,0.151,1.488,0.178,2.219c-0.002,0.52,0.024,1.039,0.08,1.556c0.031,0.302,0.137,0.591,0.307,0.842
				c0.425,0.526,1.196,0.609,1.723,0.184c0.046-0.037,0.089-0.077,0.129-0.121c0.35-0.548,0.516-1.193,0.474-1.842
				c0.01-0.463,0.06-0.925,0.15-1.38c0.078-0.428,0.385-0.779,0.8-0.913c0.448-0.07,0.892,0.143,1.118,0.536
				c0.184,0.361,0.29,0.756,0.31,1.161c0.009,0.506,0.177,0.995,0.48,1.4c0.307,0.335,0.774,0.476,1.215,0.366
				c1.225-0.323,0.9-1.636,1.189-2.551c0.071-0.337,0.401-0.552,0.738-0.481c0.152,0.032,0.286,0.119,0.377,0.245
				c0.258,0.371,0.416,0.803,0.456,1.254c0.011,0.4,0.203,0.773,0.521,1.016c0.262,0.15,0.573,0.191,0.865,0.115
				c0.952-0.25,1.292-1.452,1.458-2.3c0.725-3.438,0.874-6.972,0.443-10.459C18.327,7.911,17.456,5.663,16.07,3.738z"/>
			<path class="st2" d="M7.098,25.011h-0.08c-0.505-0.016-0.976-0.259-1.282-0.661c-0.224-0.319-0.363-0.689-0.405-1.077
				c-0.051-0.398-0.076-0.799-0.075-1.2c0-0.138-0.005-0.277-0.01-0.413c-0.005-0.243,0.004-0.486,0.027-0.728
				c0.083-0.418,0.038-0.851-0.131-1.242c-0.034-0.065-0.089-0.118-0.155-0.15c-0.044-0.009-0.088,0.009-0.114,0.045
				c-0.194,0.348-0.276,0.747-0.235,1.143c0,0.056,0,0.112,0,0.167s0,0.106,0,0.152c-0.017,0.769-0.053,2.37-1.457,2.5
				c-0.551,0.034-1.09-0.176-1.473-0.573c-0.603-0.685-0.983-1.537-1.09-2.443c-0.48-2.604-0.681-5.253-0.6-7.9
				C0.03,10.183,0.509,7.76,1.43,5.491c0.616-1.53,1.633-2.865,2.943-3.866c3.864-2.746,9.206-1.956,12.108,1.792l0,0
				c1.452,1.99,2.36,4.325,2.633,6.773c0.431,3.547,0.28,7.141-0.446,10.64c-0.113,0.579-0.458,2.34-1.836,2.7
				c-0.426,0.112-0.879,0.051-1.26-0.17c-0.452-0.319-0.735-0.825-0.77-1.377c-0.029-0.36-0.147-0.708-0.345-1.01
				c-0.042-0.051-0.086-0.078-0.119-0.071s-0.075,0.043-0.1,0.13c-0.063,0.242-0.105,0.49-0.124,0.739
				c-0.086,0.775-0.2,1.837-1.428,2.159c-0.63,0.157-1.295-0.043-1.733-0.522c-0.377-0.482-0.59-1.072-0.608-1.684
				c-0.015-0.332-0.096-0.657-0.24-0.956c-0.116-0.209-0.348-0.325-0.585-0.292c-0.143,0.024-0.313,0.26-0.387,0.537
				c-0.066,0.296-0.102,0.597-0.109,0.9c-0.008,0.132-0.015,0.262-0.026,0.388c-0.008,0.09-0.015,0.181-0.021,0.273
				c0.025,0.672-0.181,1.333-0.584,1.872C8.062,24.811,7.591,25.017,7.098,25.011z M4.966,18.497c0.129,0,0.258,0.022,0.379,0.067
				c0.288,0.113,0.53,0.319,0.685,0.587c0.291,0.573,0.388,1.224,0.277,1.857c-0.019,0.203-0.028,0.408-0.025,0.612
				c0.005,0.143,0.008,0.287,0.01,0.432c-0.002,0.356,0.02,0.712,0.064,1.066c0.019,0.217,0.091,0.425,0.209,0.608
				c0.121,0.153,0.305,0.244,0.5,0.247c0.208,0.013,0.411-0.068,0.554-0.22c0.234-0.374,0.346-0.812,0.321-1.252
				c0.007-0.1,0.014-0.195,0.022-0.29c0.01-0.115,0.017-0.234,0.024-0.356c0.009-0.375,0.057-0.749,0.143-1.114
				c0.124-0.626,0.595-1.127,1.213-1.289c0.659-0.11,1.317,0.202,1.65,0.782c0.224,0.423,0.354,0.889,0.38,1.367
				c0,0.399,0.123,0.789,0.352,1.115c0.178,0.192,0.446,0.272,0.7,0.21c0.49-0.129,0.571-0.451,0.662-1.27
				c0.025-0.315,0.08-0.628,0.164-0.933c0.117-0.424,0.461-0.748,0.891-0.84c0.424-0.078,0.855,0.087,1.119,0.428
				c0.318,0.441,0.514,0.959,0.568,1.5c0.059,0.349,0.123,0.568,0.273,0.656c0.144,0.08,0.313,0.102,0.473,0.06
				c0.5-0.132,0.856-0.752,1.08-1.9c0.718-3.379,0.866-6.854,0.439-10.281c-0.248-2.27-1.082-4.437-2.42-6.287l0,0
				c-2.556-3.315-7.274-4.022-10.689-1.6c-1.159,0.891-2.057,2.078-2.6,3.435c-0.869,2.148-1.32,4.443-1.329,6.76
				c-0.081,2.571,0.112,5.143,0.576,7.672c0.075,0.698,0.353,1.359,0.8,1.9c0.168,0.182,0.405,0.284,0.653,0.282
				c0.4-0.038,0.5-0.576,0.517-1.492c0-0.055,0-0.108,0-0.159c0-0.052,0-0.1,0-0.159c-0.052-0.631,0.114-1.26,0.472-1.782
				C4.294,18.65,4.621,18.497,4.966,18.497L4.966,18.497z"/>
		</g>
		<g transform="translate(5.064 5.524)">
			<circle class="st6" cx="4.078" cy="4.078" r="4.078"/>
		</g>
		<g transform="translate(4.804 5.412)">
			<circle class="st7" cx="4.03" cy="4.03" r="3.404"/>
			<path class="st2" d="M4.03,8.06C1.804,8.06,0,6.256,0,4.03S1.804,0,4.03,0s4.03,1.804,4.03,4.03
				C8.058,6.255,6.255,8.058,4.03,8.06z M4.03,1.252c-1.534,0-2.778,1.244-2.778,2.778c0,1.534,1.244,2.778,2.778,2.778
				S6.808,5.564,6.808,4.03C6.806,2.497,5.564,1.254,4.03,1.252L4.03,1.252z"/>
		</g>
		<g transform="translate(7.392 6.648)">
			<path class="st8" d="M1.471-0.001C0.95-0.001,0.44,0.147,0,0.426c1.379-0.658,3.031-0.074,3.689,1.305
				c0.605,1.268,0.164,2.788-1.025,3.535c1.38-0.658,1.964-2.311,1.306-3.69C3.51,0.613,2.538,0,1.471-0.001L1.471-0.001z"/>
		</g>
		<g transform="translate(6.054 8.289)">
			<path class="st9" d="M3.203,3.571c-1.66,0-3.006-1.346-3.006-3.006l0,0C0.197,0.375,0.215,0.186,0.25,0
				c-0.635,1.393-0.021,3.037,1.372,3.672c1,0.456,2.175,0.278,2.996-0.454C4.183,3.45,3.697,3.572,3.203,3.571z"/>
		</g>
		<g transform="translate(8.067 7.801)">
			<path class="st2" d="M0.691,3.424L0.691,3.424C0.309,3.424,0,3.115,0,2.733V0.691C0,0.309,0.309,0,0.691,0l0,0
				c0.382,0,0.691,0.309,0.691,0.691v2.042c0,0.381-0.308,0.69-0.689,0.691C0.692,3.424,0.692,3.424,0.691,3.424z"/>
		</g>
		<g transform="translate(4.395 13.366)">
			<path class="st6" d="M1.055,2.014c0.002-0.233,0.075-0.46,0.209-0.651C1.271,1.35,1.277,1.337,1.285,1.324v0.007
				c0.1-0.135,0.222-0.253,0.361-0.348c0.017-0.17-0.028-0.34-0.128-0.479c-0.03-0.077-0.17-0.184-0.239-0.131
				C0.801,0.735,0.832,1.602,0.858,2.262c0.012,0.312,0.07,0.726-0.123,0.955c-0.083,0.1-0.125,0.126-0.2,0.03
				c-0.134-0.42-0.186-0.861-0.154-1.3c-0.01-0.28-0.014-0.56-0.011-0.84c0-0.1,0-0.21,0.005-0.315c0-0.035,0-0.072,0-0.107
				c0-0.008,0-0.02,0-0.038c0.012-0.161,0.017-0.575-0.129-0.642s-0.214,0.2-0.227,0.365C-0.02,0.938-0.025,1.507,0.003,2.076
				C-0.015,2.74,0.079,3.403,0.281,4.037c0.245,0.576,0.62,0.231,0.792-0.254c0.116-0.385,0.162-0.787,0.135-1.188
				C1.105,2.419,1.053,2.218,1.055,2.014z"/>
		</g>
		<g transform="translate(3.885 13.884)">
			<path class="st10" d="M3.145,1.404c-0.3,0.166-0.418,0.282-0.551-0.083C2.522,1.067,2.429,0.82,2.316,0.582
				c-0.047-0.083-0.132-0.181-0.24-0.123C1.321,0.854,1.37,1.796,1.411,2.516c0.019,0.339,0.11,0.79-0.194,1.038
				c-0.132,0.107-0.2,0.138-0.31,0.032C0.64,3.338,0.681,2.503,0.664,2.175C0.648,1.87,0.642,1.566,0.647,1.261
				c0-0.114,0-0.229,0.009-0.342c0-0.039,0-0.078,0.005-0.117c0-0.008,0-0.022,0-0.042c0.019-0.176,0.027-0.626-0.2-0.7
				s-0.337,0.219-0.358,0.4C0.042,1.077,0.034,1.698,0.078,2.316C0.052,3.052,0.203,3.784,0.517,4.45
				c0.387,0.627,0.979,0.251,1.251-0.277c0.193-0.443,0.264-0.93,0.208-1.41c-0.023-0.4-0.184-0.949,0.1-1.27
				C2.145,1.785,2.261,2.064,2.419,2.32c0.29,0.356,0.655,0.136,0.882-0.172C3.4,2.023,3.452,1.232,3.145,1.404z"/>
			<path class="st2" d="M1.008,4.829C0.779,4.818,0.574,4.683,0.474,4.477c-0.31-0.635-0.461-1.335-0.441-2.041L0.027,2.319
				c-0.044-0.621-0.036-1.245,0.025-1.865c0.008-0.159,0.08-0.308,0.2-0.413C0.318-0.002,0.4-0.012,0.474,0.014
				c0.3,0.095,0.247,0.687,0.24,0.754v0.043c0,0.034,0,0.073,0,0.111c0,0.114-0.008,0.228-0.009,0.341c0,0.309,0,0.615,0.017,0.911
				c0,0.057,0,0.13,0.006,0.212C0.734,2.75,0.745,3.358,0.949,3.549C1.029,3.624,1.061,3.62,1.19,3.514
				c0.24-0.2,0.211-0.54,0.186-0.844c0-0.052-0.008-0.1-0.011-0.151c-0.04-0.715-0.1-1.694,0.693-2.106
				c0.11-0.058,0.226,0,0.31,0.144c0.086,0.166,0.155,0.34,0.205,0.519c0.024,0.076,0.048,0.152,0.076,0.228
				c0.044,0.12,0.086,0.185,0.13,0.2s0.145-0.031,0.267-0.1l0.079-0.045c0.069-0.052,0.166-0.041,0.222,0.024
				c0.116,0.254,0.118,0.545,0.006,0.8C3.227,2.388,3.016,2.526,2.778,2.559c-0.154,0-0.299-0.074-0.389-0.2
				C2.262,2.182,2.171,1.983,2.121,1.771C2.105,1.717,2.088,1.662,2.07,1.608c-0.113,0.275-0.136,0.58-0.064,0.869
				c0.013,0.1,0.024,0.2,0.03,0.289c0.055,0.49-0.018,0.985-0.214,1.437c-0.138,0.332-0.435,0.57-0.789,0.632L1.008,4.829z
				 M0.391,0.103c-0.028,0-0.055,0.008-0.078,0.024C0.219,0.215,0.164,0.336,0.157,0.465c-0.06,0.614-0.068,1.232-0.024,1.848
				l0.006,0.117c-0.02,0.688,0.126,1.372,0.425,1.992c0.085,0.179,0.263,0.294,0.461,0.3c0.315-0.063,0.577-0.279,0.7-0.575
				c0.188-0.435,0.257-0.912,0.2-1.383C1.92,2.677,1.908,2.582,1.896,2.481C1.797,2.134,1.85,1.762,2.041,1.456l0.057-0.064
				l0.031,0.08c0.033,0.086,0.06,0.175,0.086,0.261c0.046,0.199,0.13,0.387,0.249,0.553C2.533,2.387,2.647,2.448,2.769,2.45
				c0.206-0.033,0.387-0.155,0.494-0.334c0.082-0.215,0.082-0.452,0-0.667c-0.011-0.012-0.032-0.036-0.093,0l0,0L3.092,1.494
				C2.945,1.579,2.839,1.64,2.737,1.603C2.659,1.573,2.602,1.496,2.545,1.339C2.517,1.262,2.492,1.185,2.468,1.107
				c-0.049-0.173-0.116-0.341-0.2-0.5c-0.038-0.067-0.1-0.14-0.17-0.1C1.368,0.888,1.421,1.828,1.46,2.515
				c0,0.047,0.007,0.1,0.011,0.148c0.085,0.329,0.001,0.679-0.224,0.933c-0.129,0.1-0.231,0.168-0.378,0.03
				c-0.237-0.22-0.247-0.833-0.254-1.238c0-0.081,0-0.152-0.006-0.208c-0.016-0.3-0.022-0.607-0.017-0.917
				c0-0.114,0-0.229,0.009-0.344c0-0.038,0-0.079,0.005-0.118V0.757c0.025-0.229,0-0.59-0.167-0.643
				c-0.016-0.005-0.032-0.009-0.048-0.01V0.103z"/>
		</g>
		<g transform="translate(3.342 1.098)">
			<g transform="translate(0)">
				<path class="st11" d="M7.456,0.002c-1.374,0.116-2.692,0.599-3.815,1.4C2.476,2.298,1.573,3.49,1.027,4.854
					C0.547,5.989,0.202,7.177,0,8.394C1.185,4.147,4.084,0.953,7.456,0.002z"/>
			</g>
		</g>
		<g transform="translate(11.901 1.076)">
			<g transform="translate(0 0)">
				<path class="st6" d="M8.215,9.289c-0.25-2.271-1.09-4.436-2.436-6.282C4.384,1.21,2.273,0.111,0,0
					c3.7,0.632,6.587,5.792,6.587,12.063c0.025,2.414-0.439,4.808-1.364,7.038c0.051,0.044,0.098,0.093,0.141,0.144
					c0.319,0.441,0.516,0.958,0.571,1.5c0.059,0.348,0.123,0.567,0.275,0.656c0.145,0.08,0.315,0.101,0.476,0.06
					c0.506-0.132,0.862-0.752,1.087-1.9C8.495,16.186,8.645,12.714,8.215,9.289z"/>
			</g>
		</g>
		<g transform="translate(14.854 0.73)">
			<g transform="translate(0 0)">
				<g transform="translate(0.521 0.521)">
					<path class="st1" d="M2.377,7.386C1.672,7.461,0.963,7.289,0.371,6.898c-0.112-0.078-0.203-0.18-0.268-0.3
						C0.015,6.433-0.02,6.245,0.003,6.06c0-1.044,1.3-2.687,2.421-3.791S5.091,0,6.093,0c0.28-0.013,0.551,0.102,0.735,0.313
						C7.114,0.75,7.123,1.314,6.851,1.76c0.051,0,0.1,0,0.149,0c0.442-0.058,0.878,0.146,1.116,0.523
						C8.311,2.756,8.198,3.3,7.831,3.656c0.7,0.126,1.112,0.4,1.235,0.824c0.069,0.25,0.028,0.519-0.113,0.737
						C8.441,6.076,6.581,6.743,5.012,7.082C4.147,7.274,3.264,7.376,2.377,7.386z"/>
				</g>
				<path class="st2" d="M6.617,1.043c0.126-0.01,0.25,0.038,0.337,0.129c0.239,0.281,0,0.974-0.568,1.82
					C6.755,2.878,7.137,2.813,7.523,2.8c0.334,0,0.566,0.079,0.656,0.248c0.177,0.329-0.223,0.921-0.985,1.568H7.32
					c0.983,0,1.666,0.181,1.768,0.528c0.174,0.6-1.465,1.472-3.663,1.946c-0.83,0.187-1.677,0.287-2.528,0.3
					C2.312,7.459,1.72,7.327,1.22,7.016C1.162,6.983,1.115,6.935,1.082,6.877C1.042,6.796,1.03,6.704,1.049,6.616
					c-0.028-0.675,0.884-2.094,2.263-3.45c1.314-1.288,2.642-2.119,3.3-2.119 M6.612,0.004c-1.458,0-3.456,1.85-4.034,2.418
					C1.972,3.017,0.031,5.041,0.002,6.554C-0.028,6.836,0.027,7.12,0.16,7.371c0.098,0.18,0.235,0.336,0.4,0.458
					c0.683,0.47,1.51,0.682,2.335,0.6C3.82,8.418,4.741,8.31,5.644,8.109c0.814-0.175,3.527-0.845,4.28-2.108
					c0.214-0.343,0.274-0.76,0.166-1.15c-0.144-0.464-0.498-0.834-0.955-1c0.339-0.725,0.026-1.588-0.699-1.928
					c-0.12-0.056-0.247-0.096-0.378-0.117c0.104-0.462-0.01-0.947-0.31-1.314c-0.284-0.327-0.7-0.51-1.133-0.5L6.612,0.004z"/>
			</g>
			<g transform="translate(2.065 1.061)">
				<path class="st3" d="M1.887,1.924c0.925-0.698,1.974-1.215,3.092-1.521c0.002-0.099-0.03-0.197-0.091-0.275
					c-0.4-0.477-2.035,0.414-3.64,1.99C0.8,2.555,0.383,3.023,0,3.518C0.575,2.926,1.207,2.392,1.887,1.924z"/>
			</g>
			<g transform="translate(1.045 2.932)">
				<path class="st4" d="M8.044,2.211C7.939,1.849,7.2,1.668,6.15,1.684c0.762-0.647,1.161-1.239,0.985-1.568
					C7.11,0.071,7.076,0.031,7.035,0L0.002,3.79c0.002,0.052,0.015,0.103,0.039,0.15c0.033,0.058,0.08,0.106,0.138,0.139
					c0.44,0.461,2.209,0.507,4.205,0.077C6.579,3.684,8.222,2.812,8.044,2.211z"/>
			</g>
		</g>
		<g transform="translate(14.238 10.327)">
			<path class="st6" d="M1.02,0.499c0.005,0.281-0.218,0.514-0.5,0.52S0.006,0.8,0,0.519c-0.005-0.281,0.218-0.514,0.499-0.52
				C0.781-0.007,1.014,0.216,1.02,0.498C1.02,0.498,1.02,0.499,1.02,0.499z"/>
		</g>
		<g transform="translate(9.958 18.12)">
			<path class="st6" d="M1.02,0.5c0.005,0.281-0.218,0.514-0.5,0.52S0.006,0.801,0,0.52C-0.005,0.239,0.218,0.006,0.499,0
				C0.781-0.006,1.014,0.217,1.02,0.499C1.02,0.499,1.02,0.5,1.02,0.5z"/>
		</g>
		<g transform="translate(8.809 18.977)">
			<path class="st11" d="M0.674,0.33c0.004,0.186-0.144,0.34-0.33,0.344C0.158,0.678,0.004,0.53,0,0.344
				C-0.004,0.158,0.144,0.004,0.33,0C0.516-0.004,0.67,0.144,0.674,0.33L0.674,0.33z"/>
		</g>
		<g transform="translate(15.67 10.646)">
			<circle class="st6" cx="0.766" cy="0.766" r="0.766"/>
		</g>
		<g transform="translate(15.767 9.411)">
			<path class="st6" d="M0.765,0.375C0.769,0.586,0.601,0.76,0.39,0.764C0.179,0.768,0.005,0.6,0.001,0.389
				C-0.003,0.178,0.165,0.004,0.375,0c0.211-0.004,0.386,0.163,0.39,0.374C0.765,0.374,0.765,0.375,0.765,0.375z"/>
		</g>
		<g transform="translate(14.17 2.268)">
			<path class="st11" d="M0.765,0.375C0.769,0.586,0.602,0.761,0.39,0.766S0.004,0.602-0.001,0.391
				C-0.005,0.179,0.163,0.004,0.374,0c0,0,0.001,0,0.001,0C0.586-0.004,0.761,0.164,0.765,0.375z"/>
		</g>
		<g transform="translate(13.585 13.003)">
			<path class="st6" d="M4.446,3.244C4.441,3.109,4.41,2.778,4.213,2.778S3.988,3.117,3.98,3.244
				c0.015,0.281-0.037,0.562-0.152,0.819c-0.218,0.3-0.582-0.032-0.712-0.262C2.762,3.175,2.799,2.425,2.291,1.867
				c-0.2-0.222-0.337,0.147-0.363,0.3C1.896,2.347,1.872,2.75,1.635,2.775C1.428,2.797,1.39,2.606,1.355,2.493
				c-0.083-0.396-0.142-0.797-0.176-1.2c-0.08-0.457-0.321-1.671-1.03-1.177c-0.268,0.187-0.14,1.109,0.127,0.921
				c0.368-0.26,0.4,0.293,0.447,0.558c0.074,0.451,0.093,0.912,0.19,1.358c0.078,0.361,0.339,0.918,0.8,0.84
				c0.306-0.052,0.473-0.375,0.57-0.714C2.637,3.83,2.553,4.997,3.514,5.22C4.437,5.434,4.467,3.798,4.446,3.244z"/>
		</g>
		<g transform="translate(13.506 13.967)">
			<path class="st10" d="M4.497,3.297C4.492,3.161,4.461,2.83,4.264,2.83S4.039,3.169,4.031,3.297
				c0.015,0.281-0.037,0.562-0.152,0.819c-0.218,0.3-0.582-0.032-0.712-0.262C2.813,3.228,2.85,2.477,2.342,1.92
				c-0.2-0.222-0.337,0.147-0.363,0.3C1.947,2.401,1.923,2.803,1.686,2.828C1.479,2.85,1.441,2.659,1.406,2.546
				C1.323,2.15,1.264,1.749,1.23,1.346C1.15,0.889,0.909-0.324,0.2,0.169C-0.068,0.356,0.06,1.278,0.327,1.09
				c0.368-0.26,0.4,0.293,0.447,0.558c0.074,0.451,0.093,0.912,0.19,1.359c0.078,0.361,0.339,0.918,0.8,0.84
				c0.306-0.052,0.473-0.375,0.57-0.714c0.354,0.751,0.27,1.918,1.231,2.141C4.489,5.487,4.524,3.851,4.497,3.297z"/>
			<path class="st2" d="M3.724,5.345c-0.057,0-0.114-0.007-0.17-0.02C2.848,5.161,2.682,4.515,2.522,3.89
				C2.474,3.684,2.413,3.481,2.341,3.283C2.211,3.65,2.02,3.856,1.773,3.899c-0.51,0.086-0.781-0.513-0.861-0.88
				c-0.053-0.264-0.092-0.531-0.118-0.8C0.773,2.035,0.752,1.844,0.721,1.658c0-0.027-0.009-0.058-0.014-0.09
				C0.682,1.394,0.643,1.131,0.533,1.083c-0.044-0.019-0.1,0-0.178,0.051C0.31,1.171,0.247,1.179,0.193,1.155
				C0.075,1.1,0.017,0.893,0.001,0.717c-0.041-0.212,0.021-0.43,0.166-0.589c0.138-0.119,0.328-0.154,0.5-0.094
				c0.414,0.172,0.564,1.025,0.613,1.3c0.026,0.15,0.042,0.309,0.056,0.462c0.015,0.246,0.055,0.49,0.118,0.729l0.008,0.027
				C1.502,2.689,1.54,2.783,1.678,2.77c0.165-0.017,0.207-0.3,0.234-0.481c0-0.031,0.009-0.06,0.013-0.084
				c0.017-0.1,0.094-0.357,0.246-0.4c0.079-0.018,0.16,0.014,0.207,0.08c0.265,0.33,0.447,0.718,0.531,1.133
				c0.067,0.281,0.168,0.553,0.3,0.81c0.08,0.142,0.27,0.347,0.442,0.356c0.075,0.003,0.145-0.035,0.182-0.1
				c0.102-0.215,0.149-0.452,0.138-0.69c0-0.037,0-0.071,0.005-0.1c0.02-0.342,0.115-0.515,0.285-0.515s0.272,0.183,0.285,0.517l0,0
				c0.014,0.35,0.022,1.522-0.455,1.917C3.988,5.299,3.858,5.346,3.724,5.345z M2.324,2.985L2.383,3.11
				c0.104,0.243,0.185,0.495,0.242,0.753c0.159,0.622,0.31,1.21,0.954,1.359c0.156,0.046,0.325,0.011,0.45-0.092
				c0.361-0.538,0.51-1.191,0.417-1.833l0,0c0-0.1-0.028-0.416-0.18-0.416c-0.1,0-0.165,0.148-0.181,0.417c0,0.031,0,0.064,0,0.1
				c0.012,0.258-0.042,0.515-0.157,0.746C3.869,4.236,3.766,4.29,3.656,4.286C3.429,4.233,3.237,4.083,3.129,3.877
				c-0.136-0.264-0.241-0.544-0.31-0.833C2.74,2.645,2.566,2.27,2.311,1.953c-0.038-0.042-0.072-0.059-0.1-0.05
				c-0.079,0.023-0.152,0.2-0.172,0.319c0,0.024-0.008,0.052-0.013,0.081C1.994,2.52,1.945,2.847,1.7,2.873S1.405,2.692,1.373,2.581
				L1.365,2.555C1.3,2.31,1.259,2.059,1.243,1.806c-0.015-0.152-0.03-0.308-0.055-0.454c-0.126-0.714-0.311-1.127-0.55-1.227
				c-0.139-0.046-0.291-0.014-0.4,0.083c-0.112,0.139-0.157,0.32-0.122,0.495c0.017,0.2,0.079,0.328,0.132,0.353
				c0.011,0.005,0.029,0.009,0.057-0.011C0.38,0.976,0.487,0.953,0.584,0.984c0.164,0.07,0.2,0.345,0.236,0.566
				c0,0.032,0.009,0.061,0.013,0.088c0.031,0.188,0.053,0.38,0.074,0.566c0.025,0.265,0.064,0.529,0.116,0.79
				c0.067,0.309,0.307,0.873,0.742,0.8c0.234-0.04,0.411-0.268,0.528-0.677L2.324,2.985z"/>
		</g>
		<g transform="translate(18.539 9.763)">
			<path class="st6" d="M1.119,1.803c-0.039-0.521-0.31-0.29-0.317,0.12c0.041,0.326,0.037,0.656-0.012,0.98
				c-0.136,0.3-0.286-0.089-0.326-0.3C0.326,1.859,0.445,1.066,0.336,0.317c-0.091-0.626-0.392-0.2-0.327,0.254
				C0.086,1.105,0.045,1.68,0.073,2.223C0.05,2.782,0.169,3.337,0.417,3.838c0.283,0.39,0.574,0.1,0.673-0.352
				C1.179,2.929,1.189,2.363,1.119,1.803z"/>
		</g>
		<g transform="translate(18.307 10.696)">
			<path class="st10" d="M1.573,1.808c-0.055-0.522-0.436-0.29-0.446,0.12C1.122,2.174,1.242,2.699,1.11,2.908
				c-0.191,0.3-0.4-0.089-0.458-0.3c-0.194-0.744-0.027-1.537-0.18-2.286c-0.128-0.626-0.551-0.2-0.46,0.253
				c0.064,0.548,0.094,1.1,0.09,1.652C0.076,2.805,0.246,3.374,0.585,3.842c0.4,0.391,0.807,0.1,0.946-0.351
				C1.657,2.938,1.671,2.366,1.573,1.808z"/>
		</g>
		<g transform="translate(3.226 17.653)">
			<g transform="translate(0 0)">
				<path class="st11" d="M2.308,4.046C1.373,4.17,0.359,2.374,0,0c0.1,0.942,0.229,1.842,0.392,2.663
					c0.074,0.698,0.352,1.359,0.8,1.9c0.169,0.182,0.406,0.284,0.654,0.282c0.289-0.027,0.418-0.309,0.476-0.8L2.308,4.046z"/>
			</g>
		</g>
	</g>
</g>
<g>
	<g>
		<path class="st12" d="M26,17c4.97,0,9,4.03,9,9s-4.03,9-9,9s-9-4.028-9-9S21.029,17,26,17"/>
	</g>
	<g>
		<path class="st8" d="M29.215,23.862c-0.229-0.13-0.522-0.13-0.783,0l-1.828,1.077l-1.24,0.686l-1.795,1.077
			c-0.229,0.131-0.523,0.131-0.784,0l-1.403-0.848c-0.229-0.131-0.392-0.392-0.392-0.686v-1.632c0-0.261,0.131-0.523,0.392-0.686
			l1.403-0.816c0.229-0.131,0.523-0.131,0.784,0l1.403,0.848c0.229,0.13,0.392,0.392,0.392,0.686v1.077l1.24-0.718v-1.11
			c0-0.261-0.13-0.522-0.392-0.685L23.6,20.597c-0.229-0.131-0.523-0.131-0.784,0l-2.677,1.567
			c-0.261,0.131-0.391,0.392-0.391,0.653v3.068c0,0.261,0.13,0.523,0.391,0.686l2.644,1.534c0.229,0.13,0.522,0.13,0.784,0
			l1.795-1.045l1.24-0.718l1.795-1.044c0.229-0.131,0.523-0.131,0.783,0l1.403,0.816c0.229,0.13,0.392,0.391,0.392,0.685v1.632
			c0,0.261-0.13,0.523-0.392,0.686l-1.371,0.816c-0.229,0.131-0.522,0.131-0.784,0l-1.403-0.816
			c-0.229-0.131-0.392-0.392-0.392-0.686v-1.045l-1.24,0.718v1.077c0,0.261,0.131,0.522,0.392,0.686l2.644,1.534
			c0.228,0.13,0.522,0.13,0.783,0l2.644-1.534c0.229-0.131,0.391-0.392,0.391-0.686v-3.101c0-0.261-0.131-0.523-0.392-0.685
			L29.215,23.862z"/>
	</g>
</g>
</svg>
