<svg xmlns="http://www.w3.org/2000/svg" xmlns:xlink="http://www.w3.org/1999/xlink" width="256" height="256" viewBox="0 0 256 256"><defs><linearGradient id="a" x1="0.967" y1="0.973" x2="0" gradientUnits="objectBoundingBox"><stop offset="0" stop-color="#2abef7"/><stop offset="1" stop-color="#2c6def"/></linearGradient><linearGradient id="b" x1="0.96" y1="0.026" x2="0.026" y2="0.964" gradientUnits="objectBoundingBox"><stop offset="0" stop-color="#b6509e"/><stop offset="1" stop-color="#2ebac6"/></linearGradient><linearGradient id="c" x1="0.907" y1="0.227" x2="0.163" y2="0.853" xlink:href="#b"/><clipPath id="e"><rect width="256" height="256"/></clipPath></defs><g id="d" clip-path="url(#e)"><g transform="translate(24006 15085)"><path d="M30.72,0H225.28A30.72,30.72,0,0,1,256,30.72V225.28A30.72,30.72,0,0,1,225.28,256H30.72A30.72,30.72,0,0,1,0,225.28V30.72A30.72,30.72,0,0,1,30.72,0Z" transform="translate(-24006 -15085)" fill="#fff"/><path d="M225.281,256H30.72A30.694,30.694,0,0,1,0,225.281V30.72A30.695,30.695,0,0,1,30.72,0h194.56A30.695,30.695,0,0,1,256,30.72v194.56A30.694,30.694,0,0,1,225.281,256ZM37.12,10.24A26.858,26.858,0,0,0,10.24,37.12V218.88a26.857,26.857,0,0,0,26.88,26.88H218.88a26.857,26.857,0,0,0,26.88-26.88V37.12a26.857,26.857,0,0,0-26.88-26.88Z" transform="translate(-24006 -15085)" fill="url(#a)"/><path d="M204.8,230.4H25.6A25.578,25.578,0,0,1,0,204.8V25.6A25.578,25.578,0,0,1,25.6,0H204.8a25.578,25.578,0,0,1,25.6,25.6V204.8a25.578,25.578,0,0,1-25.6,25.6ZM28.159,8.96a19.2,19.2,0,0,0-19.2,19.2V202.241a19.2,19.2,0,0,0,19.2,19.2H202.241a19.2,19.2,0,0,0,19.2-19.2V28.159a19.2,19.2,0,0,0-19.2-19.2Z" transform="translate(-23993.199 -15072.2)" fill="url(#b)"/></g><g transform="translate(29 29)"><circle cx="87.5" cy="87.5" r="87.5" transform="translate(12 12)" fill="url(#c)"/><path d="M79.278,77.032,49.683,5.507C48.011,1.812,45.538,0,42.266,0H39.648C36.376,0,33.9,1.812,32.231,5.507L19.361,36.668H9.617a5.329,5.329,0,0,0-5.308,5.29v.072a5.329,5.329,0,0,0,5.308,5.29h5.235L2.564,77.032A6.268,6.268,0,0,0,2.2,79.061a5.593,5.593,0,0,0,1.454,3.986,5.1,5.1,0,0,0,3.927,1.522,5.316,5.316,0,0,0,3.054-1.015,6.454,6.454,0,0,0,2.109-2.681L26.269,47.321h9.38a5.329,5.329,0,0,0,5.308-5.29v-.145a5.329,5.329,0,0,0-5.308-5.29H30.632L40.957,10.87l28.141,70a6.454,6.454,0,0,0,2.109,2.681,5.316,5.316,0,0,0,3.054,1.015,5.1,5.1,0,0,0,3.927-1.522,5.593,5.593,0,0,0,1.454-3.986A4.791,4.791,0,0,0,79.278,77.032Z" transform="translate(58.511 57.329)" fill="#fff"/></g></g></svg>