<svg xmlns="http://www.w3.org/2000/svg" width="32.013" height="41.448" viewBox="0 0 32.013 41.448">
  <g id="Group_700" data-name="Group 700" transform="translate(-742.746 -292.633)">
    <path id="Path_851" data-name="Path 851" d="M770.447,383.268a2.929,2.929,0,0,1-1.342-1.976l-.024-.113c-.795-4.255-4.576-8.1-9.829-9.44-4.822-1.228-9.565,0-12.427,2.8a2.743,2.743,0,0,1-2.182,1.008c-1.278.058-1.184,4.955-.086,8.079,1.2,3.8,4.764,7.1,9.55,8.318a13.393,13.393,0,0,0,11.866-2.29C768.23,387.87,771.571,383.814,770.447,383.268Z" transform="translate(-0.717 -58.58)" fill="#f2b877"/>
    <path id="Path_852" data-name="Path 852" d="M764.771,392.476c-1.705,2.537-6.733,2.689-8.785,1.835,0-1.013.391-1.262.822-2.223.9-2-3.171-3.057-4.679-2.37-1.309.6-1.394,2.486-.505,3.9a5.375,5.375,0,0,1-4.186-3.141c-.838-2.666.333-5.426-.906-5.25h0a2.649,2.649,0,0,1-1.888.719c-1.278.058-1.184,4.955-.086,8.079,1.2,3.8,4.764,7.1,9.55,8.318a13.394,13.394,0,0,0,11.866-2.29c2.258-1.784,5.6-5.839,4.475-6.386a2.929,2.929,0,0,1-1.342-1.976C768.7,391,766.4,390.06,764.771,392.476Z" transform="translate(-0.717 -68.975)" fill="#fff"/>
    <g id="Group_314" data-name="Group 314" transform="translate(743.265 316.676)">
      <g id="Group_310" data-name="Group 310" transform="translate(24.969 7.763)">
        <path id="Path_853" data-name="Path 853" d="M842.956,419.484a.25.25,0,0,1-.144-.453,2.551,2.551,0,0,0,1.144-1.447.252.252,0,0,1,.283-.209.248.248,0,0,1,.211.279,2.938,2.938,0,0,1-1.349,1.784A.247.247,0,0,1,842.956,419.484Z" transform="translate(-842.707 -417.372)" fill="#141414"/>
      </g>
      <g id="Group_311" data-name="Group 311" transform="translate(24.969 7.399)">
        <path id="Path_854" data-name="Path 854" d="M842.956,417.063a.25.25,0,0,1-.091-.482,1.14,1.14,0,0,0,.6-.5.252.252,0,0,1,.332-.116.248.248,0,0,1,.119.329,1.636,1.636,0,0,1-.867.747A.25.25,0,0,1,842.956,417.063Z" transform="translate(-842.707 -415.945)" fill="#141414"/>
      </g>
      <g id="Group_312" data-name="Group 312" transform="translate(0 0.161)">
        <path id="Path_855" data-name="Path 855" d="M745.3,389.966a.25.25,0,0,1-.229-.15,2.757,2.757,0,0,1-.163-2.109.249.249,0,0,1,.457.2,2.288,2.288,0,0,0,.163,1.71.25.25,0,0,1-.129.329A.247.247,0,0,1,745.3,389.966Z" transform="translate(-744.781 -387.557)" fill="#141414"/>
      </g>
      <g id="Group_313" data-name="Group 313" transform="translate(0.789)">
        <path id="Path_856" data-name="Path 856" d="M748.295,388.457a.249.249,0,0,1-.208-.111,1.644,1.644,0,0,1-.156-1.237.25.25,0,0,1,.481.135,1.153,1.153,0,0,0,.09.825.249.249,0,0,1-.207.388Z" transform="translate(-747.874 -386.927)" fill="#141414"/>
      </g>
    </g>
    <g id="Group_315" data-name="Group 315" transform="translate(742.746 312.429)">
      <path id="Path_857" data-name="Path 857" d="M757.107,391.922a15.335,15.335,0,0,1-3.78-.476c-4.727-1.2-8.454-4.454-9.726-8.484-.973-2.767-1.152-6.8-.352-7.986a.841.841,0,0,1,.664-.418,2.369,2.369,0,0,0,1.861-.782,2.149,2.149,0,0,1,.173-.168c3.026-2.967,7.878-4.064,12.648-2.85,5.157,1.313,9.181,5.186,10.013,9.636l.023.107a2.7,2.7,0,0,0,1.206,1.8h0a.636.636,0,0,1,.36.532c.142,1.309-2.807,4.709-4.789,6.274A12.917,12.917,0,0,1,757.107,391.922Zm-2.348-21.153a12.033,12.033,0,0,0-8.477,3.208,1.964,1.964,0,0,0-.147.144,2.878,2.878,0,0,1-2.2.936c-.036,0-.144.007-.274.2-.716,1.061-.5,4.941.411,7.549,1.223,3.874,4.815,7,9.376,8.159a13.236,13.236,0,0,0,11.644-2.239c2.022-1.6,4.717-4.832,4.608-5.834-.01-.094-.047-.12-.082-.136h0a3.156,3.156,0,0,1-1.479-2.159l-.022-.1c-.8-4.269-4.674-7.984-9.647-9.25A15.052,15.052,0,0,0,754.759,370.77Z" transform="translate(-742.746 -370.271)" fill="#141414"/>
    </g>
    <g id="Group_316" data-name="Group 316" transform="translate(746.534 315.601)">
      <ellipse id="Ellipse_37" data-name="Ellipse 37" cx="2.609" cy="1.791" rx="2.609" ry="1.791" transform="matrix(0.275, -0.962, 0.962, 0.275, 0, 5.018)" fill="#141414"/>
      <circle id="Ellipse_38" data-name="Ellipse 38" cx="0.509" cy="0.509" r="0.509" transform="translate(2.747 1.486)" fill="#fff"/>
    </g>
    <g id="Group_317" data-name="Group 317" transform="translate(757.765 317.749)">
      <ellipse id="Ellipse_39" data-name="Ellipse 39" cx="2.911" cy="1.999" rx="2.911" ry="1.999" transform="matrix(0.275, -0.962, 0.962, 0.275, 0, 5.598)" fill="#141414"/>
      <circle id="Ellipse_40" data-name="Ellipse 40" cx="0.567" cy="0.567" r="0.567" transform="translate(3.064 1.657)" fill="#fff"/>
    </g>
    <g id="Group_320" data-name="Group 320" transform="translate(750.956 327.654)">
      <g id="Group_318" data-name="Group 318">
        <path id="Path_858" data-name="Path 858" d="M777.5,430.957a4.656,4.656,0,0,1-1.573.047l0,0c.262,2.084,3.025,2.615,3.346.674l0,0a4.578,4.578,0,0,1-1.766-.723Z" transform="translate(-775.673 -430.708)" fill="#fff"/>
        <path id="Path_859" data-name="Path 859" d="M777.183,432.409h-.039a2.336,2.336,0,0,1-2.2-2.1.255.255,0,0,1,.282-.283,4.384,4.384,0,0,0,1.487-.042.246.246,0,0,1,.206.044,4.314,4.314,0,0,0,1.669.678.244.244,0,0,1,.1.044.254.254,0,0,1,.1.242A1.57,1.57,0,0,1,777.183,432.409Zm-1.68-1.854a1.812,1.812,0,0,0,1.651,1.355,1.059,1.059,0,0,0,1.086-.771,3.237,3.237,0,0,0-2.737-.584Z" transform="translate(-774.944 -429.979)" fill="#141414"/>
      </g>
      <g id="Group_319" data-name="Group 319" transform="translate(1.578 0)">
        <path id="Path_860" data-name="Path 860" d="M781.383,431.444a.25.25,0,0,1-.25-.25v-.965a.249.249,0,1,1,.5,0v.965A.25.25,0,0,1,781.383,431.444Z" transform="translate(-781.133 -429.98)" fill="#141414"/>
      </g>
    </g>
    <g id="Group_323" data-name="Group 323" transform="translate(745.069 322.428)">
      <g id="Group_321" data-name="Group 321" transform="translate(7.206 0.583)">
        <path id="Path_861" data-name="Path 861" d="M784.495,417.843a7,7,0,0,1-4.017-.981.246.246,0,0,1-.088-.121,10.881,10.881,0,0,1,.034-4.777.25.25,0,0,1,.487.11,10.783,10.783,0,0,0-.071,4.434c1.128.789,3.477,1.051,5.892.643,2.674-.449,4.784-1.557,5.789-3.04a.249.249,0,0,1,.413.279c-1.081,1.6-3.311,2.781-6.119,3.253A14.087,14.087,0,0,1,784.495,417.843Z" transform="translate(-780.119 -411.77)" fill="#141414"/>
      </g>
      <g id="Group_322" data-name="Group 322">
        <path id="Path_862" data-name="Path 862" d="M758.679,415.3a7.6,7.6,0,0,1-4.168-1.356,6,6,0,0,1-2.651-4.179.25.25,0,0,1,.214-.281.253.253,0,0,1,.281.214,5.518,5.518,0,0,0,2.44,3.834,6.606,6.606,0,0,0,4.72,1.183.25.25,0,0,1,.114.486A4.229,4.229,0,0,1,758.679,415.3Z" transform="translate(-751.857 -409.483)" fill="#141414"/>
      </g>
    </g>
    <g id="Group_326" data-name="Group 326" transform="translate(746.532 292.633)">
      <path id="Path_863" data-name="Path 863" d="M762.9,293.656a3.381,3.381,0,0,0-3.094.922c-1.336,1.425-1.6,4.371-.774,8.519a33.577,33.577,0,0,0,4.048,10.623l.063.1.3.46a13.666,13.666,0,0,1,3.992-.374l.046-.469.015-.159c.153-1.633.507-5.806.5-9.27C767.987,300.416,766.9,294.19,762.9,293.656Z" transform="translate(-758.316 -293.359)" fill="#f2b877"/>
      <g id="Group_324" data-name="Group 324" transform="translate(2.756 4.81)">
        <path id="Path_864" data-name="Path 864" d="M772.317,326.841s-3.185-8.662-2.922-12.007c.291-3.688,3.233-2.8,4.125.9,1.027,4.265.724,10.747.724,10.747A7.155,7.155,0,0,0,772.317,326.841Z" transform="translate(-769.131 -312.224)" fill="#ffc5c5"/>
        <path id="Path_865" data-name="Path 865" d="M771.588,326.362a.248.248,0,0,1-.1-.022.251.251,0,0,1-.132-.141c-.131-.356-3.2-8.753-2.936-12.114.176-2.229,1.223-2.551,1.664-2.586,1.207-.085,2.447,1.356,2.951,3.451,1.024,4.25.734,10.753.731,10.818a.251.251,0,0,1-.24.238,6.912,6.912,0,0,0-1.846.339A.255.255,0,0,1,771.588,326.362Zm-1.4-14.368c-.023,0-.046,0-.069,0-.654.051-1.105.846-1.206,2.127-.233,2.952,2.325,10.277,2.824,11.672a7.457,7.457,0,0,1,1.535-.274,46.539,46.539,0,0,0-.726-10.454C772.062,313.047,770.988,311.995,770.19,311.995Z" transform="translate(-768.401 -311.496)" fill="#141414"/>
      </g>
      <g id="Group_325" data-name="Group 325">
        <path id="Path_866" data-name="Path 866" d="M762.722,313.807a.25.25,0,0,1-.2-.106,32.659,32.659,0,0,1-4.449-11.282c-.846-4.23-.557-7.252.837-8.738a3.626,3.626,0,0,1,3.309-1c3.9.521,5.3,6.037,5.309,10.6.01,4.356-.556,9.869-.561,9.924a.25.25,0,0,1-.5-.052c.006-.055.569-5.542.559-9.871-.008-3.514-1.043-9.6-4.876-10.108a3.146,3.146,0,0,0-2.878.844c-1.279,1.364-1.525,4.234-.712,8.3a32.123,32.123,0,0,0,4.368,11.092.25.25,0,0,1-.2.393Z" transform="translate(-757.594 -292.633)" fill="#141414"/>
      </g>
    </g>
    <g id="Group_330" data-name="Group 330" transform="translate(754.62 310.794)">
      <path id="Path_867" data-name="Path 867" d="M793.748,366.383a1.451,1.451,0,0,0-.016-.164,1.765,1.765,0,0,0-.653-1.161c-.387-.319-.625-.223-.734-.136-.317.255-.32.959-.006,1.569a.213.213,0,0,0,.016.026c.025.033.045.065.068.1a2.1,2.1,0,0,0-1.313-.87c-.445-.1-.737-.008-.8.256a.921.921,0,0,0,.239.715,3.254,3.254,0,0,0,1.333.88l.85-.239a3.84,3.84,0,0,0,.958-.071,6.251,6.251,0,0,0,.063-.776C793.75,366.469,793.751,366.427,793.748,366.383Z" transform="translate(-790.045 -364.587)" fill="#f2b877"/>
      <g id="Group_329" data-name="Group 329">
        <g id="Group_327" data-name="Group 327" transform="translate(0 0.869)">
          <path id="Path_868" data-name="Path 868" d="M791.141,369.625a.235.235,0,0,1-.067-.009c-1.181-.327-1.892-1.257-1.739-1.868.038-.153.228-.634,1.1-.439a2.286,2.286,0,0,1,1.809,1.748.249.249,0,0,1-.2.288.246.246,0,0,1-.288-.2,1.8,1.8,0,0,0-1.427-1.345c-.212-.048-.474-.058-.507.073-.071.283.415,1,1.389,1.266a.249.249,0,0,1-.067.49Z" transform="translate(-789.315 -367.263)" fill="#141414"/>
        </g>
        <g id="Group_328" data-name="Group 328" transform="translate(1.815)">
          <path id="Path_869" data-name="Path 869" d="M798.216,366.688a.258.258,0,0,1-.086-.016.249.249,0,0,1-.147-.32,1.682,1.682,0,0,0-.488-1.832c-.088-.072-.3-.23-.418-.134a1.213,1.213,0,0,0,.059,1.26.249.249,0,0,1-.443.229,1.6,1.6,0,0,1,.071-1.878c.136-.109.506-.31,1.049.138a2.155,2.155,0,0,1,.638,2.389A.249.249,0,0,1,798.216,366.688Z" transform="translate(-796.432 -363.857)" fill="#141414"/>
        </g>
      </g>
    </g>
    <g id="Group_334" data-name="Group 334" transform="translate(761.025 297.442)">
      <path id="Path_870" data-name="Path 870" d="M828.221,316.12a5.708,5.708,0,0,0-4.308-3.5,6.607,6.607,0,0,0-5.661,1.454,7.744,7.744,0,0,0-2.836,5.937,4.03,4.03,0,0,0,2.5,3.729,5.522,5.522,0,0,0,1.687.45l-.038.113a17.144,17.144,0,0,1-2.927,5.064l-.123.149-.375.431a14.848,14.848,0,0,1,2.606,2.142l.62-.391.113-.077a28.071,28.071,0,0,0,6.975-7.052C828.526,321.6,829.17,318.526,828.221,316.12Z" transform="translate(-815.165 -312.223)" fill="#f2b877"/>
      <g id="Group_331" data-name="Group 331" transform="translate(0.727 11.713)">
        <path id="Path_871" data-name="Path 871" d="M817.536,363.688a.25.25,0,0,1-.186-.417,16.662,16.662,0,0,0,3.41-5.664.249.249,0,1,1,.478.142,16.834,16.834,0,0,1-3.517,5.856A.251.251,0,0,1,817.536,363.688Z" transform="translate(-817.287 -357.429)" fill="#141414"/>
      </g>
      <g id="Group_332" data-name="Group 332" transform="translate(2.778 8.177)">
        <path id="Path_872" data-name="Path 872" d="M826.311,353.25a4.541,4.541,0,0,1,1.192,1.081c.887-.721,5.23-6.15,5.486-9.8h0a6.534,6.534,0,0,1-1.807,2.625,4.049,4.049,0,0,1-1.93.852l0,.009A21.167,21.167,0,0,1,826.311,353.25Z" transform="translate(-826.061 -344.287)" fill="#ffc5c5"/>
        <path id="Path_873" data-name="Path 873" d="M826.773,353.855a.264.264,0,0,1-.05-.005.248.248,0,0,1-.17-.127,4.162,4.162,0,0,0-1.108-.989.25.25,0,0,1-.111-.173.253.253,0,0,1,.056-.2,21.077,21.077,0,0,0,2.892-5.154.266.266,0,0,1,.193-.166,3.811,3.811,0,0,0,1.812-.8,6.25,6.25,0,0,0,1.736-2.526.252.252,0,0,1,.14-.141.255.255,0,0,1,.242.03.249.249,0,0,1,.1.218c-.263,3.762-4.735,9.288-5.577,9.973A.251.251,0,0,1,826.773,353.855Zm-.826-1.383a5.046,5.046,0,0,1,.866.757,24.548,24.548,0,0,0,4.852-7.771,6.17,6.17,0,0,1-1.054,1.168,4.228,4.228,0,0,1-1.91.881A21.434,21.434,0,0,1,825.948,352.472Z" transform="translate(-825.332 -343.561)" fill="#141414"/>
      </g>
      <g id="Group_333" data-name="Group 333">
        <path id="Path_874" data-name="Path 874" d="M818.018,331.607a.25.25,0,0,1-.122-.467,26.39,26.39,0,0,0,7.625-7.445c2.023-2.893,2.657-5.886,1.739-8.213a5.467,5.467,0,0,0-4.128-3.348,6.356,6.356,0,0,0-5.451,1.4,7.49,7.49,0,0,0-2.745,5.74,3.79,3.79,0,0,0,2.355,3.505,4.815,4.815,0,0,0,4.879-.426,7.458,7.458,0,0,0,2.279-4.928.249.249,0,0,1,.249-.242h.007a.25.25,0,0,1,.242.257,7.849,7.849,0,0,1-2.454,5.293,5.329,5.329,0,0,1-5.407.5,4.3,4.3,0,0,1-2.65-3.951,8,8,0,0,1,2.927-6.134,6.851,6.851,0,0,1,5.872-1.506,6.026,6.026,0,0,1,4.488,3.654c.981,2.485.327,5.65-1.793,8.683a26.9,26.9,0,0,1-7.79,7.595A.253.253,0,0,1,818.018,331.607Z" transform="translate(-814.436 -311.493)" fill="#141414"/>
      </g>
    </g>
    <g id="Group_335" data-name="Group 335" transform="translate(751.064 321.497)">
      <path id="Path_875" data-name="Path 875" d="M777.089,408.07a2.044,2.044,0,0,0,2.1-1.068.509.509,0,0,0-.374-.743l-2.868-.42a.509.509,0,0,0-.571.6A2.044,2.044,0,0,0,777.089,408.07Z" transform="translate(-775.37 -405.833)" fill="#141414"/>
      <ellipse id="Ellipse_41" data-name="Ellipse 41" cx="0.206" cy="0.959" rx="0.206" ry="0.959" transform="translate(0.959 0.804) rotate(-81.663)" fill="#fff"/>
    </g>
  </g>
</svg>
