<svg xmlns="http://www.w3.org/2000/svg" xmlns:xlink="http://www.w3.org/1999/xlink" width="256" height="256" viewBox="0 0 256 256"><defs><linearGradient id="a" x1="0.967" y1="0.973" x2="0" gradientUnits="objectBoundingBox"><stop offset="0" stop-color="#2abef7"/><stop offset="1" stop-color="#2c6def"/></linearGradient><linearGradient id="b" x1="0.96" y1="0.026" x2="0.026" y2="0.964" gradientUnits="objectBoundingBox"><stop offset="0" stop-color="#b6509e"/><stop offset="1" stop-color="#2ebac6"/></linearGradient><clipPath id="d"><rect width="256" height="256"/></clipPath></defs><g id="c" clip-path="url(#d)"><g transform="translate(24006 15085)"><path d="M30.72,0H225.28A30.72,30.72,0,0,1,256,30.72V225.28A30.72,30.72,0,0,1,225.28,256H30.72A30.72,30.72,0,0,1,0,225.28V30.72A30.72,30.72,0,0,1,30.72,0Z" transform="translate(-24006 -15085)" fill="#fff"/><path d="M225.281,256H30.72A30.694,30.694,0,0,1,0,225.281V30.72A30.695,30.695,0,0,1,30.72,0h194.56A30.695,30.695,0,0,1,256,30.72v194.56A30.694,30.694,0,0,1,225.281,256ZM37.12,10.24A26.858,26.858,0,0,0,10.24,37.12V218.88a26.857,26.857,0,0,0,26.88,26.88H218.88a26.857,26.857,0,0,0,26.88-26.88V37.12a26.857,26.857,0,0,0-26.88-26.88Z" transform="translate(-24006 -15085)" fill="url(#a)"/><path d="M204.8,230.4H25.6A25.578,25.578,0,0,1,0,204.8V25.6A25.578,25.578,0,0,1,25.6,0H204.8a25.578,25.578,0,0,1,25.6,25.6V204.8a25.578,25.578,0,0,1-25.6,25.6ZM28.159,8.96a19.2,19.2,0,0,0-19.2,19.2V202.241a19.2,19.2,0,0,0,19.2,19.2H202.241a19.2,19.2,0,0,0,19.2-19.2V28.159a19.2,19.2,0,0,0-19.2-19.2Z" transform="translate(-23993.199 -15072.2)" fill="url(#b)"/></g><g transform="translate(41 40.004)"><circle cx="87.5" cy="87.5" r="87.5" transform="translate(0 -0.001)" fill="#fff"/><path d="M87.5,175a88,88,0,0,1-17.635-1.779,86.981,86.981,0,0,1-31.288-13.165,87.748,87.748,0,0,1-31.7-38.5,87.047,87.047,0,0,1-5.1-16.425,88.36,88.36,0,0,1,0-35.27A87.038,87.038,0,0,1,14.943,38.579a87.745,87.745,0,0,1,38.5-31.7,86.912,86.912,0,0,1,16.425-5.1,88.3,88.3,0,0,1,35.269,0,87.037,87.037,0,0,1,31.287,13.166,87.749,87.749,0,0,1,31.7,38.5,87.062,87.062,0,0,1,5.1,16.424,88.355,88.355,0,0,1,0,35.27,87.02,87.02,0,0,1-13.165,31.287,87.766,87.766,0,0,1-38.5,31.7,86.99,86.99,0,0,1-16.424,5.1A87.992,87.992,0,0,1,87.5,175Zm0-172.949A86.059,86.059,0,0,0,70.279,3.789,84.97,84.97,0,0,0,39.723,16.646a85.687,85.687,0,0,0-30.96,37.6A85.026,85.026,0,0,0,3.785,70.281a86.283,86.283,0,0,0,0,34.443,84.992,84.992,0,0,0,12.858,30.553,85.7,85.7,0,0,0,37.6,30.958,85,85,0,0,0,16.04,4.979,86.326,86.326,0,0,0,34.442,0,84.983,84.983,0,0,0,30.554-12.857,85.7,85.7,0,0,0,30.959-37.6,84.988,84.988,0,0,0,4.979-16.038,86.287,86.287,0,0,0,0-34.443,85,85,0,0,0-12.858-30.555,85.709,85.709,0,0,0-37.6-30.959,85.1,85.1,0,0,0-16.039-4.979A86.047,86.047,0,0,0,87.5,2.053Z" transform="translate(0.001 -0.002)" fill="#ff007a"/><g transform="translate(38.579 33.601)"><path d="M95.82,60.069c-1.378-.214-1.436-.239-.788-.338a21.4,21.4,0,0,1,6.2.55c4.72,1.122,9.015,4,13.6,9.1l1.218,1.356,1.743-.28A36.765,36.765,0,0,1,138.848,73.1a27.248,27.248,0,0,1,4.766,2.78,7.4,7.4,0,0,1,.439,1.851c.464,3.075.232,5.433-.708,7.193a1.885,1.885,0,0,0-.2,2.082,2.013,2.013,0,0,0,1.8,1.138c1.552,0,3.223-2.512,4-6l.307-1.387.609.69c3.341,3.786,5.966,8.948,6.417,12.623l.117.959-.561-.871a10.758,10.758,0,0,0-3.182-3.342c-2.242-1.483-4.612-1.988-10.89-2.319-5.67-.3-8.878-.783-12.061-1.82-5.413-1.765-8.142-4.116-14.573-12.553a61.458,61.458,0,0,0-6.378-7.491A22.8,22.8,0,0,0,95.82,60.069Z" transform="translate(-66.612 -53.568)" fill="#ff007a"/><path d="M166.3,69.472a15.257,15.257,0,0,1,1.168-5.68,6.133,6.133,0,0,1,.564-1.089,3.714,3.714,0,0,1-.262.982,12.9,12.9,0,0,0-.237,5.812c.435,2.964.683,3.392,3.815,6.594,1.469,1.5,3.178,3.4,3.8,4.209l1.127,1.479-1.127-1.057a47.978,47.978,0,0,0-5.247-4.173c-.469-.242-.539-.237-.828.051-.267.265-.323.664-.36,2.55a14.249,14.249,0,0,1-1.425,6.712c-.522,1.02-.605.8-.132-.349.353-.86.389-1.238.387-4.083-.006-5.717-.685-7.092-4.665-9.446-1.009-.6-2.67-1.457-3.692-1.912a13.956,13.956,0,0,1-1.8-.881,38.454,38.454,0,0,1,5.557,1.622c2.324.894,2.708,1.01,2.99.9C166.113,71.642,166.205,71.091,166.3,69.472Z" transform="translate(-88.016 -54.606)" fill="#ff007a"/><path d="M98.32,79.777a23.29,23.29,0,0,1-4.153-14.17l.116-1.366.637.116a15.979,15.979,0,0,1,4.223,1.572c2.649,1.609,3.8,3.727,4.963,9.167.342,1.593.791,3.4,1,4.007a27.076,27.076,0,0,0,2.608,4.768c.735,1.073.247,1.582-1.378,1.435C103.85,85.082,100.489,82.762,98.32,79.777Z" transform="translate(-66.436 -55.129)" fill="#ff007a"/><path d="M156.614,121.173c-13.073-5.263-17.677-9.832-17.677-17.541a12.474,12.474,0,0,1,.086-2.062,9.916,9.916,0,0,1,1.124.832c2.651,2.126,5.619,3.034,13.837,4.233a57.177,57.177,0,0,1,10.067,2.108c7.979,2.646,12.915,8.016,14.093,15.33a25.293,25.293,0,0,1-.413,8.211c-.438,1.659-1.774,4.65-2.128,4.764-.1.032-.2-.345-.22-.857a10.6,10.6,0,0,0-3.853-7.423C168.88,126.492,165.319,124.678,156.614,121.173Z" transform="translate(-81.726 -67.864)" fill="#ff007a"/><path d="M137.4,132.7a23.294,23.294,0,0,0-.631-2.766l-.334-.994.62.7a11.146,11.146,0,0,1,2.109,3.834,8.328,8.328,0,0,1,.484,3.658,8.182,8.182,0,0,1-.463,3.543,11.193,11.193,0,0,1-2.759,4.389c-2.388,2.431-5.458,3.776-9.888,4.334-.77.1-3.015.26-4.988.363a38.865,38.865,0,0,0-11.187,1.826,2.362,2.362,0,0,1-.839.2,15.446,15.446,0,0,1,3.537-2.108c2.332-1.123,4.654-1.737,9.855-2.6,2.57-.428,5.223-.947,5.9-1.154C135.177,143.961,138.448,138.927,137.4,132.7Z" transform="translate(-71.691 -77.198)" fill="#ff007a"/><path d="M160.058,144.916a15.148,15.148,0,0,1-1.184-10.7c.1-.359.266-.654.364-.654a3.526,3.526,0,0,1,.911.493c.8.538,2.406,1.446,6.682,3.778,5.336,2.91,8.379,5.162,10.448,7.736a16.825,16.825,0,0,1,3.473,7.952,27.087,27.087,0,0,1-.328,7.827,19.431,19.431,0,0,1-9.526,12.634,12.465,12.465,0,0,1-1.39.69,5.14,5.14,0,0,1,.564-1.435,12.907,12.907,0,0,0,.573-10.22c-.741-2.217-2.251-4.923-5.3-9.5C161.8,148.206,160.931,146.791,160.058,144.916Z" transform="translate(-88.355 -78.777)" fill="#ff007a"/><path d="M85.659,177.171a35.394,35.394,0,0,1,16.386-7.9,25.572,25.572,0,0,1,8.511.329,14.592,14.592,0,0,1,8.3,5.318c1.6,2.348,2.285,4.393,3,8.945.282,1.8.588,3.6.681,4.007a8.868,8.868,0,0,0,2.874,5.192c2.054,1.5,5.592,1.6,9.073.24a4.5,4.5,0,0,1,1.139-.354,10.365,10.365,0,0,1-2.862,1.916,9.731,9.731,0,0,1-4.744,1.152c-3.188,0-5.834-1.621-8.042-4.928a39.27,39.27,0,0,1-2.17-4.331c-2.331-5.318-3.483-6.937-6.189-8.71a7.982,7.982,0,0,0-7.68-.7,4.975,4.975,0,0,0-1.689,7.74A6.664,6.664,0,0,0,106,187.051a4.005,4.005,0,0,0,4.533-4.013,3.127,3.127,0,0,0-2.161-3.209c-2.112-.953-4.382.161-4.372,2.145a1.779,1.779,0,0,0,1.222,1.761c.544.246.557.266.113.174-1.938-.4-2.392-2.738-.833-4.289,1.871-1.862,5.739-1.04,7.068,1.5a6.56,6.56,0,0,1,.136,4.478,6.18,6.18,0,0,1-7.485,3.562c-2.193-.56-3.086-1.166-5.73-3.89-4.594-4.733-6.378-5.65-13-6.684l-1.269-.2Z" transform="translate(-63.058 -90.887)" fill="#ff007a"/><path d="M48.652,41.432C64,60.054,71.571,66.486,72.745,68.109c.97,1.34.6,2.545-1.056,3.49a10.073,10.073,0,0,1-3.774,1.057A4.836,4.836,0,0,1,64.745,71.3c-.624-.591-3.141-4.35-8.951-13.365-4.446-6.9-8.166-12.621-8.268-12.717C47.292,45,47.3,45,55.341,59.4,60.393,68.439,62.1,71.634,62.1,72.062c0,.869-.237,1.326-1.31,2.522C59,76.578,58.2,78.819,57.625,83.457c-.647,5.2-2.465,8.87-7.5,15.155-2.95,3.679-3.433,4.354-4.177,5.836a10.768,10.768,0,0,0-1.3,5.272,16.409,16.409,0,0,0,.866,6.487,23.229,23.229,0,0,0,3.142,6.221c1.536,2.379,2.42,4.146,2.42,4.837,0,.55.105.551,2.485.013,5.695-1.285,10.319-3.547,12.919-6.319a5.972,5.972,0,0,0,2-5.014,4.893,4.893,0,0,0-.462-2.744c-.677-1.44-1.908-2.637-4.623-4.493-3.557-2.432-5.077-4.389-5.5-7.081-.344-2.209.055-3.768,2.023-7.893A23.885,23.885,0,0,0,62.8,83.343c.221-2.78.526-3.877,1.325-4.756.833-.918,1.583-1.229,3.645-1.51,3.361-.459,5.5-1.329,7.261-2.95a6.3,6.3,0,0,0,2.263-4.8l.074-1.546-.853-.994C73.426,63.183,46.584,38.6,46.394,38.6,46.353,38.6,47.369,39.875,48.652,41.432Zm4.154,71.108a2.734,2.734,0,0,0-.841-3.6c-1.1-.734-2.818-.389-2.818.568,0,.292.161.5.525.691.612.315.657.669.175,1.394s-.449,1.378.111,1.816A1.919,1.919,0,0,0,52.806,112.541Z" transform="translate(-44.616 -38.601)" fill="#ff007a" fill-rule="evenodd"/><path d="M103.1,109.963a5.925,5.925,0,0,0-3.587,3.91,5.567,5.567,0,0,0,.309,3.526c.7.936,1.378,1.183,3.214,1.17,3.593-.025,6.718-1.566,7.081-3.493.3-1.579-1.075-3.768-2.964-4.729A7.03,7.03,0,0,0,103.1,109.963Zm4.2,3.284a1.457,1.457,0,0,0-.631-2.214c-1.8-1.1-4.509-.189-4.509,1.506,0,.844,1.415,1.765,2.713,1.765A3.5,3.5,0,0,0,107.3,113.247Z" transform="translate(-68.227 -70.677)" fill="#ff007a" fill-rule="evenodd"/></g></g></g></svg>