<svg xmlns="http://www.w3.org/2000/svg" xmlns:xlink="http://www.w3.org/1999/xlink" width="256" height="256" viewBox="0 0 256 256"><defs><linearGradient id="a" x1="0.967" y1="0.973" x2="0" gradientUnits="objectBoundingBox"><stop offset="0" stop-color="#2abef7"/><stop offset="1" stop-color="#2c6def"/></linearGradient><linearGradient id="b" x1="0.96" y1="0.026" x2="0.026" y2="0.964" gradientUnits="objectBoundingBox"><stop offset="0" stop-color="#b6509e"/><stop offset="1" stop-color="#2ebac6"/></linearGradient><clipPath id="d"><rect width="256" height="256"/></clipPath></defs><g id="c" clip-path="url(#d)"><g transform="translate(24006 15085)"><path d="M30.72,0H225.28A30.72,30.72,0,0,1,256,30.72V225.28A30.72,30.72,0,0,1,225.28,256H30.72A30.72,30.72,0,0,1,0,225.28V30.72A30.72,30.72,0,0,1,30.72,0Z" transform="translate(-24006 -15085)" fill="#fff"/><path d="M225.281,256H30.72A30.694,30.694,0,0,1,0,225.281V30.72A30.695,30.695,0,0,1,30.72,0h194.56A30.695,30.695,0,0,1,256,30.72v194.56A30.694,30.694,0,0,1,225.281,256ZM37.12,10.24A26.858,26.858,0,0,0,10.24,37.12V218.88a26.857,26.857,0,0,0,26.88,26.88H218.88a26.857,26.857,0,0,0,26.88-26.88V37.12a26.857,26.857,0,0,0-26.88-26.88Z" transform="translate(-24006 -15085)" fill="url(#a)"/><path d="M204.8,230.4H25.6A25.578,25.578,0,0,1,0,204.8V25.6A25.578,25.578,0,0,1,25.6,0H204.8a25.578,25.578,0,0,1,25.6,25.6V204.8a25.578,25.578,0,0,1-25.6,25.6ZM28.159,8.96a19.2,19.2,0,0,0-19.2,19.2V202.241a19.2,19.2,0,0,0,19.2,19.2H202.241a19.2,19.2,0,0,0,19.2-19.2V28.159a19.2,19.2,0,0,0-19.2-19.2Z" transform="translate(-23993.199 -15072.2)" fill="url(#b)"/><g transform="translate(-23965 -15044)"><path d="M87.5,175A87.5,87.5,0,1,0,0,87.5,87.29,87.29,0,0,0,87.5,175Z" fill="#2775ca"/><path d="M765.524,565.2c0-12.76-7.656-17.135-22.969-18.958-10.937-1.459-13.125-4.375-13.125-9.48s3.646-8.385,10.938-8.385c6.562,0,10.208,2.188,12.031,7.656a2.742,2.742,0,0,0,2.552,1.823h5.833a2.492,2.492,0,0,0,2.552-2.551v-.365A18.214,18.214,0,0,0,746.93,520v-8.75c0-1.459-1.094-2.552-2.916-2.917h-5.469c-1.458,0-2.552,1.094-2.917,2.917v8.385c-10.937,1.459-17.864,8.75-17.864,17.865,0,12.031,7.291,16.77,22.6,18.594,10.208,1.823,13.49,4.01,13.49,9.844s-5.1,9.844-12.031,9.844c-9.48,0-12.761-4.011-13.855-9.48a2.663,2.663,0,0,0-2.551-2.187h-6.2a2.492,2.492,0,0,0-2.551,2.552v.365c1.458,9.114,7.292,15.676,19.323,17.5v8.75c0,1.458,1.094,2.552,2.916,2.916h5.469c1.459,0,2.552-1.094,2.917-2.916v-8.75c10.938-1.823,18.229-9.48,18.229-19.323Z" transform="translate(-653.962 -463.851)" fill="#fff"/><path d="M295.175,405.784a54.557,54.557,0,0,1,0-102.448,3.66,3.66,0,0,0,2.188-3.646v-5.1a2.771,2.771,0,0,0-2.188-2.916,2.2,2.2,0,0,0-1.459.364,65.607,65.607,0,0,0,0,125.052A2.217,2.217,0,0,0,297,415.628c.365-.364.365-.729.365-1.458v-5.1A4.856,4.856,0,0,0,295.175,405.784Zm38.646-113.75a2.217,2.217,0,0,0-3.281,1.459c-.365.365-.365.729-.365,1.459v5.1a4.836,4.836,0,0,0,2.188,3.646,54.557,54.557,0,0,1,0,102.448,3.659,3.659,0,0,0-2.187,3.646v5.1a2.771,2.771,0,0,0,2.188,2.916,2.2,2.2,0,0,0,1.459-.364,65.889,65.889,0,0,0,0-125.417Z" transform="translate(-226.269 -266.149)" fill="#fff"/></g></g></g></svg>