<?xml version="1.0" encoding="UTF-8"?><svg id="Layer_2" xmlns="http://www.w3.org/2000/svg" xmlns:xlink="http://www.w3.org/1999/xlink" viewBox="0 0 742.3 744.4"><defs><style>.cls-1{fill:url(#linear-gradient);}.cls-2{fill:#fff;}.cls-3{fill:url(#New_Gradient_Swatch_1);}.cls-4{fill:url(#linear-gradient-2);}</style><linearGradient id="linear-gradient" x1="-165.62" y1="-997.87" x2="-792.78" y2="-635.79" gradientTransform="translate(851 1190.76)" gradientUnits="userSpaceOnUse"><stop offset="0" stop-color="#fff"/><stop offset="1" stop-color="#989898"/></linearGradient><linearGradient id="linear-gradient-2" x1="120.08" y1="6109.87" x2="-507.08" y2="5747.79" gradientTransform="translate(564 6299.32) scale(1 -1)" xlink:href="#linear-gradient"/><linearGradient id="New_Gradient_Swatch_1" x1="117.54" y1="372.17" x2="621.02" y2="372.17" gradientTransform="matrix(1, 0, 0, 1, 0, 0)" gradientUnits="userSpaceOnUse"><stop offset="0" stop-color="#8247e4"/><stop offset=".99" stop-color="#702d9c"/></linearGradient></defs><g id="Layer_1-2"><g><g id="b"><g id="c"><g><g id="d"><g id="e"><g id="f"><g id="g"><g id="h"><g id="i"><path class="cls-1" d="M371.8,735.9c-200-.1-362-162.4-361.9-362.3,.1-145.4,87.1-276.6,221-333.2,184.5-77.2,396.6,9.7,473.8,194.2,76.9,183.6-8.9,394.9-192,473-44.5,18.7-92.5,28.4-140.9,28.3h0Z"/><path class="cls-2" d="M371.8,20.4c195.3,.1,353.5,158.5,353.4,353.8-.1,141.9-85.1,270.1-215.8,325.4-180.2,75.3-387.3-9.8-462.6-190C-28.1,330.4,55.6,124.4,234.2,48.1c43.5-18.4,90.3-27.8,137.6-27.7m0-17c-204.6,0-370.5,165.9-370.5,370.5s165.9,370.5,370.5,370.5,370.5-165.9,370.5-370.5S576.4,3.4,371.8,3.4Z"/></g></g></g></g></g></g><g id="q"><g id="r"><g id="s"><g id="t"><g id="u"><g id="v"><g id="w"><g id="x"><path class="cls-4" d="M370.5,732.5c-200-.1-362-162.4-361.9-362.3,.1-145.4,87.1-276.6,221-333.2,184.5-77.2,396.6,9.7,473.8,194.2,76.9,183.6-8.9,394.9-192,472.9-44.5,18.8-92.5,28.5-140.9,28.4h0Z"/><path class="cls-2" d="M370.5,17c195.3,.1,353.5,158.6,353.4,353.8-.1,141.9-85.1,270.1-215.8,325.4-180.2,75.3-387.3-9.8-462.6-190C-29.4,327.1,54.3,121,232.9,44.7c43.5-18.4,90.3-27.8,137.6-27.7m0-17C165.9,0,0,165.9,0,370.5s165.9,370.5,370.5,370.5,370.5-165.9,370.5-370.5S575.1,0,370.5,0Z"/></g></g></g></g></g></g></g></g></g></g></g><g id="Layer_2-2"><g id="Layer_1-2"><path class="cls-3" d="M268.56,152.05c8.72,5.08,17.46,10.15,26.22,15.22,8.58,4.99,17.18,9.95,25.74,14.99,9.2,5.41,18.35,10.92,27.55,16.31,9.2,5.39,18.58,10.84,27.88,16.26,7.42,4.33,13.25,10.1,16.05,18.39,.93,2.8,1.72,5.8,1.75,8.72,.17,14.87,.05,29.75,.13,44.62,0,1.71-.61,2.58-2,3.37-9.48,5.41-18.94,10.86-28.38,16.36-6.33,3.67-12.62,7.41-18.95,11.1-.39,.17-.79,.29-1.21,.38v-29.82c0-4.51-.05-9.03,0-13.55,.12-9.35-3.34-17.29-10.04-23.58-3.12-2.93-7.11-4.96-10.8-7.25-8.41-5.22-16.87-10.38-25.37-15.49-8.48-5.14-16.79-10.59-25.54-15.22-11.25-5.95-22.64-5.83-33.8,.93-9.14,5.52-18.47,10.73-27.7,16.11-7.97,4.65-15.94,9.3-23.83,14.05-2.93,1.76-6.04,3.46-8.47,5.8-4.67,4.52-8.21,9.95-9.19,16.53-.62,4.27-.93,8.58-.93,12.89-.1,19.24-.1,38.47,0,57.71,.04,5.43,.96,10.75,3.46,15.75,3.07,6.12,7.71,10.56,13.53,14.02,11.65,6.96,23.21,14.08,34.81,21.13,6.72,4.08,13.21,8.63,20.23,12.12,11.94,5.94,23.73,5.53,35.25-1.97,9.02-5.88,18.48-11.1,27.73-16.64,6.29-3.74,12.55-7.59,18.85-11.35,7.99-4.78,15.94-9.63,24.03-14.23,12.41-7.06,24.95-13.89,37.39-20.91,11.74-6.64,23.45-13.35,35.11-20.12,11.53-6.73,22.95-13.65,34.43-20.46,4.73-2.8,9.44-5.61,14.27-8.24,4.47-2.43,9.3-3.58,14.42-4.08,7.94-.76,14.79,1.93,21.39,5.82,7.44,4.37,14.91,8.67,22.35,13.02,10.28,6.01,20.52,12.06,30.82,18.04,10.22,5.93,20.52,11.72,30.7,17.72,7.82,4.6,15.83,8.99,23.15,14.3,6.94,5.03,11.26,12.4,11.3,21.14,.2,44.07,.2,88.15,0,132.23,0,5.86-2.84,10.94-6.23,15.68-4,5.58-9.91,8.54-15.58,11.86-11.32,6.62-22.65,13.23-33.99,19.84-11.36,6.58-22.77,13.09-34.12,19.67-9.81,5.7-19.57,11.53-29.44,17.19-2.61,1.5-5.45,2.6-8.19,3.88h-21.5c-4.95-2.8-9.93-5.56-14.86-8.41-7.34-4.21-14.64-8.51-21.96-12.75-6.41-3.71-12.83-7.38-19.24-11.09-7.96-4.63-15.93-9.27-23.9-13.91-6.54-3.79-13.12-7.48-19.6-11.37-5.68-3.42-11.64-6.54-16.74-10.71-5.61-4.57-9.07-10.92-10.23-18.23-.33-2.13-.51-4.28-.51-6.44-.04-13.39,0-26.79-.07-40.19,0-1.87,.51-2.9,2.15-3.83,10.48-5.98,20.88-12.1,31.31-18.14,5.52-3.19,11.1-6.31,16.93-9.61,.05,1.09,.12,1.9,.12,2.72,0,13.39-.29,26.8,.06,40.19,.32,12.37,6.28,21.66,17.08,27.82,7.29,4.16,14.56,8.34,21.81,12.56,7.19,4.18,14.36,8.41,21.54,12.59,3.16,1.84,6.36,3.64,9.54,5.44,12.33,6.96,24.5,7.01,36.69-.52,10.85-6.67,21.85-13.09,32.77-19.63,7.26-4.36,14.69-8.47,21.68-13.23,7.43-5.06,11.68-12.38,12.68-21.41,.3-2.76,.46-5.53,.47-8.31,.04-20.64,.25-41.28-.07-61.92-.19-12.35-6.08-21.7-16.9-27.86-7.43-4.23-14.79-8.58-22.18-12.87-8.05-4.67-16.08-9.37-24.18-13.94-4.51-2.53-8.96-5.34-13.79-7.07-9.59-3.45-18.92-2.61-27.87,2.8-10.98,6.62-22.23,12.8-33.29,19.24-10.88,6.33-21.71,12.77-32.6,19.1-11.36,6.6-22.78,13.09-34.15,19.67-12.01,6.96-23.96,14.02-35.98,21-12.15,7.04-24.3,14.02-36.45,21.05-6.73,3.9-13.35,8.01-20.16,11.74-4.36,2.39-9.19,3.82-14.15,4.17-8.15,.6-15.27-1.96-22.1-6.3-7.38-4.69-15.21-8.75-22.8-13.15-7.26-4.21-14.45-8.51-21.71-12.73-7.98-4.64-16.02-9.18-23.99-13.83-11.73-6.84-23.53-13.55-35.11-20.66-8.08-4.94-12.59-12.54-14.45-21.74-.09-.78-.1-1.56-.04-2.34,0-42.76,.01-85.52,.03-128.27,0-9.29,4.21-16.82,11.68-22.02,6.3-4.38,13.19-7.94,19.83-11.85,6.71-3.93,13.45-7.83,20.17-11.75,8.18-4.77,16.35-9.56,24.49-14.35,11.3-6.66,22.56-13.4,33.9-19.99,5.91-3.44,11.97-6.62,17.96-9.92h22.9Z"/></g></g></g></g></svg>