<svg xmlns="http://www.w3.org/2000/svg" xmlns:xlink="http://www.w3.org/1999/xlink" width="256" height="256" viewBox="0 0 256 256"><defs><linearGradient id="a" x1="0.967" y1="0.973" x2="0" gradientUnits="objectBoundingBox"><stop offset="0" stop-color="#2abef7"/><stop offset="1" stop-color="#2c6def"/></linearGradient><linearGradient id="b" x1="0.96" y1="0.026" x2="0.026" y2="0.964" gradientUnits="objectBoundingBox"><stop offset="0" stop-color="#b6509e"/><stop offset="1" stop-color="#2ebac6"/></linearGradient><linearGradient id="c" x1="1" y1="0.527" x2="0" y2="0.53" gradientUnits="objectBoundingBox"><stop offset="0" stop-color="#075eb6"/><stop offset="1" stop-color="#0377fc"/></linearGradient><clipPath id="e"><rect width="256" height="256"/></clipPath></defs><g id="d" clip-path="url(#e)"><g transform="translate(24006 15085)"><path d="M30.72,0H225.28A30.72,30.72,0,0,1,256,30.72V225.28A30.72,30.72,0,0,1,225.28,256H30.72A30.72,30.72,0,0,1,0,225.28V30.72A30.72,30.72,0,0,1,30.72,0Z" transform="translate(-24006 -15085)" fill="#fff"/><path d="M225.281,256H30.72A30.694,30.694,0,0,1,0,225.281V30.72A30.695,30.695,0,0,1,30.72,0h194.56A30.695,30.695,0,0,1,256,30.72v194.56A30.694,30.694,0,0,1,225.281,256ZM37.12,10.24A26.858,26.858,0,0,0,10.24,37.12V218.88a26.857,26.857,0,0,0,26.88,26.88H218.88a26.857,26.857,0,0,0,26.88-26.88V37.12a26.857,26.857,0,0,0-26.88-26.88Z" transform="translate(-24006 -15085)" fill="url(#a)"/><path d="M204.8,230.4H25.6A25.578,25.578,0,0,1,0,204.8V25.6A25.578,25.578,0,0,1,25.6,0H204.8a25.578,25.578,0,0,1,25.6,25.6V204.8a25.578,25.578,0,0,1-25.6,25.6ZM28.159,8.96a19.2,19.2,0,0,0-19.2,19.2V202.241a19.2,19.2,0,0,0,19.2,19.2H202.241a19.2,19.2,0,0,0,19.2-19.2V28.159a19.2,19.2,0,0,0-19.2-19.2Z" transform="translate(-23993.199 -15072.2)" fill="url(#b)"/></g><g transform="translate(41 41)"><circle cx="87.5" cy="87.5" r="87.5" fill="url(#c)"/><g transform="translate(51.269 30.762)"><path d="M-339.682,3483.155a72.231,72.231,0,0,1,6.194,4.229,96.966,96.966,0,0,1,7.048,6.724c3.415,3.547,4.887,7.987,5.6,12.765,1.2,8.035-1.029,14.948-5.909,21.43-6.875,9.132-22.06,12.668-31.122,8.511-5.013-2.3-9.543-5.165-12.468-9.522-4.465-6.651-7.288-14.043-3.986-22.3.853-2.134,1.654-4.29,2.555-6.63-3.411.682-6.783,1.353-10.176,2.03-.583-2.339-1.163-4.361-1.537-6.423a1.757,1.757,0,0,1,.99-1.405c7.494-1.586,15.015-3.041,22.507-4.629,1.333-.284,1.708.109,1.854,1.3.525,4.267,1.059,8.534,1.651,12.792.441,3.176.913,6.352,1.5,9.5.245,1.323-.052,1.932-1.428,2.05-2.011.172-4.014.436-6.091.672-.632-4.2-1.214-8.062-1.889-12.544-2.8,5.04-4.682,9.511-2.765,14.768,1.53,4.193,3.661,8.041,7.362,10.546,5.961,4.039,12.431,5.157,19.318,2.245a19.078,19.078,0,0,0,9.218-7.724,19.317,19.317,0,0,0,2.356-15.559,18.112,18.112,0,0,0-8.543-11.554,4.008,4.008,0,0,1-2.289-4.12A68.947,68.947,0,0,0-339.682,3483.155Z" transform="translate(383.49 -3425.123)" fill="#fff"/><path d="M-312.22,3389.566l9.836-3.335c.7,2.022,1.479,3.9,1.955,5.851a2.194,2.194,0,0,1-1.107,1.8q-9.893,3.8-19.868,7.386c-2.815,1.019-2.8.783-3.552-2.1-1.465-5.64-3.19-11.211-4.8-16.813-.44-1.531-.85-3.075-1.334-4.829a54.364,54.364,0,0,1,6.577-1.891c.448-.08,1.428,1.372,1.722,2.264.636,1.931.946,3.968,1.473,5.937.259.975.7,1.894,1.2,3.193a17.577,17.577,0,0,0,1.678-11.851,18.942,18.942,0,0,0-10.332-14.167,21.042,21.042,0,0,0-9.707-2.2c-7.183.126-12.844,3.6-16.66,9.745a19.007,19.007,0,0,0,1.811,22.271,46.594,46.594,0,0,0,7.046,6.074,3.738,3.738,0,0,1,1.825,3.421c-.081,2.333-.021,4.669-.021,7.54-2.076-1.441-3.851-2.523-5.455-3.817-2.982-2.409-5.971-4.827-8.762-7.447-3.939-3.7-5.744-8.584-6.541-13.753a26.284,26.284,0,0,1,8.094-23.9c7.166-6.933,15.892-9.092,25.68-6.971a26.114,26.114,0,0,1,16.744,11.777,26.914,26.914,0,0,1,3.629,20.8C-311.417,3386.121-311.79,3387.669-312.22,3389.566Z" transform="translate(373.472 -3351.203)" fill="#fff"/><path d="M-302.217,3398.4V3470c-2.285,0-4.457.036-6.627-.014-1.574-.032-1.091-1.3-1.093-2.14q-.037-17.025-.01-34.053c0-10.983.046-21.969-.038-32.952-.015-1.906.455-2.671,2.445-2.475C-305.877,3398.535-304.184,3398.4-302.217,3398.4Z" transform="translate(342.334 -3377.607)" fill="#fff"/></g></g></g></svg>