<svg xmlns="http://www.w3.org/2000/svg" xmlns:xlink="http://www.w3.org/1999/xlink" width="256" height="256" viewBox="0 0 256 256"><defs><linearGradient id="a" x1="0.967" y1="0.973" x2="0" gradientUnits="objectBoundingBox"><stop offset="0" stop-color="#2abef7"/><stop offset="1" stop-color="#2c6def"/></linearGradient><linearGradient id="b" x1="0.96" y1="0.026" x2="0.026" y2="0.964" gradientUnits="objectBoundingBox"><stop offset="0" stop-color="#b6509e"/><stop offset="1" stop-color="#2ebac6"/></linearGradient><clipPath id="d"><rect width="256" height="256"/></clipPath></defs><g id="c" clip-path="url(#d)"><g transform="translate(24006 15085)"><path d="M30.72,0H225.28A30.72,30.72,0,0,1,256,30.72V225.28A30.72,30.72,0,0,1,225.28,256H30.72A30.72,30.72,0,0,1,0,225.28V30.72A30.72,30.72,0,0,1,30.72,0Z" transform="translate(-24006 -15085)" fill="#fff"/><path d="M225.281,256H30.72A30.694,30.694,0,0,1,0,225.281V30.72A30.695,30.695,0,0,1,30.72,0h194.56A30.695,30.695,0,0,1,256,30.72v194.56A30.694,30.694,0,0,1,225.281,256ZM37.12,10.24A26.858,26.858,0,0,0,10.24,37.12V218.88a26.857,26.857,0,0,0,26.88,26.88H218.88a26.857,26.857,0,0,0,26.88-26.88V37.12a26.857,26.857,0,0,0-26.88-26.88Z" transform="translate(-24006 -15085)" fill="url(#a)"/><path d="M204.8,230.4H25.6A25.578,25.578,0,0,1,0,204.8V25.6A25.578,25.578,0,0,1,25.6,0H204.8a25.578,25.578,0,0,1,25.6,25.6V204.8a25.578,25.578,0,0,1-25.6,25.6ZM28.159,8.96a19.2,19.2,0,0,0-19.2,19.2V202.241a19.2,19.2,0,0,0,19.2,19.2H202.241a19.2,19.2,0,0,0,19.2-19.2V28.159a19.2,19.2,0,0,0-19.2-19.2Z" transform="translate(-23993.199 -15072.2)" fill="url(#b)"/></g><g transform="translate(41 41)"><path d="M87.5,175h0A87.757,87.757,0,0,1,0,87.5H0A87.757,87.757,0,0,1,87.5,0h0A87.757,87.757,0,0,1,175,87.5h0A87.757,87.757,0,0,1,87.5,175Z" fill="#002868"/><path d="M196.6,205H108.4a8.425,8.425,0,0,1-8.4-8.4V108.4a8.425,8.425,0,0,1,8.4-8.4h88.2a8.425,8.425,0,0,1,8.4,8.4v88.2A8.425,8.425,0,0,1,196.6,205Z" transform="translate(-65 -65)" fill="#fff"/><g transform="translate(48.979 110.289)"><path d="M146.45,334.661a.525.525,0,0,1-.5-.529V320.024a.525.525,0,0,0-.5-.529h-4.98a.523.523,0,0,1-.529-.5v-2.727a.55.55,0,0,1,.529-.528H155.8a.547.547,0,0,1,.528.528v2.727a.525.525,0,0,1-.528.5h-4.952a.547.547,0,0,0-.529.529v14.108a.525.525,0,0,1-.5.529Z" transform="translate(-139.94 -315.52)" fill="#002868"/><path d="M207.691,316.268a.525.525,0,0,1,.5-.528h3.339a.547.547,0,0,1,.528.528V325.9c0,5.7-3.227,9.016-8.347,9.016-5.093,0-8.292-3.311-8.292-9.016v-9.629a.525.525,0,0,1,.5-.528h3.339a.547.547,0,0,1,.529.528v9.765c0,2.811,1.446,4.813,3.952,4.813s3.952-2,3.952-4.812v-9.765Z" transform="translate(-176.002 -315.52)" fill="#002868"/><path d="M264.016,321.508a.713.713,0,0,1-.753-.5,3.812,3.812,0,0,0-3.811-2.226c-1.753,0-3.227.613-3.227,1.781,0,1.281,1.365,1.81,4.368,2.17,4.564.529,7.178,1.922,7.178,5.537,0,4.063-3.563,6.206-8.124,6.206-3.951,0-7.346-1.922-7.875-5.953-.056-.388.14-.529.529-.529h3.062a.689.689,0,0,1,.724.473c.417,1.337,1.838,2.366,3.9,2.366,1.81,0,3.4-.669,3.4-2.086,0-1.7-1.669-2-5.009-2.422-3.839-.5-6.51-1.613-6.51-5.148s3.035-6.065,7.791-6.065c4.284,0,7.263,2.31,7.875,5.761.084.388-.028.641-.445.641h-3.066Z" transform="translate(-212.625 -315.11)" fill="#002868"/><path d="M307.38,334.661a.525.525,0,0,1-.5-.529V316.268a.525.525,0,0,1,.5-.528h7.567c5.621,0,9.989,3.867,9.989,9.517,0,5.565-4.312,9.4-9.989,9.4Zm7.567-3.759a5.713,5.713,0,0,0-.028-11.41h-3.143a.523.523,0,0,0-.5.529V330.4a.5.5,0,0,0,.5.5h3.171Z" transform="translate(-248.451 -315.52)" fill="#002868"/></g><path d="M204.8,167.7H105.4a1.4,1.4,0,0,1-1.4-1.4V111a7.021,7.021,0,0,1,7-7h88.2a7.021,7.021,0,0,1,7,7v55.3A1.4,1.4,0,0,1,204.8,167.7Z" transform="translate(-67.6 -67.6)" fill="#002868"/><path d="M245.88,178.16h-9.1a1.053,1.053,0,0,1-1.05-1.05v-38.5a1.053,1.053,0,0,1,1.05-1.05h9.1a1.053,1.053,0,0,1,1.05,1.05v38.5A1.053,1.053,0,0,1,245.88,178.16Z" transform="translate(-153.225 -89.414)" fill="#fff"/><path d="M230.35,148.76h-41.3a1.053,1.053,0,0,1-1.05-1.05v-9.1a1.053,1.053,0,0,1,1.05-1.05h41.3a1.053,1.053,0,0,1,1.05,1.05v9.1A1.053,1.053,0,0,1,230.35,148.76Z" transform="translate(-122.2 -89.414)" fill="#fff"/></g></g></svg>