<?xml version="1.0" standalone="no"?>
<!DOCTYPE svg PUBLIC "-//W3C//DTD SVG 20010904//EN"
 "http://www.w3.org/TR/2001/REC-SVG-20010904/DTD/svg10.dtd">
<svg version="1.0" xmlns="http://www.w3.org/2000/svg"
 width="700.000000pt" height="700.000000pt" viewBox="0 0 700.000000 700.000000"
 preserveAspectRatio="xMidYMid meet">

<g transform="translate(0.000000,700.000000) scale(0.100000,-0.100000)"
fill="#000000" stroke="none">
<path d="M1070 6284 c-179 -47 -314 -172 -372 -343 l-23 -66 -3 -2335 c-2
-1609 1 -2361 8 -2420 26 -211 183 -386 391 -435 56 -13 360 -15 2479 -15
2117 0 2423 2 2479 15 210 50 364 220 391 435 8 59 10 790 8 2425 l-3 2340
-23 59 c-62 163 -159 262 -320 325 l-67 26 -2445 2 c-2115 2 -2452 0 -2500
-13z m2180 -1384 c252 -438 279 -485 293 -505 16 -22 5 -39 287 453 85 149
159 270 165 268 5 -1 58 -86 116 -187 59 -101 233 -404 388 -674 155 -269 297
-515 315 -545 18 -30 104 -179 191 -330 87 -151 222 -385 300 -520 143 -246
175 -304 175 -315 0 -3 -194 -5 -431 -5 -399 0 -431 -1 -425 -17 7 -17 37 -70
241 -423 65 -113 133 -231 151 -262 l33 -58 -1490 0 c-819 0 -1489 4 -1489 8
0 8 77 143 318 560 l111 192 -435 0 c-239 0 -434 4 -434 8 0 7 169 303 565
987 54 94 146 253 205 355 128 224 365 633 432 750 27 47 102 176 166 287 64
112 119 200 122 195 4 -4 62 -104 130 -222z"/>
<path d="M3498 4268 c-30 -51 -126 -217 -213 -368 -219 -379 -370 -640 -588
-1018 -103 -178 -187 -327 -187 -333 0 -5 402 -9 1045 -9 663 0 1045 4 1045
10 0 5 -55 105 -123 222 -68 117 -192 332 -276 478 -84 146 -204 353 -266 460
-62 107 -170 294 -240 415 -69 121 -130 224 -135 228 -4 5 -32 -33 -62 -85z
m255 -691 c338 -157 373 -613 64 -826 -307 -211 -737 24 -737 402 0 204 147
394 350 453 28 8 83 12 145 10 90 -2 107 -6 178 -39z"/>
</g>
</svg>
