<svg xmlns="http://www.w3.org/2000/svg" width="12" height="10.559"><path data-name="Polygon Logo" d="M9.086 3.227a.8.8 0 0 0-.752 0L6.58 4.261l-1.191.658-1.723 1.034a.8.8 0 0 1-.752 0l-1.347-.815a.764.764 0 0 1-.376-.658V2.914a.773.773 0 0 1 .376-.658l1.347-.783a.8.8 0 0 1 .752 0l1.347.815a.764.764 0 0 1 .376.658v1.033L6.58 3.29V2.225a.773.773 0 0 0-.38-.658L3.7.094a.8.8 0 0 0-.752 0L.376 1.6A.689.689 0 0 0 0 2.225V5.17a.773.773 0 0 0 .376.658L2.914 7.3a.8.8 0 0 0 .752 0l1.723-1 1.191-.692 1.723-1a.8.8 0 0 1 .752 0l1.347.783a.764.764 0 0 1 .376.658v1.565a.773.773 0 0 1-.376.658l-1.316.783a.8.8 0 0 1-.752 0l-1.347-.783a.764.764 0 0 1-.376-.658v-1L5.42 7.3v1.034a.773.773 0 0 0 .376.658l2.538 1.473a.8.8 0 0 0 .752 0l2.538-1.473A.764.764 0 0 0 12 8.334V5.358a.773.773 0 0 0-.376-.658z" fill="#823ee9"/></svg>