<svg xmlns="http://www.w3.org/2000/svg" width="32" height="32"><path data-name="Path 5433" d="M16 32A16 16 0 1 0 0 16a16 16 0 0 0 16 16z" fill="#2775c9"/><path data-name="Path 5434" d="M15.75 27.5a11.75 11.75 0 1 1 8.309-3.442A11.749 11.749 0 0 1 15.75 27.5zm-.7-16.11a2.58 2.58 0 0 0-2.45 2.47c0 1.21.74 2 2.31 2.33l1.1.26c1.07.25 1.51.61 1.51 1.22s-.77 1.21-1.77 1.21a1.9 1.9 0 0 1-1.8-.91.68.68 0 0 0-.61-.39h-.59a.35.35 0 0 0-.28.41 2.73 2.73 0 0 0 2.61 2.08v.84a.705.705 0 0 0 1.41 0v-.85a2.62 2.62 0 0 0 2.59-2.58c0-1.27-.73-2-2.46-2.37l-1-.22c-1-.25-1.47-.58-1.47-1.14s.6-1.18 1.6-1.18a1.64 1.64 0 0 1 1.59.81.8.8 0 0 0 .72.46h.47a.42.42 0 0 0 .31-.5 2.65 2.65 0 0 0-2.38-2v-.69a.7.7 0 0 0-1.41 0zm-8.11 4.36a8.79 8.79 0 0 0 6 8.33h.14a.45.45 0 0 0 .45-.45v-.21a.94.94 0 0 0-.58-.87 7.36 7.36 0 0 1 0-13.65.93.93 0 0 0 .58-.86v-.23a.42.42 0 0 0-.56-.4 8.79 8.79 0 0 0-6.03 8.34zm17.62 0a8.79 8.79 0 0 0-6-8.32h-.15a.47.47 0 0 0-.47.47v.15a1 1 0 0 0 .61.9 7.36 7.36 0 0 1 0 13.64 1 1 0 0 0-.6.89v.17a.47.47 0 0 0 .62.44 8.79 8.79 0 0 0 5.99-8.34z" fill="#fff"/></svg>