<svg xmlns="http://www.w3.org/2000/svg" width="20" height="20"><g data-name="Group 16834" transform="translate(22689 -8712)"><rect data-name="Rectangle 18361" width="20" height="20" rx="10" transform="translate(-22689 8712)" style="fill:none;opacity:.1"/><path d="M4.4 2A1.4 1.4 0 0 0 3 3.4v9.1h1.4V3.4h7V2zm2.8 2.8a1.4 1.4 0 0 0-1.4 1.4v8.4A1.4 1.4 0 0 0 7.2 16h6.3a1.4 1.4 0 0 0 1.4-1.4V6.2a1.4 1.4 0 0 0-1.4-1.4zm0 1.4h6.3v8.4H7.2z" transform="translate(-22688 8713)" style="fill:#696c80"/></g></svg>