<svg xmlns="http://www.w3.org/2000/svg" xmlns:xlink="http://www.w3.org/1999/xlink" width="752" height="138" viewBox="0 0 752 138">
    <defs>
        <linearGradient id="u2wewao2wa" x1="1.156" y1="1.185" x2=".887" y2=".353" gradientUnits="objectBoundingBox">
            <stop offset="0" stop-color="#82b1ff"/>
            <stop offset="1" stop-color="#004ce6"/>
        </linearGradient>
        <linearGradient id="46bbbufn2d" x1="1.156" y1="-.185" x2=".887" y2=".647" xlink:href="#u2wewao2wa"/>
        <linearGradient id="rrjydew6be" x1=".5" x2=".5" y2="1" gradientUnits="objectBoundingBox">
            <stop offset="0" stop-color="#82b1ff"/>
            <stop offset=".34" stop-color="#2962ff"/>
            <stop offset=".626" stop-color="#0098ff"/>
            <stop offset="1" stop-color="#004ce6"/>
        </linearGradient>
        <linearGradient id="etjxul5xhf" x1=".5" x2=".5" y2="1" gradientUnits="objectBoundingBox">
            <stop offset="0" stop-color="#448aff"/>
            <stop offset=".34" stop-color="#00cff3"/>
            <stop offset=".626" stop-color="#0098ff"/>
            <stop offset="1" stop-color="#004ce6"/>
        </linearGradient>
        <clipPath id="p2nqpjnodb">
            <path data-name="Rectangle 18585" d="M20 0h712a20 20 0 0 1 20 20v118H0V20A20 20 0 0 1 20 0z" style="fill:#e1bee7"/>
        </clipPath>
        <clipPath id="mvwkh8lcic">
            <circle data-name="Ellipse 624" cx="50.361" cy="50.361" r="50.361" style="stroke:#707070;fill:#fff"/>
        </clipPath>
    </defs>
    <g data-name="Mask Group 276" style="clip-path:url(#p2nqpjnodb)">
        <g data-name="Group 16479">
            <g data-name="Group 16525">
                <g data-name="Group 16471" style="opacity:.4">
                    <path data-name="Path 11488" d="M20.673 62.293h-.166a4.907 4.907 0 0 0-5.1-4.671v-.106a4.9 4.9 0 0 0 5.1-4.676h.166a4.91 4.91 0 0 0 5.1 4.676v.106a4.9 4.9 0 0 0-5.1 4.671z" transform="translate(647.288 -3.652)" style="fill:#fff"/>
                    <path data-name="Path 11489" d="M18.8 58.932h-.107a3.162 3.162 0 0 0-3.285-3.01v-.069a3.16 3.16 0 0 0 3.285-3.013h.107a3.164 3.164 0 0 0 3.289 3.013v.069a3.161 3.161 0 0 0-3.289 3.01z" transform="translate(642.478 4.373)" style="fill:#fff"/>
                    <path data-name="Path 11491" d="M18.7 58.932h.107a3.162 3.162 0 0 1 3.285-3.01v-.069a3.16 3.16 0 0 1-3.285-3.013H18.7a3.164 3.164 0 0 1-3.289 3.013v.069a3.161 3.161 0 0 1 3.289 3.01z" transform="translate(524.174 4.373)" style="fill:#fff"/>
                </g>
                <g data-name="Mask Group 275" transform="translate(565.761 12.944)" style="isolation:isolate;mix-blend-mode:luminosity;clip-path:url(#mvwkh8lcic);opacity:.4">
                    <g data-name="Group 16475">
                        <g data-name="Group 16474" style="opacity:.9">
                            <g data-name="Group 16472">
                                <path data-name="Path 11492" d="M53.69 27.1c-.109-.131-.044-.284-.052-.427l-.021-.314c0-.028-.006-.056-.009-.085a35.449 35.449 0 0 0-.79-4.547 33.462 33.462 0 0 0-1.618-5.381 28.882 28.882 0 0 0-2.664-5.472 24.763 24.763 0 0 0-3.624-4.75c-.091-.094-.2-.174-.3-.26l-.059.063a21.839 21.839 0 0 1 2.9 4.524 2.92 2.92 0 0 0 .286.614.672.672 0 0 0 .036.042l.679 1.872a2.83 2.83 0 0 1 .327.872c.247.831.482 1.666.721 2.5l.02.068.071.6c.018.028.047.053.053.083a35.216 35.216 0 0 1 .618 4.223c.107.165.048.36.065.54a.42.42 0 0 0 .067.2c.02 1.254.184 2.5.133 3.76v.438q0 .521.006 1.041-.032 1.786-.211 3.563l.006.106v.029c-.052.475-.086.953-.159 1.424-.182 1.173-.382 2.342-.574 3.512l-.006.037-.144.6c-.081.369-.156.739-.243 1.106-.284 1.2-.651 2.373-1.012 3.55l-.015.049-.209.537A16.191 16.191 0 0 1 46.93 44.3c.1-.989.04-1.971.046-2.952v-.806c-.024-.265-.042-.53-.071-.8a13.132 13.132 0 0 0-.541-2.769.9.9 0 0 0-.085-.126c-.077-.1-.148-.206-.043-.334v-.01c-.154.008-.166-.129-.214-.22-.1-.2-.193-.4-.305-.6a2.85 2.85 0 0 0-2.25-1.623 7.465 7.465 0 0 0-5.685 1.848 1.1 1.1 0 0 1-.437.268 1.368 1.368 0 0 1-.509.606l-.077.054a10.187 10.187 0 0 0-1.418 2.1c-.4.725-.657 1.514-.995 2.267v.134c-.043.114-.093.227-.128.344a39.286 39.286 0 0 0-.686 2.681l-.27 1.613c-.009.114.038.239-.063.337l-.063.4a.117.117 0 0 1 0 .016c0 .106 0 .214-.007.321a2.1 2.1 0 0 1 0 .268c-.193 1.36-.173 2.733-.262 4.1 0 .523 0 1.047.007 1.569 0 .194-.064.4.056.579v2.615c.118.145.037.317.068.474v.135c.14.284.03.585.063.876a11.813 11.813 0 0 0 .094 1.7 23.413 23.413 0 0 0 .349 2.423l.02.107h-.051a2.183 2.183 0 0 0-.112-.075c-.294-.181-.627-.284-.93-.444-.843-.447-1.682-.9-2.522-1.354h-.007q-2.172-1.317-4.224-2.813l-.012-.009-.737-.605a38.8 38.8 0 0 1-4.268-3.784c-.259-.259-.482-.554-.767-.788l-.056-.073-.354-.462a11.946 11.946 0 0 1-1.2-1.379 26.562 26.562 0 0 1-2.09-2.909l-.339-.472-.034-.063c-.03-.057-.06-.114-.093-.17a15.324 15.324 0 0 1-1.083-1.984 15.178 15.178 0 0 1-1.2-2.555l-.265-.539-.016-.048q-.434-1.287-.864-2.569c-.147-.629-.359-1.243-.462-1.883a8.417 8.417 0 0 1-.206-.833v-.04a39.528 39.528 0 0 1-.538-4.3c0-.112 0-.223.007-.335l-.018-.342a30.338 30.338 0 0 1-.054-1.625c0-.958.113-1.912.071-2.87a.368.368 0 0 0 .063-.29.7.7 0 0 1 0-.118c.03-.223-.058-.458.067-.672a11.748 11.748 0 0 1 .124-1.632c.08-.657.142-1.317.214-1.976a.12.12 0 0 1 0-.015c.079-.067.052-.163.068-.247a5.757 5.757 0 0 1 .2-1.034 1.59 1.59 0 0 1 .009-.234c.257-1.365.59-2.71.936-4.054l-.007-.01h.009l.264-.673a19.972 19.972 0 0 1 .75-2.146 21.729 21.729 0 0 1 1.4-2.962l.068-.2.022-.036a31.441 31.441 0 0 1 1.77-2.743 16.1 16.1 0 0 1 1.433-1.8l.017-.009c.168-.089.256-.259.389-.387.073-.083.14-.173.22-.249a22.121 22.121 0 0 1 2.626-2.227A17.31 17.31 0 0 1 26.5.456C27.055.284 27.629.21 28.168 0a25.939 25.939 0 0 0-6.134 1.187 27.03 27.03 0 0 0-8.187 4.2c-.079.06-.151.13-.227.2a25.118 25.118 0 0 0-3.54 3.209 13.724 13.724 0 0 0-1.153 1.344 29.083 29.083 0 0 0-2.939 4.19 20.116 20.116 0 0 0-.993 1.821 36.142 36.142 0 0 0-2.359 5.575 56.46 56.46 0 0 0-1.212 3.721c-.073.257-.13.519-.194.779a29.51 29.51 0 0 0-.83 4.48 15.792 15.792 0 0 0-.241 2.056 44.91 44.91 0 0 0-.134 5.086 2.756 2.756 0 0 0 .038.3 25.4 25.4 0 0 0 .219 3.124c.155-.042.211-.173.292-.268a22.509 22.509 0 0 1 1.985-2.043 7.289 7.289 0 0 1 3.658-1.775 9.293 9.293 0 0 1 1.183-.213c.151-.117.324-.042.487-.056h.581A17.05 17.05 0 0 0 8 38.927a16.189 16.189 0 0 0-.4 2.488 15.746 15.746 0 0 0-.229 1.894 49.443 49.443 0 0 0-.228 4.421 28.7 28.7 0 0 0 .14 4.211.972.972 0 0 0 .046.159 20.368 20.368 0 0 0 .916 4.313 5.991 5.991 0 0 0 .362 1 9.951 9.951 0 0 0 .8 1.9 15.549 15.549 0 0 0 1.424 2.6 24 24 0 0 0 3.208 4.121c.153.162.319.311.48.466a25.835 25.835 0 0 0 3.69 3.127 22.561 22.561 0 0 0 2.207 1.394c.094.052.192.1.325.161-.208-.643-.4-1.243-.6-1.845-.292-.915-.485-1.855-.719-2.786a32.7 32.7 0 0 1-.431-3.373c-.026-.444-.065-.887-.1-1.331 0-.157-.007-.315-.011-.472-.1-.1-.056-.232-.057-.35-.007-.592-.009-1.182-.011-1.774v-1.728c.192.148.124.266.141.367a16.992 16.992 0 0 0 .529 2.295 13.863 13.863 0 0 0 .493 1.8 38.217 38.217 0 0 0 1.947 4.894c.058.12.128.233.192.349a22.608 22.608 0 0 0 1.443 2.625 16.429 16.429 0 0 0 1.3 1.9 23.584 23.584 0 0 0 3.586 4.018 14.435 14.435 0 0 0 1.657 1.346 24.858 24.858 0 0 0 4.232 2.667 13.368 13.368 0 0 0 2.093.943 26.284 26.284 0 0 0 3.936 1.407 22.14 22.14 0 0 0 2.777.621c.07.023.145.056.137-.071a14.886 14.886 0 0 1-4.7-5.583 14.353 14.353 0 0 1-1.1-3.608c-.091-.61-.107-1.225-.166-1.837.034-1.477.111-2.953.272-4.423.188-.963.339-1.932.59-2.882.216-.821.505-1.616.757-2.425.609-1.56 1.4-3.042 1.977-4.614.064-.173.156-.335.235-.5a14.833 14.833 0 0 0 1.27-4.862.833.833 0 0 1 .056-.185 10.854 10.854 0 0 0-.262-4.856c-.021-.063-.05-.123-.076-.184a14.5 14.5 0 0 0-1.464-3.19c.664.189 1.879 1.51 3.015 3.265a8.7 8.7 0 0 1 .813 4.36c0 .08-.006.161-.009.241-.014.188.065.385-.053.563a14.728 14.728 0 0 1-.748 3.33c-.186.486-.406.956-.621 1.445.284-.228.575-.448.851-.685a25.558 25.558 0 0 0 3.749-4.02c.185-.245.349-.5.522-.758A20.986 20.986 0 0 0 50 48.4a12.977 12.977 0 0 0 .8-1.614 26.92 26.92 0 0 0 1.673-4.3 6.535 6.535 0 0 0 .282-1.066 25.126 25.126 0 0 0 .874-4.495c.01-.141-.056-.292.056-.42.082-.173-.056-.37.061-.539V31a36.65 36.65 0 0 0-.056-3.9z" transform="rotate(-166 50.27 44.858)" style="fill:url(#u2wewao2wa)"/>
                            </g>
                            <g data-name="Group 16473">
                                <path data-name="Path 11493" d="M53.69 55.681c-.109.131-.044.284-.052.427l-.022.314c0 .028-.006.056-.009.085a35.449 35.449 0 0 1-.79 4.547 33.462 33.462 0 0 1-1.617 5.379 28.882 28.882 0 0 1-2.664 5.467 24.764 24.764 0 0 1-3.624 4.75c-.091.094-.2.174-.3.26l-.059-.063a21.838 21.838 0 0 0 2.9-4.524 2.92 2.92 0 0 1 .286-.614.672.672 0 0 1 .036-.042l.685-1.867a2.83 2.83 0 0 0 .327-.872c.247-.831.482-1.666.721-2.5l.02-.068.071-.6c.018-.028.047-.053.053-.083a35.221 35.221 0 0 0 .618-4.223c.107-.165.048-.36.065-.54a.42.42 0 0 1 .067-.2c.02-1.254.184-2.5.133-3.76v-.438q0-.521.006-1.041-.032-1.786-.211-3.563l.006-.106v-.029c-.052-.475-.086-.953-.159-1.424-.182-1.173-.382-2.342-.574-3.512l-.006-.037-.144-.6c-.081-.369-.156-.739-.243-1.106-.284-1.2-.651-2.373-1.012-3.55l-.015-.049-.209-.537a16.193 16.193 0 0 0-1.049-2.482c.1.989.04 1.971.046 2.952v.805c-.024.265-.042.53-.071.8a13.133 13.133 0 0 1-.541 2.769.9.9 0 0 1-.085.126c-.077.1-.148.206-.043.334v.01c-.154-.008-.166.129-.214.22-.1.2-.193.4-.305.6a2.851 2.851 0 0 1-2.25 1.623 7.465 7.465 0 0 1-5.685-1.848 1.1 1.1 0 0 0-.437-.268 1.368 1.368 0 0 0-.509-.606l-.077-.054a10.187 10.187 0 0 1-1.418-2.1c-.4-.725-.657-1.514-.995-2.267v-.146c-.043-.114-.093-.227-.128-.344a39.286 39.286 0 0 1-.686-2.681l-.27-1.613c-.009-.114.038-.239-.063-.337l-.063-.4a.119.119 0 0 0 0-.016c0-.106 0-.214-.007-.321a2.1 2.1 0 0 0 0-.268c-.193-1.36-.173-2.733-.262-4.1 0-.523 0-1.047.007-1.57 0-.194-.064-.4.056-.579v-2.615c.118-.145.037-.317.068-.474v-.137c.14-.284.03-.585.063-.876a11.813 11.813 0 0 1 .094-1.7 23.418 23.418 0 0 1 .349-2.423l.02-.107h-.051a2.183 2.183 0 0 1-.112.075c-.294.181-.627.284-.93.444-.843.447-1.682.9-2.522 1.354h-.007q-2.172 1.317-4.224 2.814l-.012.009-.737.605a38.8 38.8 0 0 0-4.268 3.784c-.259.259-.482.554-.767.788l-.056.073-.354.462a11.944 11.944 0 0 0-1.2 1.379 26.561 26.561 0 0 0-2.094 2.922l-.339.472-.034.063c-.03.057-.06.114-.093.17a15.322 15.322 0 0 0-1.083 1.984 15.18 15.18 0 0 0-1.2 2.555l-.265.539-.016.048Q12.73 42.7 12.3 43.98c-.147.629-.359 1.243-.462 1.883a8.418 8.418 0 0 0-.206.833v.04a39.529 39.529 0 0 0-.538 4.3c0 .112 0 .223.007.335l-.018.342a30.338 30.338 0 0 0-.054 1.625c0 .958.113 1.912.071 2.87a.368.368 0 0 1 .063.29.7.7 0 0 0 0 .118c.03.223-.058.458.067.672a11.748 11.748 0 0 0 .124 1.632c.08.657.142 1.317.214 1.976a.12.12 0 0 0 0 .015c.079.067.052.163.068.247a5.757 5.757 0 0 0 .2 1.034 1.59 1.59 0 0 0 .009.234c.257 1.365.59 2.71.936 4.054l-.007.01h.009l.264.673a19.971 19.971 0 0 0 .75 2.146 21.728 21.728 0 0 0 1.4 2.962l.068.2.022.036a31.444 31.444 0 0 0 1.77 2.743 16.1 16.1 0 0 0 1.433 1.8.11.11 0 0 1 .017.009c.168.089.256.259.389.387.073.083.14.173.22.249a22.118 22.118 0 0 0 2.625 2.227 17.309 17.309 0 0 0 4.77 2.393c.551.171 1.126.245 1.664.456a25.939 25.939 0 0 1-6.134-1.187 27.03 27.03 0 0 1-8.187-4.2c-.079-.06-.151-.13-.227-.2a25.116 25.116 0 0 1-3.54-3.209 13.72 13.72 0 0 1-1.153-1.344 29.084 29.084 0 0 1-2.939-4.19 20.119 20.119 0 0 1-.993-1.821 36.142 36.142 0 0 1-2.359-5.575 56.46 56.46 0 0 1-1.212-3.721c-.073-.257-.13-.519-.194-.779A29.51 29.51 0 0 1 .4 52.073a15.792 15.792 0 0 1-.241-2.056 44.911 44.911 0 0 1-.138-5.087 2.756 2.756 0 0 1 .038-.3 25.4 25.4 0 0 1 .219-3.124c.155.042.211.173.292.268a22.512 22.512 0 0 0 1.985 2.043A7.29 7.29 0 0 0 6.213 45.6a9.292 9.292 0 0 0 1.184.209c.151.117.324.042.487.056h.581A17.052 17.052 0 0 1 8 43.851a16.19 16.19 0 0 1-.4-2.487 15.747 15.747 0 0 1-.229-1.894 47.651 47.651 0 0 1-.233-4.421 28.7 28.7 0 0 1 .14-4.211.972.972 0 0 1 .046-.159 20.368 20.368 0 0 1 .916-4.313 5.991 5.991 0 0 1 .362-1 9.952 9.952 0 0 1 .8-1.9 15.549 15.549 0 0 1 1.424-2.6 24.006 24.006 0 0 1 3.208-4.121c.153-.162.319-.311.48-.466a25.836 25.836 0 0 1 3.69-3.127 22.559 22.559 0 0 1 2.207-1.394c.094-.052.192-.1.325-.161-.208.643-.4 1.243-.6 1.845-.292.915-.485 1.855-.719 2.786a32.7 32.7 0 0 0-.431 3.373c-.026.444-.065.887-.1 1.331 0 .157-.007.315-.011.472-.1.1-.056.233-.057.35-.007.592-.009 1.182-.011 1.774v1.727c.192-.148.124-.266.141-.367a16.991 16.991 0 0 1 .529-2.295 13.862 13.862 0 0 1 .493-1.8 38.218 38.218 0 0 1 1.95-4.893c.058-.12.128-.233.192-.349a22.611 22.611 0 0 1 1.443-2.625 16.433 16.433 0 0 1 1.3-1.9 23.584 23.584 0 0 1 3.586-4.018A14.434 14.434 0 0 1 30.1 5.661a24.859 24.859 0 0 1 4.232-2.667 13.368 13.368 0 0 1 2.093-.943A26.285 26.285 0 0 1 40.363.643 22.137 22.137 0 0 1 43.14.022c.07-.023.145-.056.137.071a17.65 17.65 0 0 0-2.4 2.159 17.537 17.537 0 0 0-2.3 3.425 14.354 14.354 0 0 0-1.1 3.608c-.091.61-.107 1.225-.166 1.837.034 1.477.111 2.953.272 4.423.188.963.339 1.932.59 2.882.216.821.505 1.617.757 2.425.609 1.56 1.4 3.042 1.977 4.614.064.173.156.335.235.5a14.834 14.834 0 0 1 1.277 4.862.833.833 0 0 0 .056.185 10.854 10.854 0 0 1-.275 4.857c-.021.063-.05.123-.076.184a14.5 14.5 0 0 1-1.464 3.19c.664-.189 1.879-1.51 3.015-3.266a8.7 8.7 0 0 0 .813-4.36c0-.08-.006-.161-.009-.241-.014-.188.065-.385-.053-.563a14.729 14.729 0 0 0-.748-3.33c-.186-.486-.406-.956-.621-1.445.284.228.575.448.851.685a25.561 25.561 0 0 1 3.749 4.02c.185.245.349.5.522.758A20.984 20.984 0 0 1 50 34.376a12.976 12.976 0 0 1 .8 1.614 26.921 26.921 0 0 1 1.673 4.3 6.535 6.535 0 0 1 .282 1.066 25.126 25.126 0 0 1 .874 4.495c.01.141-.056.293.056.42.082.173-.056.37.061.539v4.973a36.652 36.652 0 0 1-.056 3.898z" transform="rotate(-14 78.334 42.898)" style="fill:url(#46bbbufn2d)"/>
                            </g>
                        </g>
                        <g data-name="Group 13546" transform="translate(10.969 22.883)">
                            <circle data-name="Ellipse 454" cx="38.567" cy="38.567" r="38.567" style="fill:#fff"/>
                            <g data-name="Group 13545">
                                <path data-name="Path 5965" d="M865.852-165.239c.982-11.095-6.876-20.986-17.817-23.265a23.428 23.428 0 0 0-5.292-.568 17.488 17.488 0 0 0-1.876.139c4.3 3.076 4.3 3.076 4.52 4.379h-.009a36.2 36.2 0 0 0-8.572-1.143 22.106 22.106 0 0 0-5.167.617 21.667 21.667 0 0 0-8.919 4.315c1.527 1 2.78 2.436 4.63 2.911.963.248 1.939.439 2.988.673-.833-2.524-.523-3.361 1.959-3.9a18.241 18.241 0 0 1 12.365 1.278c3.52 1.78 7.338 6.982 3.481 12.1-2.558 3.4-8.848 4.587-14.6 4.587-13.814 0-20.546-14.18-20.89-14.945.011.295.024.583.044.885a19.38 19.38 0 0 0 .136 2.146c.029.216.056.434.089.638l.024.152c.058.346.119.677.18.987a31.123 31.123 0 0 0 31.356 25.161 32.23 32.23 0 0 0 6.473-.824c9.739-2.247 14.224-8.777 14.897-16.323z" transform="translate(-804.839 217.477)" style="fill:url(#rrjydew6be);isolation:isolate"/>
                                <path data-name="Path 5962" d="M824.005-185.755c.127-1.436 1.32-1.912 2.125-2.608.367-.321.912.163.96.688.042.454.139 1.323-.621 1.063-1.094-.376-1.55.569-2.464.857z" transform="translate(-805.426 217.446)" style="fill:#004ce6"/>
                                <g data-name="Group 13544">
                                    <path data-name="Path 5963" d="M853.312-198.748c2.545-2.617 4.822-5.409 5.836-9.015 9.172 4.814 14.9 12.217 16.913 22.44a30.428 30.428 0 0 1-.068 10.379.981.981 0 0 1-.549.627c-.352.141-.544-.2-.575-.483-.689-5.977-4-10.442-8.222-14.394 2.307-.224 4.362.8 6.609 1.438-.456-.98-8.207-10.644-19.944-10.992z" transform="translate(-806.939 218.442)" style="fill:#004ce6"/>
                                    <path data-name="Path 5964" d="M833.541-164.248c6.2 0 12.042-1.184 14.6-4.583 3.856-5.12.039-10.322-3.481-12.1a18.24 18.24 0 0 0-12.36-1.279c-2.482.54-2.793 1.375-1.959 3.9-1.048-.235-2.026-.428-2.988-.674-1.85-.475-3.1-1.915-4.63-2.911a21.659 21.659 0 0 1 8.919-4.315 22.064 22.064 0 0 1 5.167-.616 22.076 22.076 0 0 0-5.175.616 21.666 21.666 0 0 0-8.918 4.315c-.53-.221-.982 1.236-1.515.119-1.6-3.345.059-8.91 3.219-10.917.512-.324.907-.535 1.1.378.362 1.709 1.115 2.05 2.755 1.543 1.809-.561 2.7-2.5 4.566-2.978.1-.027.144-.542.108-.816-.365-2.75.163-4.063 2.686-5.031 3.733-1.431 7.347-2.946 9.882-6.316.84 1.045.876 2.215 1.307 3.327a30.52 30.52 0 0 0 6.512-5.434c.932-.974.6-1.253-.48-1.572a30.968 30.968 0 0 0-15.939-.713 29.987 29.987 0 0 0-19.967 14.483 28.045 28.045 0 0 0-4.293 16.642c.343.756 6.452 14.637 20.884 14.932z" transform="translate(-804.838 218.611)" style="fill:#004ce6"/>
                                </g>
                                <path data-name="Path 5966" d="M850.67-200.747c-2.525.993-3.23 3.1-4.574 5.293 2.762-.762 4.7-2.38 6.852-3.58 2.546-2.618 4.822-5.41 5.837-9.015q.342-2.635.688-5.267c-1.532 2.3-2.47 4.86-4.323 6.819.327.574 1.012.027 1.356.5-1.621 2.204-3.393 4.29-5.836 5.25z" transform="translate(-806.566 218.729)" style="fill:url(#etjxul5xhf)"/>
                                <path data-name="Path 5968" d="M839.3-194.447c2.292.54 4.939-1.733 4.97-4.452l-2.4 1.285c-.19 1.597-1.57 2.228-2.57 3.167z" transform="translate(-806.215 217.985)" style="fill:url(#etjxul5xhf)"/>
                                <path data-name="Path 5961" d="M837.253-193.988c-.538-.619.086-1.349.64-1.815a8.817 8.817 0 0 1 3.854-1.74c0 1.978-2.347 4.327-4.494 3.555z" transform="translate(-806.099 217.915)" style="fill:#004ce6;isolation:isolate"/>
                            </g>
                        </g>
                    </g>
                </g>
                <g data-name="Group 16478" style="opacity:.2">
                    <g data-name="Group 16476">
                        <path data-name="Path 11494" d="M20.673 62.293h-.166a4.907 4.907 0 0 0-5.1-4.671v-.106a4.9 4.9 0 0 0 5.1-4.676h.166a4.91 4.91 0 0 0 5.1 4.676v.106a4.9 4.9 0 0 0-5.1 4.671z" transform="translate(647.289 -.522)" style="fill:#fff"/>
                        <path data-name="Path 11495" d="M18.8 58.932h-.107a3.162 3.162 0 0 0-3.285-3.01v-.069a3.16 3.16 0 0 0 3.285-3.013h.107a3.164 3.164 0 0 0 3.289 3.013v.069a3.161 3.161 0 0 0-3.289 3.01z" transform="translate(642.479 7.503)" style="fill:#fff"/>
                    </g>
                    <g data-name="Group 16477">
                        <path data-name="Path 11497" d="M18.7 58.932h.107a3.162 3.162 0 0 1 3.285-3.01v-.069a3.16 3.16 0 0 1-3.285-3.013H18.7a3.164 3.164 0 0 1-3.289 3.013v.069a3.161 3.161 0 0 1 3.289 3.01z" transform="translate(524.175 7.503)" style="fill:#fff"/>
                    </g>
                </g>
            </g>
            <path d="M1216.3 148.571a36.994 36.994 0 0 1-6.21-1.264 12.784 12.784 0 0 0-2.054-.712 2.42 2.42 0 0 0-.274-.027 2.306 2.306 0 0 0 .315-1.369 1.376 1.376 0 0 0-.678-1.068 1.442 1.442 0 0 0-1.486 0c.261-1.014-.567-2.013-1.993-2.406a4.185 4.185 0 0 0-3.848 1.032 1.659 1.659 0 0 0 .26-1.456 1.614 1.614 0 0 0-1.671-.767 1.765 1.765 0 0 0-.87-.7c-.418-.132-1.15-.037-1.171.269-.035-.324-.372-.6-.842-.685a1.165 1.165 0 0 0-1.082.406 4 4 0 0 0-1.41-1.63 4.275 4.275 0 0 0-2.568-.666 2.258 2.258 0 0 0-2.054 1.146 1.3 1.3 0 0 0-.89 0c-.26.114-.206.3-.185.511a5.872 5.872 0 0 0-4.108 1 2.272 2.272 0 0 0-.767 2.9 2.745 2.745 0 0 0-1.8-.152 1.6 1.6 0 0 0-1.183.919.874.874 0 0 0-.849-.406c-.384.023-.6.087-.616.338a7.863 7.863 0 0 0-6.847-1.538c-2.471.63-4.025 2.268-3.821 4.026a5.667 5.667 0 0 0-3.006-.337 4.244 4.244 0 0 0-2.471 1.19.793.793 0 0 0-.2 1.068 2.46 2.46 0 0 0-2.122.169c-1.3-.351-1.527-.132-2.807.251a17.477 17.477 0 0 1-5.183.58h4.17c4.553 0 6.607.79 9.449.3a32.7 32.7 0 0 0 11.92-.068 6.78 6.78 0 0 0 4.149 0 27.991 27.991 0 0 0 9.675-.137 3.7 3.7 0 0 0 2.245-.041 18.4 18.4 0 0 0 7.032.164 6.618 6.618 0 0 0 4.067-.046 18.474 18.474 0 0 0 6.607.023 8.123 8.123 0 0 0 3.081-.023 11.609 11.609 0 0 1 1.554-.187h12.516c-4.012-.1-8.024-.3-12.016-.607" transform="translate(-656.472 -36.336)" style="opacity:.05;isolation:isolate;fill:#fff"/>
            <path data-name="path60" d="M1187.212 143.587a20.314 20.314 0 0 1-3.409-.694 7.007 7.007 0 0 0-1.127-.391 1.333 1.333 0 0 0-.15-.015 1.267 1.267 0 0 0 .173-.752.756.756 0 0 0-.372-.586.792.792 0 0 0-.816 0c.143-.557-.311-1.1-1.094-1.321a2.3 2.3 0 0 0-2.113.566.909.909 0 0 0 .143-.8.885.885 0 0 0-.917-.421.967.967 0 0 0-.477-.386c-.229-.073-.632-.02-.643.148-.019-.178-.2-.329-.462-.376a.639.639 0 0 0-.594.223 2.2 2.2 0 0 0-.774-.895 2.346 2.346 0 0 0-1.409-.366 1.24 1.24 0 0 0-1.128.629.711.711 0 0 0-.489 0c-.143.063-.113.165-.1.281a3.223 3.223 0 0 0-2.255.551 1.247 1.247 0 0 0-.421 1.591 1.507 1.507 0 0 0-.989-.083.877.877 0 0 0-.65.5.479.479 0 0 0-.466-.223c-.21.013-.327.048-.338.185a4.316 4.316 0 0 0-3.759-.844c-1.356.346-2.21 1.245-2.1 2.21a3.11 3.11 0 0 0-1.65-.185 2.33 2.33 0 0 0-1.356.653.435.435 0 0 0-.109.586 1.35 1.35 0 0 0-1.165.093 2.056 2.056 0 0 0-1.541.138 9.594 9.594 0 0 1-2.845.318h2.289c2.5 0 3.627.433 5.187.163a17.947 17.947 0 0 0 6.543-.038 3.722 3.722 0 0 0 2.278 0 15.366 15.366 0 0 0 5.311-.075 2.03 2.03 0 0 0 1.233-.023 10.1 10.1 0 0 0 3.86.09 3.633 3.633 0 0 0 2.232-.025 10.143 10.143 0 0 0 3.627.013 4.459 4.459 0 0 0 1.691-.013 6.373 6.373 0 0 1 .853-.1h6.871c-2.2-.058-4.4-.163-6.6-.333" transform="translate(-830.501 -95.03)" style="opacity:.05;isolation:isolate;fill:#fff"/>
            <path data-name="path60" d="M1212.489 147.918a34.806 34.806 0 0 1-5.843-1.19 12.035 12.035 0 0 0-1.933-.67 2.269 2.269 0 0 0-.258-.026 2.172 2.172 0 0 0 .3-1.288 1.3 1.3 0 0 0-.638-1 1.358 1.358 0 0 0-1.4 0c.246-.954-.533-1.894-1.875-2.263a3.937 3.937 0 0 0-3.62.971 1.559 1.559 0 0 0 .245-1.37 1.518 1.518 0 0 0-1.572-.722 1.659 1.659 0 0 0-.818-.661c-.393-.125-1.082-.034-1.1.253-.033-.3-.35-.563-.792-.644a1.1 1.1 0 0 0-1.018.382 3.763 3.763 0 0 0-1.327-1.533 4.02 4.02 0 0 0-2.416-.627 2.126 2.126 0 0 0-1.933 1.078 1.219 1.219 0 0 0-.837 0c-.245.107-.193.283-.174.481a5.524 5.524 0 0 0-3.865.945 2.138 2.138 0 0 0-.721 2.727 2.583 2.583 0 0 0-1.7-.143 1.5 1.5 0 0 0-1.113.864.822.822 0 0 0-.8-.382c-.361.021-.561.082-.58.318a7.4 7.4 0 0 0-6.442-1.447c-2.325.592-3.788 2.134-3.595 3.788a5.332 5.332 0 0 0-2.829-.317 3.992 3.992 0 0 0-2.325 1.12.746.746 0 0 0-.187 1 2.315 2.315 0 0 0-2 .159c-1.224-.331-1.437-.125-2.641.236a16.447 16.447 0 0 1-4.877.545h3.923c4.284 0 6.217.743 8.89.279a30.762 30.762 0 0 0 11.216-.064 6.379 6.379 0 0 0 3.9 0 26.337 26.337 0 0 0 9.1-.129 3.481 3.481 0 0 0 2.113-.039 17.313 17.313 0 0 0 6.616.155 6.227 6.227 0 0 0 3.827-.043 17.383 17.383 0 0 0 6.217.021 7.642 7.642 0 0 0 2.9-.021 10.929 10.929 0 0 1 1.462-.176h11.776c-3.775-.1-7.55-.279-11.306-.571" transform="translate(-469.756 -117.532)" style="opacity:.05;isolation:isolate;fill:#fff"/>
            <g data-name="Group 16526">
                <path data-name="Path 11504" d="M19.38 60.193h.129a3.817 3.817 0 0 1 3.965-3.634v-.083a3.814 3.814 0 0 1-3.965-3.637h-.129a3.819 3.819 0 0 1-3.97 3.637v.083a3.815 3.815 0 0 1 3.97 3.634z" transform="translate(191.59 9.374)" style="opacity:.1;fill:#fff"/>
                <path data-name="Path 11505" d="M19.38 60.193h.129a3.817 3.817 0 0 1 3.965-3.634v-.083a3.814 3.814 0 0 1-3.965-3.637h-.129a3.819 3.819 0 0 1-3.97 3.637v.083a3.815 3.815 0 0 1 3.97 3.634z" transform="translate(191.59 11.81)" style="opacity:.1;fill:#fff"/>
            </g>
        </g>
    </g>
</svg>
