<svg xmlns="http://www.w3.org/2000/svg" width="352" height="207" viewBox="0 0 352 207">
    <defs>
        <linearGradient id="a" x2=".331" y2="1" gradientUnits="objectBoundingBox">
            <stop offset="0" stop-color="#976cb1"/>
            <stop offset="1" stop-color="#731def"/>
        </linearGradient>
        <linearGradient id="c" x1=".5" x2=".5" y2="1" gradientUnits="objectBoundingBox">
            <stop offset="0" stop-color="#2464f4"/>
            <stop offset="1" stop-color="#1db2d5"/>
        </linearGradient>
        <clipPath id="b">
            <path data-name="Rectangle 18588" d="M20 0h312a20 20 0 0 1 20 20v187H0V20A20 20 0 0 1 20 0z" transform="translate(152 197)" style="fill:url(#a)"/>
        </clipPath>
    </defs>
    <g data-name="Mask Group 277" transform="translate(-152 -197)" style="clip-path:url(#b)">
        <g data-name="Group 16483">
            <g data-name="Group 16482" transform="translate(403.5 187)" style="mix-blend-mode:luminosity;isolation:isolate;opacity:.4">
                <circle data-name="Ellipse 625" cx="58.5" cy="58.5" r="58.5" transform="translate(-.5)" style="fill:#fff"/>
                <path data-name="Path 11498" d="M766.149 725.606h.04a.546.546 0 0 0-.07 0 .1.1 0 0 1 .03 0z" transform="translate(-705.36 -705.643)" style="fill:url(#c);opacity:.3"/>
                <path data-name="Path 11499" d="M765.979 725.609a.515.515 0 0 1 .066 0 .1.1 0 0 0-.029 0 .159.159 0 0 0-.037 0z" transform="translate(-705.257 -705.643)" style="fill:url(#c);opacity:.4"/>
                <g data-name="Group 16481">
                    <path data-name="Path 11500" d="M649.636 590.059a46.246 46.246 0 0 0-13.734-9.578 12.931 12.931 0 0 0 1.294-4.468l-.222-.1a36.4 36.4 0 0 1-2.436 4 49.771 49.771 0 0 1-3.192 4.138l2.632.03c-3.337 6.99-12.821 10.045-12.821 10.045-.026 2.161-3.326 5.983-3.326 5.983 5.126-1.173 10.559-5.142 10.559-5.142 22.71 1.045 28.25 14.345 29.8 16.854.221.358.048.691 0 .635-5.1-7.85-12.441-10.436-12.926-9.979l2.4 2.961c-11.177-5.022-19.121-5.16-19.121-5.16s15.772 2.744 24.4 14.045a42.95 42.95 0 0 1 8.376 19.167c.052.378.085.676.1.884a46.323 46.323 0 0 0 1.553-11.644 45.729 45.729 0 0 0-13.336-32.671zM624.994 577.1a23.844 23.844 0 0 0-.659-.114l-.568-.092a37.87 37.87 0 0 0-1.094-.153.652.652 0 0 1-.067-.008l-.561-.067q-.547-.061-1.1-.11l-.132-.014c-.137-.01-.276-.023-.414-.032q-.65-.051-1.306-.084c-.38-.02-.762-.035-1.142-.043-.2 0-.4-.009-.593-.011h-1.221c-.587.009-1.174.026-1.757.056l-.581.032a46.245 46.245 0 0 0-41.711 34.049 46.7 46.7 0 0 0-1.538 12.016 17.285 17.285 0 0 0 .14 2.663 7.951 7.951 0 0 0 .266 1.16c.011.042.024.084.037.128a31.809 31.809 0 0 0 3.133 6.7 35.7 35.7 0 0 0 2.616 3.96 18.284 18.284 0 0 0 1.282 1.571c.046.053.095.1.14.154l.169.185c.16.175.323.348.488.519l.106.11a29.6 29.6 0 0 0 8.119 5.783 39.134 39.134 0 0 0 14.783 3.854 35.689 35.689 0 0 0 5.355-.039l.136-.011.13-.013a21.991 21.991 0 0 0 5.641-1.188 13.463 13.463 0 0 0 4.236-2.2 16.482 16.482 0 0 0 4.059-4.323 15.445 15.445 0 0 0 2.559-8.135c.08-6.726-6.646-14.3-16.352-15.185-.31-.028-.624-.05-.94-.065-.16-.009-.323-.013-.485-.018s-.329-.007-.5-.007h-.168a.76.76 0 0 0-.082 0c-.189 0-.378.005-.566.015s-.349.015-.524.026c-.15.008-.3.02-.449.033-.132.011-.262.024-.394.037a22.852 22.852 0 0 0-2.831.467c-6.327 1.45-4.128 6.524-4.055 6.692a20.6 20.6 0 0 1-4.4-.888l-.065-.021-.279-.1a12.018 12.018 0 0 1-4.132-2.435l-.018-.017a4.01 4.01 0 0 1-.115-.11 11.285 11.285 0 0 1-1.981-2.614l-.019.013a29.979 29.979 0 0 0-2.53 1.782s-1.142-6.128-.376-9.845 6.688-8.191 6.688-8.191-.74 3.816 2.655 3.855 7.352-5.3 7.5-4.838 3.246.5 3.246.5-1.393-.017-2.6-2.5 2.55-6.148 8.774-8.391S620.038 584 620.038 584c1.545.173 1.961 4.5 1.961 4.5a47.761 47.761 0 0 0 10.965-9.207c0-.006.011-.011.016-.017a45.75 45.75 0 0 0-7.986-2.176zm-16.079 19.623c-3.166 1.231-2.767 3.414-2.767 3.414a8.545 8.545 0 0 0 5.166-1.026c2.642-1.338 3.846-5.212 3.883-5.335a59.5 59.5 0 0 1-6.283 2.945zm4 11.544a.122.122 0 0 0-.024 0h.024zm-24.329.559c-.949-.32-2.189.8-2.769 2.5a4.892 4.892 0 0 0-.258 2.243 5.6 5.6 0 0 1 .242-1c.581-1.7 1.82-2.82 2.769-2.5a1.625 1.625 0 0 1 .923 1.422c.196-1.303-.146-2.411-.904-2.668zm20.326-12.1c-3.166 1.231-2.767 3.414-2.767 3.414a8.545 8.545 0 0 0 5.166-1.026c2.642-1.338 3.846-5.212 3.883-5.335a59.5 59.5 0 0 1-6.28 2.942zm-20.326 12.1c-.949-.32-2.189.8-2.769 2.5a4.892 4.892 0 0 0-.258 2.243 5.6 5.6 0 0 1 .242-1c.581-1.7 1.82-2.82 2.769-2.5a1.625 1.625 0 0 1 .923 1.422c.196-1.303-.146-2.411-.904-2.668zm20.326-12.1c-3.166 1.231-2.767 3.414-2.767 3.414a8.545 8.545 0 0 0 5.166-1.026c2.642-1.338 3.846-5.212 3.883-5.335a59.5 59.5 0 0 1-6.28 2.942zm4 11.544a.122.122 0 0 0-.024 0h.024zm-24.329.559c-.949-.32-2.189.8-2.769 2.5a4.892 4.892 0 0 0-.258 2.243 5.6 5.6 0 0 1 .242-1c.581-1.7 1.82-2.82 2.769-2.5a1.625 1.625 0 0 1 .923 1.422c.199-1.306-.143-2.414-.901-2.671z" transform="translate(-558.395 -563.88)" style="fill:#448aff"/>
                    <g data-name="Group 16480">
                        <path data-name="Path 11501" d="M644.934 773.881a28.7 28.7 0 0 1-16.681 10.62q-1.75.369-3.522.589c-.158.022-.316.039-.474.057s-.3.034-.453.049c-.046.007-.093.011-.139.016a53.8 53.8 0 0 1-24.251-3.358 39.813 39.813 0 0 1-7.691-3.967 46.932 46.932 0 0 1-7.151-5.92c-7.476-7.544-12.139-19.231-13.214-29.676a8.329 8.329 0 0 0 .267 1.161 31.29 31.29 0 0 0 3.173 6.826 36.113 36.113 0 0 0 2.614 3.961 18.665 18.665 0 0 0 1.282 1.568c.045.052.093.1.138.153l.172.189q.24.262.487.518c.035.038.069.074.106.111a29.546 29.546 0 0 0 8.119 5.78 39.092 39.092 0 0 0 14.781 3.857 35.748 35.748 0 0 0 5.355-.039l.138-.013c.044 0 .087-.006.128-.011a22.039 22.039 0 0 0 5.64-1.19 13.384 13.384 0 0 0 4.238-2.2 16.5 16.5 0 0 0 4.057-4.323 15.468 15.468 0 0 0 2.562-8.136c.086-7.2-7.63-15.38-18.455-15.277-.244 0-.489.009-.736.022-.1 0-.206.009-.31.015-.069 0-.138.009-.21.013-.169.01-.338.026-.506.041-.281.023-.56.054-.839.091a.479.479 0 0 0-.063.009c-.707.095-1.424.222-2.149.388-3.7.848-4.484 2.933-4.484 4.553a5.717 5.717 0 0 0 .432 2.146h-.031a20.851 20.851 0 0 1-4.4-.889l-.067-.022-.279-.1a11.977 11.977 0 0 1-4.13-2.437.086.086 0 0 1-.02-.016c-.039-.035-.076-.072-.112-.108a10.543 10.543 0 0 1-1.136-1.3 12.742 12.742 0 0 1-.845-1.317 38.9 38.9 0 0 1 19.315-5.968c.233-.01.47-.02.7-.028q1.444-.045 2.9 0 2.285.072 4.583.363a38.107 38.107 0 0 1 6.835 1.418l.024.008h.013s0-.009-.011-.02l.019.007a15.815 15.815 0 0 0-1.98-2.781c-.941-1.1-3.411-3.972-5.05-3.946h-.008c.16-.011.321-.02.481-.028q1.5-.073 3.027-.007c9.754.386 19.7 4.794 25.718 12.465l.126.132.15.194a36.779 36.779 0 0 1 4.511 7.794 44.041 44.041 0 0 1 2.284 10.187 24.722 24.722 0 0 1-4.978 17.776z" transform="translate(-559.028 -680.989)" style="fill:#303f9f"/>
                        <path data-name="Path 11502" d="M698.754 773.881a28.7 28.7 0 0 1-16.681 10.62q-1.748.369-3.521.589c-.159.022-.316.039-.474.057s-.3.034-.453.049c-.045.007-.094.011-.139.016-.319.032-.638.059-.958.084a51.422 51.422 0 0 1-9.424-.128c-4.472-.459-9.788-1.225-13.869-3.314-.122-.062-.24-.125-.359-.19.59-.028 1.2.01 1.8.01a32.066 32.066 0 0 0 21.347-8.428c6.454-5.819 10.155-13.5 10.155-21.082 0-.821-.039-1.655-.116-2.474l-.037-.38-.156.351a16.221 16.221 0 0 1-9.989 8.975l-.1.032a14.272 14.272 0 0 0 1.992-4.2 15.384 15.384 0 0 0 .641-3.968c.081-6.873-6.946-14.633-16.992-15.236l-.135-.008q-.267-.014-.536-.021t-.546-.008h-.4c-.183 0-.365.006-.549.016-.1 0-.206.009-.31.015l-.211.013c-.168.01-.338.023-.507.041q-.417.035-.839.091a.487.487 0 0 0-.062.009c-.718.092-1.443.222-2.181.391-6.325 1.448-4.126 6.523-4.051 6.692-6.965-.7-9.571-3.622-11.019-6.191a38.924 38.924 0 0 1 19.345-5.968c.234-.01.47-.02.7-.028q1.443-.045 2.9 0 2.272.075 4.553.363a37.425 37.425 0 0 1 6.86 1.426h.013a.034.034 0 0 0-.006-.011.015.015 0 0 0 0-.009l.023.007a16.126 16.126 0 0 0-1.981-2.781c-.937-1.087-3.383-3.935-5.021-3.946h-.042c.172-.011.342-.022.514-.028q1.506-.073 3.027-.007c9.743.4 19.68 4.8 25.69 12.465l.123.132c.061.064.123.13.18.194a23.023 23.023 0 0 1 4.512 7.794 44.068 44.068 0 0 1 2.284 10.187 24.716 24.716 0 0 1-4.995 17.787z" transform="translate(-612.849 -680.989)" style="fill:#1a237e;opacity:.7"/>
                    </g>
                </g>
            </g>
        </g>
    </g>
</svg>
