<svg xmlns="http://www.w3.org/2000/svg" width="352" height="326"><defs><linearGradient id="linear-gradient" x1=".5" x2=".5" y2=".918" gradientUnits="objectBoundingBox"><stop offset="0" stop-color="#252833"/><stop offset="1" stop-color="#121319" stop-opacity="0"/></linearGradient><clipPath id="clip-path"><rect id="Rectangle_18541" data-name="Rectangle 18541" width="352" height="326" rx="20" transform="translate(143 225)" style="fill:#1b1d26"/></clipPath><style>.cls-3,.cls-5,.cls-7{isolation:isolate}.cls-4{fill:#252833}.cls-5{opacity:.4}.cls-7{opacity:.6}</style></defs><g id="Mask_Group_269" data-name="Mask Group 269" transform="translate(-143 -225)" style="opacity:.5;clip-path:url(#clip-path)"><g id="Group_16260" data-name="Group 16260" transform="translate(99.623 221.702)"><g id="Group_14580" data-name="Group 14580" class="cls-3" transform="translate(244.905 149.134)"><path id="Path_11172" data-name="Path 11172" class="cls-4" d="M510 256.516c4.127-.938 11.127-.794 10.17-2.252 3.036 2.028 36.426-4.534 35.219-6.408-2.094 2.836.189 3.206 1.781 1.6.15.812 1.5.432 1.929-.48-.035.228 1.927 1.141 1.919-.517 2.708 1.482 16.7-5.9 4.54-2.677.568-1.932-2.539-.3-2.539-.3 3.112-4.3-2.522-2.017-2.6-2.368-2.775-5.505-7.562-6.046-9.45-2.657a1.544 1.544 0 0 0-2.755 1.024c-3.205-1.977-9.151-1.652-7.791 3.134-2.475-.852-6.326-1.251-5.359 1.381-1.667 0-1.938 2.447-1.938 2.447-1.057-2.426-7.19-3.521-7.83 1.35-1.326-.293-3.828.834-2.059 2.676.032.145-7.5-1.449-4.535.657.353.023-2.368-.286-1.051.783-.904-.161-1.871 1.198-7.651 2.607z" transform="translate(-510.001 -238.342)"/><path id="Path_11173" data-name="Path 11173" class="cls-4" d="M510 264.106c4.127-.939 11.127-.794 10.17-2.252 3.036 2.028 36.426-4.534 35.219-6.408-2.094 2.836.189 3.206 1.781 1.6.15.812 1.5.432 1.929-.48-.035.228 1.927 1.141 1.919-.517.283 1.773 12.087-3.614 9.22-3.414-8.778 1.773-11 2.9-21.262 1.862-1.186.876-6.3 4.706-7.91 1.8.473 1.228-1.89 1.966-2.318.4-1.345 1.978-9.576 3.861-12.21 3.222.05.5-1.845.814-2.4-.036-2.82 2.05-10.27 2.917-14.138 4.223z" transform="translate(-510.001 -245.931)"/><path id="Path_11174" data-name="Path 11174" class="cls-4" d="M510 264.106c4.127-.939 11.127-.794 10.17-2.252 3.036 2.028 36.426-4.534 35.219-6.408-2.094 2.836.189 3.206 1.781 1.6.15.812 1.5.432 1.929-.48-.035.228 1.927 1.141 1.919-.517.283 1.773 12.087-3.614 9.22-3.414-8.778 1.773-11 2.9-21.262 1.862-1.186.876-6.3 4.706-7.91 1.8.473 1.228-1.89 1.966-2.318.4-1.345 1.978-9.576 3.861-12.21 3.222.05.5-1.845.814-2.4-.036-2.82 2.05-10.27 2.917-14.138 4.223z" transform="translate(-510.001 -245.931)"/></g><g id="Group_14581" data-name="Group 14581" class="cls-3" transform="translate(184.282 150.617)"><path id="Path_11175" data-name="Path 11175" class="cls-4" d="M319.454 419.545a17.974 17.974 0 0 1-2.287.533l-1.84.447s.215.431-.912.565-5.312-.479-5.518-.291-1.127.95-1.629.846l-.5-.1s-1.075.291-1.193-.152-.131-.278-.118-.443-.929.7-1.434.562a6.992 6.992 0 0 0-1.668-.031s-1.753.357-1.567 0 2.139-.948 2.45-1.083.412-.93.917-.794a2.11 2.11 0 0 1 .8.395s.521-1.661 1.07-1.433a3.166 3.166 0 0 1 1.067 1.015l.424-.278a1.512 1.512 0 0 0 .229-.549c.034-.265.391-1.385 1.238-1.388a2.606 2.606 0 0 1 2.21-1.176c1.653-.1 1.448 1.2 1.448 1.2s2.613.016 2.895 1.288c-.005-.005 3.564-.462 3.918.867z" transform="translate(-300.772 -416.181)"/><path id="Path_11176" data-name="Path 11176" class="cls-4" d="M352 423.149a9.951 9.951 0 0 1 1.92.229c-.218.091-1.624.617-1.817.64s-.673.929-1.753.632-1.55-.409-1.55-.409-.888.491-1.32.157-1.1.039-1.285-.1-.805-.459-.89-.352a2.584 2.584 0 0 1-.722.249s-.448.347-.681.309a6.032 6.032 0 0 0-1.333.322 19.728 19.728 0 0 1-2.2.131 6.23 6.23 0 0 1 2.161-1.04c.933-.11 1.111-.817 1.364-.88s.758-.22.882-.268-.02-.715.512-.909a1.868 1.868 0 0 1 .933-.111s.1-.8 1.094-.685 1.061.69 1.061.69a1.428 1.428 0 0 1 1.2.739 1.006 1.006 0 0 1 1.238-.571 1.493 1.493 0 0 1 1.186 1.227z" transform="translate(-321.805 -418.768)"/></g><g id="Group_14583" data-name="Group 14583" class="cls-5" transform="translate(309.176 176.019)"><path id="Path_11181" data-name="Path 11181" class="cls-4" d="M648.97 343.29c.574-.073 5.074-.484 5.7-.574.681-.1 11.684-2.434 15.384-3.115s13.436-6.913 13.436-6.913l-2.338-.293-1.751-1.265-2.735.756-.089.024s-1.364-3.894-3.408-4.966-1.3 1.072-1.3 1.072a27.807 27.807 0 0 1-2.012 2.726 3.307 3.307 0 0 0-.253 2.6 2.188 2.188 0 0 0-1.4-1.531c-1.363-.291-2.727 2.337-3.018 2.512s.1-2.512-4.772-3.778-3.211.681-5.451 2.143-.779 3.31-2.727 6.23q-.989 1.485-1.68 2.465a7.7 7.7 0 0 1-1.586 1.907z" transform="translate(-648.97 -326.644)"/></g><g id="Group_16261" data-name="Group 16261" class="cls-5" transform="translate(128.861 163.339)"><path id="Path_11181-2" data-name="Path 11181" class="cls-4" d="M691.712 347.259c-.711-.09-6.284-.6-7.053-.71-.843-.122-14.469-3.014-19.051-3.857s-16.639-8.561-16.639-8.561l2.895-.363 2.169-1.567 3.387.936.11.029s1.689-4.823 4.221-6.15 1.608 1.328 1.608 1.328a34.433 34.433 0 0 0 2.491 3.375c.651.724.521 2.176.313 3.222a2.709 2.709 0 0 1 1.736-1.9c1.689-.361 3.378 2.895 3.738 3.111s-.119-3.111 5.909-4.678 3.977.843 6.75 2.654.965 4.1 3.377 7.715q1.224 1.84 2.081 3.053a9.544 9.544 0 0 0 1.958 2.363z" transform="translate(-648.97 -326.644)"/></g><path id="Path_11183" data-name="Path 11183" class="cls-4" d="M215.872 391.268a.323.323 0 0 1-.122-.028c.141.019.187.028.122.028z" transform="translate(-108.78 -170.433)"/><path id="Path_11186" data-name="Path 11186" d="M421.824 470.219v-90.18s-13.412 8.9-15.648 10.678-9.388-7.1-16.094-4.736-9.389 9.473-9.389 9.473-5.812 4.322-7.824 3.542-6.285-2.161-9.29-.977a20.733 20.733 0 0 0-5.911 4.145s-6.035-4.934-9.836-2.171-7.6 10.065-7.6 10.065L328.61 414.8s-3.629-2.566-4.721-2.566-5.115 1.579-5.115 1.579-10.953-5.131-14.083-2.96-.67-6.118-6.259-4.737a32.2 32.2 0 0 0-9.389 3.947l-3.129-1.184s-5.365-5.724-10.506-4.145-6.93 3.553-6.93 3.553-4.023-9.671-9.612-8.289a75.377 75.377 0 0 1-10.283 1.974c-1.788.2-7.377 5.526-7.377 5.526s-4.471-2.763-7.153-1.974a6.569 6.569 0 0 0-3.8 2.961s-6.93-2.171-7.6-1.974a26.569 26.569 0 0 0-3.129 1.777s-9.612-3.553-14.53-1.974-8.941-.2-10.73-.789a40.253 40.253 0 0 0-8.494-1.776c-2.012 0-30.178-.987-30.178-.987s-25.93-13.026-31.742-12.237-28.836-10.855-44.037-8.289-16.542 1.382-16.542 1.382-16.318-6.513-23.248-.987c0 0 3.8-10.658-5.812-15.986s-14.083-.395-14.083-1.184-12.74-19.545-20.34-19.94-6.482 0-6.482 0v124.7z" transform="translate(9.42 -197.445)" style="fill:url(#linear-gradient)"/><g id="Group_14584" data-name="Group 14584" class="cls-7" transform="translate(0 17.247)"><path id="Path_11191" data-name="Path 11191" class="cls-4" d="M134.2 123.722c-1.031.763-1.031-1.526-1.031-3.073s-16.437-6.517-16.437-6.517c-1.011.468 1.574-2.31.5-4.977s-3.871-4.214-6.613-5.094-5.658-1.306-8.153-2.736c.131-.694.261-1.4.392-2.09-1.189-.3-2.386-.6-3.575-.914a19.077 19.077 0 0 1 2.117-5.458 20.856 20.856 0 0 0-5.884.261 8.309 8.309 0 0 0-13.21-9.144c-3.719.585-7.335-1.5-10.243-3.891-2.323-1.918-5.691-4.159-7.963-2.179.942-1.966-1.306-3.96-3.341-4.75A22.124 22.124 0 0 0 50.2 71.806a2.5 2.5 0 1 0-1.627-4.706c.646-1.409 2.152-2.165 3.382-3.1s2.337-2.537 1.684-3.939C52.973 58.6 51 58.449 49.405 58.51a3.03 3.03 0 0 0-3.189-5.094c.784-2.585-2.619-4.585-5.307-4.31s-5.273 1.7-7.94 1.285a11.905 11.905 0 0 1-4.949-2.5q-4.558-3.31-9.13-6.613a6.2 6.2 0 0 1-2.344-2.482 27.182 27.182 0 0 1-.536-3.128C15.356 33.212 12.688 32 10.4 30.9s-4.82-2.885-4.682-5.422c.172-3.032 3.843-4.365 6.82-4.95A7.532 7.532 0 0 1 11.19 15.4a15.561 15.561 0 0 0-4.51-2.942c1.87.777 3.506-2.117 2.516-3.884s-3.169-2.4-5.135-2.86l3.41-.6A11.86 11.86 0 0 0-2.855.558a10.75 10.75 0 0 0-6.682-6.4s-.021.323-.055.935c-.543 9.253-4.853 84.315-1.719 86.481 3.342 2.317 15.682-1.024 15.682-1.024s4.629 4.365.515 6.166 0 2.825 7.459 8.744S29.05 106 34.192 109.34c5.059 3.286 18.843 9.816 19.276 10.016l-4.881-4.874C65.3 124.505 93.32 127.076 93.32 127.076c-29.354-5.823-44.011-16.623-44.457-16.959.323.075 8.242 2.056 9.755 2.31 1.54.255 3.341-1.285 4.111-.777s7.968 4.118 12.085 5.919 6.538-.777 6.538-.777 5.286-1.024 7.087 2.317 14.911 1.024 14.911 1.024l-16.712-4.365s9-1.031 13.88 0c2.049.433 5.774 2.358 10.146 4.51 6.056 2.97 13.35 6.359 19.173 6.8 10.023.763 42.409 0 42.409 0-15.427-1.287-37.019-4.112-38.046-3.356z" transform="translate(12.443 5.842)"/></g><path id="Path_11194" data-name="Path 11194" class="cls-4" d="M151.377 211.895c.536.259 1.084.5 1.638.733a5.3 5.3 0 0 0-1.638-.733z" transform="translate(-74.584 -75.159)"/><path id="Path_11195" data-name="Path 11195" class="cls-4" d="m-9.7 208.847.628 10.629.751 12.76S-.857 235.5.1 235.4s4.046 2.716 7.963 4.144a26.867 26.867 0 0 1 9.219 5.986c1.952 1.94 12.8 5.912 16.849 7.581a9.431 9.431 0 0 0 3.085.708c2.888.148 4.994-1.324 2.864-4.52-2.858-4.28-10-7.852-10-7.852s-3.572-3.565-3.332-6.047-12.852-2.993-13.087-5.851-6.189-5-12.378-8.332S-9.7 209.192-9.7 208.847z" transform="translate(10.986 -94.446)"/><g id="Group_14585" data-name="Group 14585" class="cls-7" transform="translate(288.21 63.849)"><path id="Path_11198" data-name="Path 11198" class="cls-4" d="m742.027 58.167-.141-1.744c-4.266-.45-7.407 9.647-7.407 9.647a8.56 8.56 0 0 0-4.711-1.12c-3.141 0-3.141 6.281-10.1 4.936s3.141-9.427 3.141-9.427l-8.074 2.941a8.283 8.283 0 0 0-5.25 5.958c-.408 1.8-.872 3.835-1.256 5.466-.9 3.811-8.3 11.888-8.3 11.888l-.286-.473a10.3 10.3 0 0 0-10.6-4.875 8.256 8.256 0 0 0-.783.188c-2.916.9-3.586 6.732-3.586 6.732l3.811-1.8a23.251 23.251 0 0 1-1.57 9.652c-2.02 5.381-11.443 4.936-10.1 4.261s6.731-7.407 6.731-7.407a18.658 18.658 0 0 0-9.422 2.02c-4.711 2.47-.675 18.174-3.816 17.949a7.125 7.125 0 0 0-1.51.08 11.016 11.016 0 0 0-9.146 8.832 737.341 737.341 0 0 0-1.013 5.227c-.445 2.466 2.245 6.732 2.245 6.732l-1.8.22c-1.8.225-9.2 6.061-9.2 6.061a32.274 32.274 0 0 0-7.406 2.016c-3.811 1.57-4.486 3.366-4.486 4.266s2.245 3.816 2.245 6.507-4.266 2.691-5.611 3.141a19.3 19.3 0 0 1-6.282.45c-1.57-.225-3.366.225-12.338.67s-11.668 5.611-13.463 6.061 10.992-1.125 12.563-1.575 13.913-1.57 17.5-2.241 16.158-5.386 18.174-6.281c1.336-.6 6.4-4.725 10.266-6.544 1.974-.923 3.633-1.252 4.317-.188 2.02 3.141 14.138-4.266 20.532-8.077.816-.487 1.749-1.13 2.761-1.88l-.478.773-2.752 4.481a51.365 51.365 0 0 0 6.23-2.381c2.2-1.036 6.924-3.666 9.825-5.236 1.1-.6 1.941-1.041 2.278-1.186 1.228-.534 1.983.178 4.838-.178a2.5 2.5 0 0 0 2.316-3.033s4.636 1.43 7.139-5.5c0 0 5.874-4.936 8.789-7.627s-2.916-7.4-2.916-7.4 7.627-4.266 11.217-9.2-3.816-3.141-4.936-3.591S742.782 82.9 743.9 81.549zm-51.035 77.253c-1.336.6-2.213.97-2.316 1.013 6.947-5.166 17.715-15.507 20.452-16.29 3.141-.9 6.056-3.366 7.4-3.591a.378.378 0 0 1 .281.084 1.577 1.577 0 0 0-.281-.084 59.525 59.525 0 0 1-9.169 10.1l-.075.061c-3.63 2.909-12.157 6.87-16.292 8.707z" transform="translate(-602.382 -56.409)"/></g><g id="Group_14588" data-name="Group 14588" class="cls-7" transform="translate(292.021)"><path id="Path_11205" data-name="Path 11205" class="cls-4" d="M610.765 25.763c2.851-.478 46.413-13.641 53.12-17.334s28.43-11.727 42.254-21S752.958-39.1 752.958-39.1l-6.632-39.535s-4.515-.708-6.339-1.134-4.884 4.113-4.884 4.113-6.766-1.063-13.055 5.121 1.374 8.192 1.374 8.192a63.027 63.027 0 0 0-4.206 7.663c-1.3 3.149 3.512 7.834 3.512 7.834l-9.617 1.613s-4.211 5.463-6.225 6.533 1.373 10.391 1.373 10.391-3.443-.888-7.745-2.488-2.879 4.633-2.879 4.633-20.19-2.468-25.886.686.007 10.982.007 10.982-8.427 4.345-14.361 6.073.424 4.688-.11 5.873-5.462 2.382-11.044 4.05-6.817 7.368-6.817 7.368-3.315 2.529-5.718 4.411a76.626 76.626 0 0 0-2.057 1.66c-1.599 1.361-23.734 11.302-20.884 10.824z" transform="translate(-610.512 79.8)"/></g><g id="Group_14591" data-name="Group 14591" class="cls-7" transform="translate(340.368 118.622)"><path id="Path_11215" data-name="Path 11215" class="cls-4" d="M807.253 203.3s-11.443 8.755-16.153 11a59.626 59.626 0 0 1-11.218 3.816c-2.466.675-5.606 2.02-7.4 2.466s-7.407 4.041-7.407 4.041l-6.507 1.12-16.154 7.182s-3.141 5.241-6.056 5.086a87.424 87.424 0 0 0-10.988.83 90.305 90.305 0 0 0-2.7.366c-2.916.45-9.647 1.57-8.972 1.12s11.668-4.486 13.458-8.3 4.266-8.869 10.1-10.154 9.647-.736 11.893 0a5.976 5.976 0 0 0 3.342-.45c2.381-.8 5.171-2.184 6.755-2.184a40.69 40.69 0 0 0 8.6-.82 7.928 7.928 0 0 0 1.5-.525c2.241-1.12 7.364-5.606 7.364-5.606s-8.039.22-6.919-.675 4.716-2.916 7.857-6.281 11.218-12.568 12.113-15.258a28.329 28.329 0 0 1 6.057-9.647c2.672-2.644 9.469-6.807 9.68-7.167-.038.164-.239 1.589-.53 3.642-.863 6.122-2.48 17.841-2.644 18.334a49.085 49.085 0 0 1-5.831 7.627c-1.345 1.125-17.054 11.668-15.479 11.218s14.855-6.056 17.522-8.3a31.065 31.065 0 0 1 5.583-4.036c.669-.238 3.134 1.555 3.134 1.555z" transform="translate(-713.649 -173.25)"/></g><g id="Group_14593" data-name="Group 14593" class="cls-3" transform="translate(234.823 145.553)"><path id="Path_11221" data-name="Path 11221" class="cls-4" d="m651.037 237.4 1.572-1.9a10.272 10.272 0 0 1-3.074 1.489c-.5.145-1.224.113-1.3-.4-.057-.381.334-.665.681-.83a9.525 9.525 0 0 1 4.083-.916 1.311 1.311 0 0 1 .521-1.776c.636-.276 1.5.35 1.325 1.021a1.31 1.31 0 0 1 2.155-1.111 14.071 14.071 0 0 1 1.7-.565l1.117-.318c1.649-.469 3.3-1.027 4.974-1.394-1.632 1.889-4.144 2.6-6.4 3.459-2.502.959-4.809 2.347-7.354 3.241z" transform="translate(-573.351 -230.701)"/><path id="Path_11224" data-name="Path 11224" class="cls-4" d="M498.851 279.734a5.847 5.847 0 0 1-2.057-.135 5.133 5.133 0 0 0-1.515-.451c-.53 0-1.1.54-.86 1.015.177.355.712.493.751.887.046.473-.617.625-1.093.615a17.083 17.083 0 0 0-5.582.816 4.216 4.216 0 0 0 2.847.588c3.59-.122 7.191-.172 10.778-.365.737-.039 3.64-.216 3.056-1.687-.286-.72-2.649-.658-3.276-.935.328-.14.66-.434 1-.541-1.341-.01-2.7.123-4.049.193z" transform="translate(-488.495 -256.438)"/></g><g id="Group_14597" data-name="Group 14597" class="cls-3" transform="rotate(6.02 -1612.328 2093.37)"><path id="Path_11237" data-name="Path 11237" class="cls-4" d="M5.921 2.515A56.962 56.962 0 0 1 0 4.113a7.959 7.959 0 0 1 3.353-2.034A1.158 1.158 0 0 1 2.866.832 1.158 1.158 0 0 1 3.915 0a3.887 3.887 0 0 0 3.74 1.051.984.984 0 0 1-.346 1.122 2.879 2.879 0 0 1-1.161.475" transform="translate(0 5.832)"/><path id="Path_11238" data-name="Path 11238" class="cls-4" d="M15.8.839A9.18 9.18 0 0 1 12.572.9a8.058 8.058 0 0 0-2.425-.5c-.827.078-1.64.989-1.208 1.7.323.53 1.177.674 1.29 1.286.135.733-.88 1.057-1.623 1.1A26.788 26.788 0 0 0 0 6.5c1.285.873 2.98.724 4.522.541 5.588-.666 11.2-1.221 16.775-2 1.145-.159 5.653-.82 4.546-3.039C25.3.916 21.622 1.326 20.606.978 21.1.715 21.578.213 22.1 0c-2.1.163-4.209.55-6.3.839z" transform="translate(15.202)"/></g></g><path id="Path_11388" data-name="Path 11388" class="cls-4" d="m280.125 75.994.475-1.076.871.58 2.529-.663s6.729 2.649 10.687 2.731l4.354 3.228s4.038-2.151 6.175.083 8.075 1.986 8.075 1.986 3.087.248 3.087 2.814 3.087 4.386 3.087 4.386l2.691-.166-1.108-.414c.712-.331-.4-.911-.4-.911s-2.771-.91-1.9-2.813 10.608 9.186 17.573 9.352 10.291-.414 19.157-3.641a18.482 18.482 0 0 1 16.069 1.9s5.225.58 7.045-.828l-2.612-1.407s-1.425-.331-4.037 1.241c0 0-6.333-3.062-10.132-3.476s-14.011 4.221-24.3 2.482c0 0-6.253-2.234-7.678-3.724l2.137-.249-3.325-1.076 2.374-.579-4.274-1.572 1.979-.745-4.2-1.076 2.454-.91-4.908-.993 2.375-.993-4.433-.91 2.3-1.241-4.354-.166s1.267-18.206 11.953-19.7 14.011 4.055 14.011 4.055-7.441-12.331-3.958-15.476 9.1-.5 9.1-.5-3.483-6.042-17.415-7.862c0 0-.95-1.572 3.641-.58 0 0-.554-2.317-9.5-1.241s-2.77-2.731.159-2.151c0 0-7.2-.662-10.053 3.393s-6.016 10.345-8.075 9.765c0 0-1.029-.662.871-1.9 0 0-2.454-.745-2.85 3.393a87.5 87.5 0 0 0 .317 11.917s1.267-.248.079 2.649-.316 0-.316 0-4.275-13.076-11.557-13.159c0 0-5.383-2.565-6.016-4.138l-2.771.083s-4.037-3.559-12.665-3.228l-3.562.249-2.849 1.655s10.845-1.738 11.794 1.407c0 0 1.663-.662 3.879 2.152s5.145 5.793 5.145 5.793-.554.993-1.9-.331.317 1.986 2.85 2.151c0 0 5.145 7.614 7.679 7.614 0 0-.079 6.786-2.85 9.269H292l1.5-1.738-3.087 1.49.792-1.655-2.454.662s.475-1.82 4.354-3.476l2.216-1.738-2.216.828-2.692.745-2.374 1.986-.554-.993 3.72-2.4 2.771-.91-2.85.331-2.216.579-1.979 1.572-2.3 2.069-1.663.331-4.013 4.09-.828-1.082.124 1.775z" transform="translate(371.453 233.903)"/></g></svg>