<svg xmlns="http://www.w3.org/2000/svg" width="40" height="40"><g data-name="Group 15595" transform="translate(-700 -450)"><rect data-name="Rectangle 18296" width="40" height="40" rx="20" transform="translate(700 450)" style="fill:#282d3d"/><path d="M24 12a12 12 0 1 0-12 12 12 12 0 0 0 12-12zM7 13h4V5h2v8h4l-5 6z" transform="translate(708 458)" style="fill:none"/><path d="M12 0A12 12 0 1 1 0 12 12.006 12.006 0 0 1 12 0zm2.085 14h-9v2h9v3l5-4-5-4v3zm-4-6V5l-5 4 5 4v-3h9V8h-9z" transform="rotate(-90 595 -113)" style="fill:#696c80;fill-rule:evenodd"/></g></svg>