<svg xmlns="http://www.w3.org/2000/svg" width="16" height="16"><path data-name="Path 11469" d="M10.78-7.061c0-1.268-.918-1.919-2.319-1.919a3.829 3.829 0 0 0-2.353.78l.167 1.068a3.446 3.446 0 0 1 2.069-.8c.767 0 1.2.334 1.2.918 0 .617-.417.968-1.6 1.4l-.334.117.133 1.518.784-.15.067-.734c1.218-.396 2.186-.997 2.186-2.198zm-2 5.306V-3.09H7.493v1.335zM.352-5.192a7.851 7.851 0 0 0 7.992 8.008 7.855 7.855 0 0 0 8.008-8.008 7.831 7.831 0 0 0-8.008-7.992A7.827 7.827 0 0 0 .352-5.192zm1.1 0a6.789 6.789 0 0 1 6.891-6.941 6.789 6.789 0 0 1 6.891 6.941 6.793 6.793 0 0 1-6.89 6.957 6.793 6.793 0 0 1-6.891-6.957z" transform="translate(-.352 13.184)" style="fill:#636780"/></svg>