<svg id="Layer_1" data-name="Layer 1" xmlns="http://www.w3.org/2000/svg" viewBox="0 0 1440 800"><defs><clipPath id="clip-path"><path style="fill:none" d="M0 0h1440v800H0z"/></clipPath><style>.cls-4,.cls-6{fill:#1c2938}.cls-6{opacity:.8;isolation:isolate}</style></defs><g style="opacity:.72"><g style="clip-path:url(#clip-path)"><path class="cls-4" d="M88.86 554.83h-1.79l48.22-29.22 43 23.67-29.15 5.54zm1.79-1H149l26.33-5-40-22.06z" id="Path_5891" data-name="Path 5891"/><path class="cls-4" d="m177.61 550.06-43.37-23.85 48.63-29.48-12.74 26.08zm-41.37-23.89L176 548.05l-7-25.34 11.42-23.36z" id="Path_5892" data-name="Path 5892"/><path class="cls-4" d="m200 532.24-31.13-9.17 12.47-25.5 18.46-1.71zm-29.71-9.79L199 530.9l-.19-33.9-16.81 1.52z" id="Path_5893" data-name="Path 5893"/><path class="cls-4" d="M176.53 549.88 168.87 522l31.71 9.34zm-6.22-26.39 6.79 24.69 21.32-16.41z" id="Path_5894" data-name="Path 5894"/><path class="cls-4" d="M199 532.12v-36.38l21.45 6.32-6.59 28.67zm1-35.05V531l13.05-1.22 6.21-27z" id="Path_5895" data-name="Path 5895"/><path class="cls-4" d="m118.84 536.12-16.41-32.08.01-.13 2.69-59.47 59.05 14.83.1.11 35.58 36.68-.72.69-35.48-36.58-57.59-14.46-2.63 58.11 16.29 31.85-.89.45z" id="Path_5896" data-name="Path 5896"/><path class="cls-4" d="m213.73 530.69-.54-.84 41.52-26.94-19.75-10.36-25.34-28.68-23.49 18.82-.62-.78 24.23-19.41 25.91 29.31 21.04 11.01-42.96 27.87z" id="Path_5897" data-name="Path 5897"/><path class="cls-4" transform="rotate(-14.98 217.581 492.856)" d="M217.15 462.14h1v61.67h-1z" id="Line_33" data-name="Line 33"/><path class="cls-4" d="m199.92 531.86-.83-.57 20.42-29.25 15.56-10.24.55.83-15.4 10.14-20.3 29.09z" id="Path_5898" data-name="Path 5898"/><path class="cls-4" d="M669.44 554.83H149.02v-1h516.49l-17.57-9.56-36.23-5.64-24.43-24.18-57.52-11.01-74.82 11.08-.18-.16-18.72-17.21-34.54-16.23-37.25 7.07-51.32-70.87-60.14-42.65-55.63 64.51-.07.04-32.9 21.12-.54-.84 32.84-21.08 56.13-65.09 61.07 43.34 51 70.42 36.94-7.02 35.02 16.49 18.61 17.1 74.52-11.03.08.01 57.91 11.09.11.1 24.3 24.06 36.09 5.62 21.17 11.52z" id="Path_5900" data-name="Path 5900"/><path class="cls-4" transform="rotate(-21.18 634.413 549.032)" d="M619.88 548.56h29.21v1h-29.21z" id="Line_34" data-name="Line 34"/><path class="cls-4" d="m567.23 544.31-32.26-18.03-5.53-22.55-32.46 20.16-41.71-9.35-11.23 12.15-22.68-.67-17.84-22.78.78-.61 17.56 22.4 21.76.65 11.31-12.25 41.87 9.4 33.29-20.68 5.74 23.47 31.6 17.66 44.45-5.62.13.99-44.78 5.66z" id="Path_5901" data-name="Path 5901"/><path class="cls-4" d="m526.76 555.1-26.12-16.36-26.81 16.21-6.38-5.51-24.07-22.99-.04-.14-7.4-29.01-31.83 6.1-21.18 14.12h-13.64l-23.74 13.13-9.52 13.06 11.86 10.24-.65.76-12.56-10.84 10.29-14.04 24.07-13.31h13.59l21.09-14.06.1-.02 32.86-6.3 7.6 29.78 23.85 22.78 5.8 5.01 26.72-16.14 25.55 15.99 8.73-27.77.95.31-9.12 29z" id="Path_5902" data-name="Path 5902"/><path class="cls-4" d="m263.97 498.21-.95-.33 16.86-47.53-27.11-74.89-12.8 47.09-42.65 16.4-.22 34.72-1-.01.22-35.4 42.82-16.47 13.5-49.65 28.3 78.2-.06.17-16.91 47.7z" id="Path_5903" data-name="Path 5903"/><path class="cls-4" d="m373.73 554.88-.2-.17-28.64-24.06-34.68-27.27-34.44-12.34-20.58 12.72v-30.34l-4.33-14.33-21.83-16.72-32.26-3.27.1-1 32.54 3.3 22.31 17.09 4.47 14.86v28.62l19.46-12.04 35.12 12.61 34.75 27.33 28.46 23.91 34.21-8.62 59.52 3.39 32.78-10.87 34.74-12.2 52.18-11.97.23.97-52.13 11.96-34.7 12.19-32.97 10.93-59.55-3.39-34.56 8.71z" id="Path_5904" data-name="Path 5904"/><path class="cls-4" d="m217.84 472.67-.37-.93 33.38-13.31 6.98-38.16-5.62-46.41.99-.12 5.65 46.56-7.11 38.86-33.9 13.51z" id="Path_5905" data-name="Path 5905"/><path class="cls-4" d="M1353.29 554.83h-61.94l-29.25-5.55 43-23.67zm-88.28-6 26.43 5h58.27l-44.65-27.07z" id="Path_5906" data-name="Path 5906"/><path class="cls-4" d="m1262.76 550.06 7.48-27.25-12.74-26.08 48.63 29.48zm-2.87-50.71 11.42 23.36-7 25.33 39.78-21.87z" id="Path_5907" data-name="Path 5907"/><path class="cls-4" d="m1240.36 532.24.2-36.38 18.46 1.71 12.46 25.5zm1.19-35.29-.18 33.95 28.7-8.45-11.7-23.94z" id="Path_5908" data-name="Path 5908"/><path class="cls-4" d="m1263.84 549.88-24.06-18.51 31.71-9.34zM1242 531.77l21.32 16.41 6.78-24.69z" id="Path_5909" data-name="Path 5909"/><path class="cls-4" d="m1241.36 532.12-14.86-1.39-6.59-28.67 21.45-6.32zm-14-2.32 13 1.22v-33.95l-19.26 5.68z" id="Path_5910" data-name="Path 5910"/><path class="cls-4" d="m1321.53 536.12-.89-.45 16.28-31.85-2.62-58.11-57.6 14.46-35.48 36.58-.71-.69 35.67-36.79 59.06-14.83 2.7 59.6-.06.12-16.35 31.96z" id="Path_5911" data-name="Path 5911"/><path class="cls-4" d="m1226.63 530.68-42.95-27.86 21.03-11.01 25.92-29.32 24.23 19.41-.63.78-23.49-18.81-25.4 28.74-19.68 10.3 41.52 26.93-.55.84z" id="Path_5912" data-name="Path 5912"/><path class="cls-4" transform="rotate(-75.04 1222.743 492.967)" d="M1191.88 492.47h61.67v1h-61.67z" id="Line_35" data-name="Line 35"/><path class="cls-4" d="m1240.45 531.86-20.3-29.09-15.4-10.14.55-.83 15.61 10.32 20.36 29.16-.82.58z" id="Path_5913" data-name="Path 5913"/><path class="cls-4" d="M1291.35 554.83H770.93l21.26-11.53 35.99-5.61 24.42-24.16.15-.03 57.84-11.07 74.51 11.03 18.73-17.18 34.9-16.4 36.95 7.01 51.04-70.49 61.02-43.27 56.13 65.09 32.84 21.08-.54.84-33.01-21.21-55.58-64.46-60.14 42.65-51.32 70.87-37.26-7.07-34.53 16.23-18.9 17.37-74.82-11.07-57.53 11.01-24.42 24.17-36.23 5.64-17.57 9.56h516.49v1z" id="Path_5915" data-name="Path 5915"/><path class="cls-4" transform="rotate(-68.84 805.946 549.06)" d="M805.38 534.46h1v29.2h-1z" id="Line_36" data-name="Line 36"/><path class="cls-4" d="m873.13 544.31-44.77-5.66.12-.99 44.45 5.61 31.6-17.66 5.75-23.47 33.28 20.69 41.88-9.39 11.31 12.24 21.76-.65 17.55-22.4.79.61-17.85 22.78-22.68.67-11.22-12.15-41.72 9.35-32.46-20.17-5.52 22.55-32.27 18.04z" id="Path_5916" data-name="Path 5916"/><path class="cls-4" d="m913.61 555.1-9.12-29.01.95-.3 8.73 27.77 25.54-15.99 26.73 16.14 5.82-5.03 23.83-22.76 7.59-29.78 33.05 6.38 21 14h13.6l24.23 13.45 10.13 13.9-12.56 10.84-.65-.76 11.86-10.24-9.53-13.06-23.74-13.13h-13.64l-21.17-14.11-31.84-6.11-7.43 29.15-24.06 22.97-6.39 5.53-26.82-16.21-26.11 16.36z" id="Path_5917" data-name="Path 5917"/><path class="cls-4" d="m1176.4 498.21-16.97-47.87.06-.17 28.24-78.03 13.49 49.65 42.82 16.47.22 35.4h-1l-.22-34.72-42.65-16.4-12.8-47.09-27.1 74.89 16.86 47.53-.95.34z" id="Path_5918" data-name="Path 5918"/><path class="cls-4" d="m1066.64 554.88-34.56-8.71-59.55 3.39-32.97-10.93-34.76-12.21-52.06-11.94.22-.98 52.12 11.96 34.81 12.22 32.77 10.87 59.51-3.39 34.22 8.62 28.45-23.9 34.82-27.39 35.06-12.56 19.45 12.04.02-28.77 4.45-14.71 22.31-17.09 32.54-3.3.1 1-32.25 3.27-21.83 16.72-4.34 14.33v30.34l-20.57-12.72-34.45 12.34-34.68 27.28-28.83 24.22z" id="Path_5919" data-name="Path 5919"/><path class="cls-4" d="m1222.53 472.67-33.9-13.52-7.11-38.85.01-.07 5.64-46.49.99.12-5.63 46.41 6.98 38.16 33.39 13.31-.37.93z" id="Path_5920" data-name="Path 5920"/><path class="cls-4" transform="rotate(-16.45 48.874 620.282)" d="M-180.64 619.67h458.96v1h-458.96z" id="Line_37" data-name="Line 37"/><path class="cls-4" transform="rotate(-22.5 240.609 620.109)" d="M70.55 619.67h340.22v1H70.55z" id="Line_38" data-name="Line 38"/><path class="cls-4" transform="rotate(-34.53 432.448 620.15)" d="M317.93 619.67h229.09v1H317.93z" id="Line_39" data-name="Line 39"/><path class="cls-4" transform="rotate(-64.19 624.227 620.15)" d="M552.1 619.67h144.39v1H552.1z" id="Line_40" data-name="Line 40"/><path class="cls-4" transform="rotate(-25.82 815.995 620.104)" d="M815.61 547.97h1v144.39h-1z" id="Line_41" data-name="Line 41"/><path class="cls-4" transform="rotate(-55.43 1007.978 620.17)" d="M1007.43 505.63h1v229.09h-1z" id="Line_42" data-name="Line 42"/><path class="cls-4" transform="rotate(-67.54 1199.732 620.17)" d="M1199.25 450.06h1v340.22h-1z" id="Line_43" data-name="Line 43"/><path class="cls-4" transform="rotate(-73.55 1391.533 620.177)" d="M1391.07 390.69h1v458.96h-1z" id="Line_44" data-name="Line 44"/><path class="cls-4" d="M-48.23 605.27h1580.34v1H-48.23z" id="Line_46" data-name="Line 46"/><path class="cls-4" d="M-48.23 554.27h1580.34v1H-48.23z" id="Line_51" data-name="Line 51"/></g></g><g style="opacity:.7"><path id="path60" class="cls-6" d="M1246 161.73a38.83 38.83 0 0 1-9.07-2.77 15.05 15.05 0 0 0-3-1.56 2.4 2.4 0 0 0-.4-.06 7.18 7.18 0 0 0 .46-3 3.43 3.43 0 0 0-.99-2.34 1.53 1.53 0 0 0-2.17 0 4.82 4.82 0 0 0-2.91-5.27 4.87 4.87 0 0 0-5.62 2.26 5.16 5.16 0 0 0 .38-3.19 2.23 2.23 0 0 0-2.44-1.68 3.15 3.15 0 0 0-1.27-1.54c-.61-.29-1.68-.08-1.71.59a1.68 1.68 0 0 0-1.23-1.5 1.48 1.48 0 0 0-1.58.89 8.72 8.72 0 0 0-2.06-3.57 4.78 4.78 0 0 0-3.75-1.46 3.36 3.36 0 0 0-3 2.51 1.31 1.31 0 0 0-1.3 0c-.38.25-.3.66-.27 1.12a6.55 6.55 0 0 0-6 2.2 6.62 6.62 0 0 0-1.12 6.35 2.8 2.8 0 0 0-4.36 1.68 1.22 1.22 0 0 0-1.24-.89c-.56.05-.87.19-.9.74a8.82 8.82 0 0 0-10-3.37 8.72 8.72 0 0 0-5.58 8.82 5.77 5.77 0 0 0-8 1.87 2.35 2.35 0 0 0-.29 2.34 2.57 2.57 0 0 0-3.1.37c-1.9-.77-2.23-.29-4.1.55a17.53 17.53 0 0 1-7.57 1.27h6.09c6.65 0 9.65 1.73 13.8.65a32.17 32.17 0 0 0 17.41-.15 6.8 6.8 0 0 0 6.06 0 27.52 27.52 0 0 0 14.13-.3 3.71 3.71 0 0 0 3.28-.09 18.14 18.14 0 0 0 10.27.36 6.64 6.64 0 0 0 5.94-.1 18.17 18.17 0 0 0 9.65.05 8 8 0 0 0 4.5-.05 11.63 11.63 0 0 1 2.27-.41h18.28c-5.86-.23-11.72-.65-17.55-1.33"/><path id="path60-2" d="M587.21 446.73a37.9 37.9 0 0 1-9.07-2.77 15.58 15.58 0 0 0-3-1.56 2.4 2.4 0 0 0-.4-.06 7.16 7.16 0 0 0 .46-3 3.39 3.39 0 0 0-.91-2.32 1.53 1.53 0 0 0-2.17 0 4.56 4.56 0 0 0-8.54-3 5.08 5.08 0 0 0 .38-3.19 2.23 2.23 0 0 0-2.44-1.68 3.15 3.15 0 0 0-1.27-1.54c-.61-.29-1.68-.08-1.71.59a1.68 1.68 0 0 0-1.23-1.5 1.48 1.48 0 0 0-1.58.89 8.72 8.72 0 0 0-2.06-3.57 4.78 4.78 0 0 0-3.75-1.46 3.35 3.35 0 0 0-3 2.51 1.29 1.29 0 0 0-1.3 0c-.39.24-.3.65-.28 1.11a6.43 6.43 0 0 0-7.15 8.55 2.81 2.81 0 0 0-4.37 1.68 1.22 1.22 0 0 0-1.24-.89c-.55 0-.87.19-.9.74a8.82 8.82 0 0 0-10-3.37 8.7 8.7 0 0 0-5.57 8.82 5.8 5.8 0 0 0-8 1.87 2.41 2.41 0 0 0-.29 2.35 2.55 2.55 0 0 0-3.1.36c-1.9-.77-2.23-.29-4.1.55a17.53 17.53 0 0 1-7.57 1.27h6.09c6.65 0 9.65 1.73 13.8.65a32.08 32.08 0 0 0 17.41-.15 6.8 6.8 0 0 0 6.06 0 27.52 27.52 0 0 0 14.13-.3 3.71 3.71 0 0 0 3.28-.09 18.14 18.14 0 0 0 10.27.36 6.64 6.64 0 0 0 5.94-.1 18.17 18.17 0 0 0 9.65 0 8 8 0 0 0 4.5 0 10.91 10.91 0 0 1 2.27-.4h18.28c-5.86-.24-11.72-.66-17.55-1.34" style="opacity:.6;isolation:isolate;fill:#1c2938"/><path id="path60-3" class="cls-6" d="M311.67 152.34c-2-.33-8.93-1.86-13-4-1.14-.6-3.1-2-4.37-2.25l-.57-.08a10.47 10.47 0 0 0 .67-4.36 4.93 4.93 0 0 0-1.32-3.34 2.2 2.2 0 0 0-3.12-.06 6.92 6.92 0 0 0-4.19-7.57c-2.92-1.12-6.48.55-8.07 3.25a7.3 7.3 0 0 0 .54-4.58 3.2 3.2 0 0 0-3.5-2.42 4.51 4.51 0 0 0-1.82-2.2c-.88-.41-2.42-.12-2.46.85a2.4 2.4 0 0 0-1.76-2.16 2.13 2.13 0 0 0-2.27 1.27 12.49 12.49 0 0 0-3-5.12 6.89 6.89 0 0 0-5.39-2.1 4.82 4.82 0 0 0-4.25 3.6 1.87 1.87 0 0 0-1.86.07c-.56.35-.43 1-.4 1.6a9.25 9.25 0 0 0-10.28 12.29 4 4 0 0 0-6.26 2.41 1.75 1.75 0 0 0-1.79-1.27c-.79.07-1.24.27-1.3 1.06a12.65 12.65 0 0 0-14.28-4.84 12.51 12.51 0 0 0-8 12.66 8.3 8.3 0 0 0-11.52 2.68 3.38 3.38 0 0 0-.41 3.37 3.71 3.71 0 0 0-4.47.52c-2.73-1.1-3.2-.41-5.88.8a25.3 25.3 0 0 1-10.88 1.82h8.75c9.56 0 13.86 2.48 19.82.94a46.15 46.15 0 0 0 25-.22 9.81 9.81 0 0 0 8.71 0 39.44 39.44 0 0 0 20.29-.43 5.34 5.34 0 0 0 4.71-.12 26 26 0 0 0 14.75.51 9.58 9.58 0 0 0 8.54-.14 26 26 0 0 0 13.85.07 11.54 11.54 0 0 0 6.46-.07 15.07 15.07 0 0 1 3.26-.58h26.25c-8.41-.34-16.83-.94-25.2-1.93"/></g></svg>