<svg xmlns="http://www.w3.org/2000/svg" width="36" height="36"><defs><style>.cls-3{fill:#b6b9cc}</style></defs><g id="Group_15425" data-name="Group 15425" transform="translate(0 .129)"><rect id="Rectangle_18234" data-name="Rectangle 18234" width="36" height="36" rx="16" transform="translate(0 -.129)" style="fill:none"/><g id="Layer_2" data-name="Layer 2" transform="translate(7 7)"><g id="sun"><path id="Path_11367" data-name="Path 11367" class="cls-3" d="M11.917 5.667a.917.917 0 0 0 .917-.917V2.917a.917.917 0 1 0-1.833 0V4.75a.917.917 0 0 0 .916.917z" transform="translate(-.917 -.167)"/><path id="Path_11368" data-name="Path 11368" class="cls-3" d="M20.75 11h-1.833a.917.917 0 1 0 0 1.833h1.833a.917.917 0 1 0 0-1.833z" transform="translate(-1.5 -.917)"/><path id="Path_11369" data-name="Path 11369" class="cls-3" d="M5.667 11.917A.917.917 0 0 0 4.75 11H2.917a.917.917 0 1 0 0 1.833H4.75a.917.917 0 0 0 .917-.916z" transform="translate(-.167 -.917)"/><path id="Path_11370" data-name="Path 11370" class="cls-3" d="M6.078 4.977A.927.927 0 0 0 4.8 6.324L6.124 7.6a.937.937 0 0 0 1.329-1.32z" transform="translate(-.376 -.394)"/><path id="Path_11371" data-name="Path 11371" class="cls-3" d="M16.921 7.86a.917.917 0 0 0 .633-.257l1.32-1.274a.917.917 0 0 0-1.237-1.348l-1.32 1.3a.933.933 0 0 0 .605 1.577z" transform="translate(-1.337 -.398)"/><path id="Path_11372" data-name="Path 11372" class="cls-3" d="M11.917 18a.917.917 0 0 0-.917.917v1.833a.917.917 0 1 0 1.833 0v-1.833a.917.917 0 0 0-.916-.917z" transform="translate(-.917 -1.5)"/><path id="Path_11373" data-name="Path 11373" class="cls-3" d="M17.589 16.117a.917.917 0 1 0-1.274 1.32l1.32 1.3a.924.924 0 0 0 1.292-1.32z" transform="translate(-1.336 -1.322)"/><path id="Path_11374" data-name="Path 11374" class="cls-3" d="m6.125 16.119-1.32 1.274a.928.928 0 0 0 1.275 1.348l1.32-1.274a.917.917 0 0 0-1.274-1.32z" transform="translate(-.378 -1.324)"/><path id="Path_11375" data-name="Path 11375" class="cls-3" d="M11.667 8a3.667 3.667 0 1 0 3.667 3.667A3.667 3.667 0 0 0 11.667 8z" transform="translate(-.667 -.667)"/></g></g></g></svg>