<svg xmlns="http://www.w3.org/2000/svg" width="281.428" height="82.917"><defs><clipPath id="clip-path"><path style="fill:none" d="M68 49h57.983v27.025H68z"/></clipPath><style>.cls-2{fill:#252833}</style></defs><g id="Group_17064" data-name="Group 17064" transform="translate(-576 -371.646)"><path id="Path_11504" data-name="Path 11504" class="cls-2" d="M27.91 87.568h.407c0-9.452 5.606-17.16 12.484-17.16v-.391c-6.894 0-12.484-7.708-12.484-17.176h-.407c0 9.468-5.606 17.176-12.5 17.176v.391c6.91 0 12.5 7.708 12.5 17.16z" transform="translate(560.59 353.16)"/><g id="Scroll_Group_7" data-name="Scroll Group 7" transform="translate(662.017 378.538)" style="isolation:isolate;clip-path:url(#clip-path)"><g id="Group_16719" data-name="Group 16719" transform="translate(-464 -1209)"><g id="Group_16710" data-name="Group 16710" transform="translate(0 72)"><circle id="Ellipse_651" data-name="Ellipse 651" class="cls-2" cx="2" cy="2" r="2" transform="translate(608 1209)"/><circle id="Ellipse_652" data-name="Ellipse 652" class="cls-2" cx="2" cy="2" r="2" transform="translate(599 1209)"/><circle id="Ellipse_653" data-name="Ellipse 653" class="cls-2" cx="2" cy="2" r="2" transform="translate(590 1209)"/><circle id="Ellipse_654" data-name="Ellipse 654" class="cls-2" cx="2" cy="2" r="2" transform="translate(581 1209)"/><circle id="Ellipse_655" data-name="Ellipse 655" class="cls-2" cx="2" cy="2" r="2" transform="translate(572 1209)"/><circle id="Ellipse_656" data-name="Ellipse 656" class="cls-2" cx="2" cy="2" r="2" transform="translate(563 1209)"/><circle id="Ellipse_657" data-name="Ellipse 657" class="cls-2" cx="2" cy="2" r="2" transform="translate(554 1209)"/><circle id="Ellipse_658" data-name="Ellipse 658" class="cls-2" cx="2" cy="2" r="2" transform="translate(545 1209)"/><circle id="Ellipse_659" data-name="Ellipse 659" class="cls-2" cx="2" cy="2" r="2" transform="translate(536 1209)"/><circle id="Ellipse_660" data-name="Ellipse 660" class="cls-2" cx="2" cy="2" r="2" transform="translate(527 1209)"/><circle id="Ellipse_661" data-name="Ellipse 661" class="cls-2" cx="2" cy="2" r="2" transform="translate(518 1209)"/><circle id="Ellipse_662" data-name="Ellipse 662" class="cls-2" cx="2" cy="2" r="2" transform="translate(509 1209)"/><circle id="Ellipse_663" data-name="Ellipse 663" class="cls-2" cx="2" cy="2" r="2" transform="translate(500 1209)"/><circle id="Ellipse_664" data-name="Ellipse 664" class="cls-2" cx="2" cy="2" r="2" transform="translate(491 1209)"/><circle id="Ellipse_665" data-name="Ellipse 665" class="cls-2" cx="2" cy="2" r="2" transform="translate(482 1209)"/><circle id="Ellipse_666" data-name="Ellipse 666" class="cls-2" cx="2" cy="2" r="2" transform="translate(473 1209)"/><circle id="Ellipse_667" data-name="Ellipse 667" class="cls-2" cx="2" cy="2" r="2" transform="translate(464 1209)"/></g><g id="Group_16711" data-name="Group 16711" transform="translate(0 63)"><circle id="Ellipse_668" data-name="Ellipse 668" class="cls-2" cx="2" cy="2" r="2" transform="translate(608 1209)"/><circle id="Ellipse_669" data-name="Ellipse 669" class="cls-2" cx="2" cy="2" r="2" transform="translate(599 1209)"/><circle id="Ellipse_670" data-name="Ellipse 670" class="cls-2" cx="2" cy="2" r="2" transform="translate(590 1209)"/><circle id="Ellipse_671" data-name="Ellipse 671" class="cls-2" cx="2" cy="2" r="2" transform="translate(581 1209)"/><circle id="Ellipse_672" data-name="Ellipse 672" class="cls-2" cx="2" cy="2" r="2" transform="translate(572 1209)"/><circle id="Ellipse_673" data-name="Ellipse 673" class="cls-2" cx="2" cy="2" r="2" transform="translate(563 1209)"/><circle id="Ellipse_674" data-name="Ellipse 674" class="cls-2" cx="2" cy="2" r="2" transform="translate(554 1209)"/><circle id="Ellipse_675" data-name="Ellipse 675" class="cls-2" cx="2" cy="2" r="2" transform="translate(545 1209)"/><circle id="Ellipse_676" data-name="Ellipse 676" class="cls-2" cx="2" cy="2" r="2" transform="translate(536 1209)"/><circle id="Ellipse_677" data-name="Ellipse 677" class="cls-2" cx="2" cy="2" r="2" transform="translate(527 1209)"/><circle id="Ellipse_678" data-name="Ellipse 678" class="cls-2" cx="2" cy="2" r="2" transform="translate(518 1209)"/><circle id="Ellipse_679" data-name="Ellipse 679" class="cls-2" cx="2" cy="2" r="2" transform="translate(509 1209)"/><circle id="Ellipse_680" data-name="Ellipse 680" class="cls-2" cx="2" cy="2" r="2" transform="translate(500 1209)"/><circle id="Ellipse_681" data-name="Ellipse 681" class="cls-2" cx="2" cy="2" r="2" transform="translate(491 1209)"/><circle id="Ellipse_682" data-name="Ellipse 682" class="cls-2" cx="2" cy="2" r="2" transform="translate(482 1209)"/><circle id="Ellipse_683" data-name="Ellipse 683" class="cls-2" cx="2" cy="2" r="2" transform="translate(473 1209)"/><circle id="Ellipse_684" data-name="Ellipse 684" class="cls-2" cx="2" cy="2" r="2" transform="translate(464 1209)"/></g><g id="Group_16712" data-name="Group 16712" transform="translate(0 54)"><circle id="Ellipse_685" data-name="Ellipse 685" class="cls-2" cx="2" cy="2" r="2" transform="translate(608 1209)"/><circle id="Ellipse_686" data-name="Ellipse 686" class="cls-2" cx="2" cy="2" r="2" transform="translate(599 1209)"/><circle id="Ellipse_687" data-name="Ellipse 687" class="cls-2" cx="2" cy="2" r="2" transform="translate(590 1209)"/><circle id="Ellipse_688" data-name="Ellipse 688" class="cls-2" cx="2" cy="2" r="2" transform="translate(581 1209)"/><circle id="Ellipse_689" data-name="Ellipse 689" class="cls-2" cx="2" cy="2" r="2" transform="translate(572 1209)"/><circle id="Ellipse_690" data-name="Ellipse 690" class="cls-2" cx="2" cy="2" r="2" transform="translate(563 1209)"/><circle id="Ellipse_691" data-name="Ellipse 691" class="cls-2" cx="2" cy="2" r="2" transform="translate(554 1209)"/><circle id="Ellipse_692" data-name="Ellipse 692" class="cls-2" cx="2" cy="2" r="2" transform="translate(545 1209)"/><circle id="Ellipse_693" data-name="Ellipse 693" class="cls-2" cx="2" cy="2" r="2" transform="translate(536 1209)"/><circle id="Ellipse_694" data-name="Ellipse 694" class="cls-2" cx="2" cy="2" r="2" transform="translate(527 1209)"/><circle id="Ellipse_695" data-name="Ellipse 695" class="cls-2" cx="2" cy="2" r="2" transform="translate(518 1209)"/><circle id="Ellipse_696" data-name="Ellipse 696" class="cls-2" cx="2" cy="2" r="2" transform="translate(509 1209)"/><circle id="Ellipse_697" data-name="Ellipse 697" class="cls-2" cx="2" cy="2" r="2" transform="translate(500 1209)"/><circle id="Ellipse_698" data-name="Ellipse 698" class="cls-2" cx="2" cy="2" r="2" transform="translate(491 1209)"/><circle id="Ellipse_699" data-name="Ellipse 699" class="cls-2" cx="2" cy="2" r="2" transform="translate(482 1209)"/><circle id="Ellipse_700" data-name="Ellipse 700" class="cls-2" cx="2" cy="2" r="2" transform="translate(473 1209)"/><circle id="Ellipse_701" data-name="Ellipse 701" class="cls-2" cx="2" cy="2" r="2" transform="translate(464 1209)"/></g><g id="Group_16713" data-name="Group 16713" transform="translate(0 45)"><circle id="Ellipse_702" data-name="Ellipse 702" class="cls-2" cx="2" cy="2" r="2" transform="translate(608 1209)"/><circle id="Ellipse_703" data-name="Ellipse 703" class="cls-2" cx="2" cy="2" r="2" transform="translate(599 1209)"/><circle id="Ellipse_704" data-name="Ellipse 704" class="cls-2" cx="2" cy="2" r="2" transform="translate(590 1209)"/><circle id="Ellipse_705" data-name="Ellipse 705" class="cls-2" cx="2" cy="2" r="2" transform="translate(581 1209)"/><circle id="Ellipse_706" data-name="Ellipse 706" class="cls-2" cx="2" cy="2" r="2" transform="translate(572 1209)"/><circle id="Ellipse_707" data-name="Ellipse 707" class="cls-2" cx="2" cy="2" r="2" transform="translate(563 1209)"/><circle id="Ellipse_708" data-name="Ellipse 708" class="cls-2" cx="2" cy="2" r="2" transform="translate(554 1209)"/><circle id="Ellipse_709" data-name="Ellipse 709" class="cls-2" cx="2" cy="2" r="2" transform="translate(545 1209)"/><circle id="Ellipse_710" data-name="Ellipse 710" class="cls-2" cx="2" cy="2" r="2" transform="translate(536 1209)"/><circle id="Ellipse_711" data-name="Ellipse 711" class="cls-2" cx="2" cy="2" r="2" transform="translate(527 1209)"/><circle id="Ellipse_712" data-name="Ellipse 712" class="cls-2" cx="2" cy="2" r="2" transform="translate(518 1209)"/><circle id="Ellipse_713" data-name="Ellipse 713" class="cls-2" cx="2" cy="2" r="2" transform="translate(509 1209)"/><circle id="Ellipse_714" data-name="Ellipse 714" class="cls-2" cx="2" cy="2" r="2" transform="translate(500 1209)"/><circle id="Ellipse_715" data-name="Ellipse 715" class="cls-2" cx="2" cy="2" r="2" transform="translate(491 1209)"/><circle id="Ellipse_716" data-name="Ellipse 716" class="cls-2" cx="2" cy="2" r="2" transform="translate(482 1209)"/><circle id="Ellipse_717" data-name="Ellipse 717" class="cls-2" cx="2" cy="2" r="2" transform="translate(473 1209)"/><circle id="Ellipse_718" data-name="Ellipse 718" class="cls-2" cx="2" cy="2" r="2" transform="translate(464 1209)"/></g><g id="Group_16714" data-name="Group 16714" transform="translate(0 36)"><circle id="Ellipse_719" data-name="Ellipse 719" class="cls-2" cx="2" cy="2" r="2" transform="translate(608 1209)"/><circle id="Ellipse_720" data-name="Ellipse 720" class="cls-2" cx="2" cy="2" r="2" transform="translate(599 1209)"/><circle id="Ellipse_721" data-name="Ellipse 721" class="cls-2" cx="2" cy="2" r="2" transform="translate(590 1209)"/><circle id="Ellipse_722" data-name="Ellipse 722" class="cls-2" cx="2" cy="2" r="2" transform="translate(581 1209)"/><circle id="Ellipse_723" data-name="Ellipse 723" class="cls-2" cx="2" cy="2" r="2" transform="translate(572 1209)"/><circle id="Ellipse_724" data-name="Ellipse 724" class="cls-2" cx="2" cy="2" r="2" transform="translate(563 1209)"/><circle id="Ellipse_725" data-name="Ellipse 725" class="cls-2" cx="2" cy="2" r="2" transform="translate(554 1209)"/><circle id="Ellipse_726" data-name="Ellipse 726" class="cls-2" cx="2" cy="2" r="2" transform="translate(545 1209)"/><circle id="Ellipse_727" data-name="Ellipse 727" class="cls-2" cx="2" cy="2" r="2" transform="translate(536 1209)"/><circle id="Ellipse_728" data-name="Ellipse 728" class="cls-2" cx="2" cy="2" r="2" transform="translate(527 1209)"/><circle id="Ellipse_729" data-name="Ellipse 729" class="cls-2" cx="2" cy="2" r="2" transform="translate(518 1209)"/><circle id="Ellipse_730" data-name="Ellipse 730" class="cls-2" cx="2" cy="2" r="2" transform="translate(509 1209)"/><circle id="Ellipse_731" data-name="Ellipse 731" class="cls-2" cx="2" cy="2" r="2" transform="translate(500 1209)"/><circle id="Ellipse_732" data-name="Ellipse 732" class="cls-2" cx="2" cy="2" r="2" transform="translate(491 1209)"/><circle id="Ellipse_733" data-name="Ellipse 733" class="cls-2" cx="2" cy="2" r="2" transform="translate(482 1209)"/><circle id="Ellipse_734" data-name="Ellipse 734" class="cls-2" cx="2" cy="2" r="2" transform="translate(473 1209)"/><circle id="Ellipse_735" data-name="Ellipse 735" class="cls-2" cx="2" cy="2" r="2" transform="translate(464 1209)"/></g><g id="Group_16715" data-name="Group 16715" transform="translate(0 27)"><circle id="Ellipse_736" data-name="Ellipse 736" class="cls-2" cx="2" cy="2" r="2" transform="translate(608 1209)"/><circle id="Ellipse_737" data-name="Ellipse 737" class="cls-2" cx="2" cy="2" r="2" transform="translate(599 1209)"/><circle id="Ellipse_738" data-name="Ellipse 738" class="cls-2" cx="2" cy="2" r="2" transform="translate(590 1209)"/><circle id="Ellipse_739" data-name="Ellipse 739" class="cls-2" cx="2" cy="2" r="2" transform="translate(581 1209)"/><circle id="Ellipse_740" data-name="Ellipse 740" class="cls-2" cx="2" cy="2" r="2" transform="translate(572 1209)"/><circle id="Ellipse_741" data-name="Ellipse 741" class="cls-2" cx="2" cy="2" r="2" transform="translate(563 1209)"/><circle id="Ellipse_742" data-name="Ellipse 742" class="cls-2" cx="2" cy="2" r="2" transform="translate(554 1209)"/><circle id="Ellipse_743" data-name="Ellipse 743" class="cls-2" cx="2" cy="2" r="2" transform="translate(545 1209)"/><circle id="Ellipse_744" data-name="Ellipse 744" class="cls-2" cx="2" cy="2" r="2" transform="translate(536 1209)"/><circle id="Ellipse_745" data-name="Ellipse 745" class="cls-2" cx="2" cy="2" r="2" transform="translate(527 1209)"/><circle id="Ellipse_746" data-name="Ellipse 746" class="cls-2" cx="2" cy="2" r="2" transform="translate(518 1209)"/><circle id="Ellipse_747" data-name="Ellipse 747" class="cls-2" cx="2" cy="2" r="2" transform="translate(509 1209)"/><circle id="Ellipse_748" data-name="Ellipse 748" class="cls-2" cx="2" cy="2" r="2" transform="translate(500 1209)"/><circle id="Ellipse_749" data-name="Ellipse 749" class="cls-2" cx="2" cy="2" r="2" transform="translate(491 1209)"/><circle id="Ellipse_750" data-name="Ellipse 750" class="cls-2" cx="2" cy="2" r="2" transform="translate(482 1209)"/><circle id="Ellipse_751" data-name="Ellipse 751" class="cls-2" cx="2" cy="2" r="2" transform="translate(473 1209)"/><circle id="Ellipse_752" data-name="Ellipse 752" class="cls-2" cx="2" cy="2" r="2" transform="translate(464 1209)"/></g><g id="Group_16716" data-name="Group 16716" transform="translate(0 18)"><circle id="Ellipse_753" data-name="Ellipse 753" class="cls-2" cx="2" cy="2" r="2" transform="translate(608 1209)"/><circle id="Ellipse_754" data-name="Ellipse 754" class="cls-2" cx="2" cy="2" r="2" transform="translate(599 1209)"/><circle id="Ellipse_755" data-name="Ellipse 755" class="cls-2" cx="2" cy="2" r="2" transform="translate(590 1209)"/><circle id="Ellipse_756" data-name="Ellipse 756" class="cls-2" cx="2" cy="2" r="2" transform="translate(581 1209)"/><circle id="Ellipse_757" data-name="Ellipse 757" class="cls-2" cx="2" cy="2" r="2" transform="translate(572 1209)"/><circle id="Ellipse_758" data-name="Ellipse 758" class="cls-2" cx="2" cy="2" r="2" transform="translate(563 1209)"/><circle id="Ellipse_759" data-name="Ellipse 759" class="cls-2" cx="2" cy="2" r="2" transform="translate(554 1209)"/><circle id="Ellipse_760" data-name="Ellipse 760" class="cls-2" cx="2" cy="2" r="2" transform="translate(545 1209)"/><circle id="Ellipse_761" data-name="Ellipse 761" class="cls-2" cx="2" cy="2" r="2" transform="translate(536 1209)"/><circle id="Ellipse_762" data-name="Ellipse 762" class="cls-2" cx="2" cy="2" r="2" transform="translate(527 1209)"/><circle id="Ellipse_763" data-name="Ellipse 763" class="cls-2" cx="2" cy="2" r="2" transform="translate(518 1209)"/><circle id="Ellipse_764" data-name="Ellipse 764" class="cls-2" cx="2" cy="2" r="2" transform="translate(509 1209)"/><circle id="Ellipse_765" data-name="Ellipse 765" class="cls-2" cx="2" cy="2" r="2" transform="translate(500 1209)"/><circle id="Ellipse_766" data-name="Ellipse 766" class="cls-2" cx="2" cy="2" r="2" transform="translate(491 1209)"/><circle id="Ellipse_767" data-name="Ellipse 767" class="cls-2" cx="2" cy="2" r="2" transform="translate(482 1209)"/><circle id="Ellipse_768" data-name="Ellipse 768" class="cls-2" cx="2" cy="2" r="2" transform="translate(473 1209)"/><circle id="Ellipse_769" data-name="Ellipse 769" class="cls-2" cx="2" cy="2" r="2" transform="translate(464 1209)"/></g><g id="Group_16717" data-name="Group 16717" transform="translate(0 9)"><circle id="Ellipse_770" data-name="Ellipse 770" class="cls-2" cx="2" cy="2" r="2" transform="translate(608 1209)"/><circle id="Ellipse_771" data-name="Ellipse 771" class="cls-2" cx="2" cy="2" r="2" transform="translate(599 1209)"/><circle id="Ellipse_772" data-name="Ellipse 772" class="cls-2" cx="2" cy="2" r="2" transform="translate(590 1209)"/><circle id="Ellipse_773" data-name="Ellipse 773" class="cls-2" cx="2" cy="2" r="2" transform="translate(581 1209)"/><circle id="Ellipse_774" data-name="Ellipse 774" class="cls-2" cx="2" cy="2" r="2" transform="translate(572 1209)"/><circle id="Ellipse_775" data-name="Ellipse 775" class="cls-2" cx="2" cy="2" r="2" transform="translate(563 1209)"/><circle id="Ellipse_776" data-name="Ellipse 776" class="cls-2" cx="2" cy="2" r="2" transform="translate(554 1209)"/><circle id="Ellipse_777" data-name="Ellipse 777" class="cls-2" cx="2" cy="2" r="2" transform="translate(545 1209)"/><circle id="Ellipse_778" data-name="Ellipse 778" class="cls-2" cx="2" cy="2" r="2" transform="translate(536 1209)"/><circle id="Ellipse_779" data-name="Ellipse 779" class="cls-2" cx="2" cy="2" r="2" transform="translate(527 1209)"/><circle id="Ellipse_780" data-name="Ellipse 780" class="cls-2" cx="2" cy="2" r="2" transform="translate(518 1209)"/><circle id="Ellipse_781" data-name="Ellipse 781" class="cls-2" cx="2" cy="2" r="2" transform="translate(509 1209)"/><circle id="Ellipse_782" data-name="Ellipse 782" class="cls-2" cx="2" cy="2" r="2" transform="translate(500 1209)"/><circle id="Ellipse_783" data-name="Ellipse 783" class="cls-2" cx="2" cy="2" r="2" transform="translate(491 1209)"/><circle id="Ellipse_784" data-name="Ellipse 784" class="cls-2" cx="2" cy="2" r="2" transform="translate(482 1209)"/><circle id="Ellipse_785" data-name="Ellipse 785" class="cls-2" cx="2" cy="2" r="2" transform="translate(473 1209)"/><circle id="Ellipse_786" data-name="Ellipse 786" class="cls-2" cx="2" cy="2" r="2" transform="translate(464 1209)"/></g><g id="Group_16718" data-name="Group 16718"><circle id="Ellipse_787" data-name="Ellipse 787" class="cls-2" cx="2" cy="2" r="2" transform="translate(608 1209)"/><circle id="Ellipse_788" data-name="Ellipse 788" class="cls-2" cx="2" cy="2" r="2" transform="translate(599 1209)"/><circle id="Ellipse_789" data-name="Ellipse 789" class="cls-2" cx="2" cy="2" r="2" transform="translate(590 1209)"/><circle id="Ellipse_790" data-name="Ellipse 790" class="cls-2" cx="2" cy="2" r="2" transform="translate(581 1209)"/><circle id="Ellipse_791" data-name="Ellipse 791" class="cls-2" cx="2" cy="2" r="2" transform="translate(572 1209)"/><circle id="Ellipse_792" data-name="Ellipse 792" class="cls-2" cx="2" cy="2" r="2" transform="translate(563 1209)"/><circle id="Ellipse_793" data-name="Ellipse 793" class="cls-2" cx="2" cy="2" r="2" transform="translate(554 1209)"/><circle id="Ellipse_794" data-name="Ellipse 794" class="cls-2" cx="2" cy="2" r="2" transform="translate(545 1209)"/><circle id="Ellipse_795" data-name="Ellipse 795" class="cls-2" cx="2" cy="2" r="2" transform="translate(536 1209)"/><circle id="Ellipse_796" data-name="Ellipse 796" class="cls-2" cx="2" cy="2" r="2" transform="translate(527 1209)"/><circle id="Ellipse_797" data-name="Ellipse 797" class="cls-2" cx="2" cy="2" r="2" transform="translate(518 1209)"/><circle id="Ellipse_798" data-name="Ellipse 798" class="cls-2" cx="2" cy="2" r="2" transform="translate(509 1209)"/><circle id="Ellipse_799" data-name="Ellipse 799" class="cls-2" cx="2" cy="2" r="2" transform="translate(500 1209)"/><circle id="Ellipse_800" data-name="Ellipse 800" class="cls-2" cx="2" cy="2" r="2" transform="translate(491 1209)"/><circle id="Ellipse_801" data-name="Ellipse 801" class="cls-2" cx="2" cy="2" r="2" transform="translate(482 1209)"/><circle id="Ellipse_802" data-name="Ellipse 802" class="cls-2" cx="2" cy="2" r="2" transform="translate(473 1209)"/><circle id="Ellipse_803" data-name="Ellipse 803" class="cls-2" cx="2" cy="2" r="2" transform="translate(464 1209)"/></g></g></g><path id="Path_11505" data-name="Path 11505" class="cls-2" d="M27.91 87.568h.407c0-9.452 5.606-17.16 12.484-17.16v-.391c-6.894 0-12.484-7.708-12.484-17.176h-.407c0 9.468-5.606 17.176-12.5 17.176v.391c6.91 0 12.5 7.708 12.5 17.16z" transform="translate(816.627 318.806)"/></g></svg>