<svg xmlns="http://www.w3.org/2000/svg" width="131.693" height="24" viewBox="0 0 131.693 24">
    <g data-name="MP LOGO">
        <path data-name="Path 11780" d="m470.165 69.8-4.938-11.344h3.307l3.373 8.136 3.9-8.136h3.252l-7.687 15.625h-3.307zm-12.025-2.349a3.377 3.377 0 0 0 .838-.312 3.46 3.46 0 0 0 .706-.5 3.035 3.035 0 0 0 .547-.668 3.415 3.415 0 0 0 .361-.832 3.515 3.515 0 0 0 .131-.98 3.558 3.558 0 0 0-.131-.991 3.42 3.42 0 0 0-.361-.832 3.157 3.157 0 0 0-.547-.673 3.067 3.067 0 0 0-.706-.493 3.684 3.684 0 0 0-.838-.3 4.115 4.115 0 0 0-.931-.1 4.043 4.043 0 0 0-.925.1 3.6 3.6 0 0 0-.827.3 3.229 3.229 0 0 0-.706.493 3.077 3.077 0 0 0-.553.673 3.268 3.268 0 0 0-.356.832 3.7 3.7 0 0 0-.126.991 3.659 3.659 0 0 0 .126.98 3.267 3.267 0 0 0 .356.832 2.961 2.961 0 0 0 .553.668 3.665 3.665 0 0 0 .706.5 3.3 3.3 0 0 0 .827.312 4.029 4.029 0 0 0 .925.1 4.1 4.1 0 0 0 .931-.1m-3.334 2.54a5.966 5.966 0 0 1-1.451-.58 5.537 5.537 0 0 1-2.119-2.124 6.049 6.049 0 0 1-.58-1.462 6.983 6.983 0 0 1 0-3.34 5.957 5.957 0 0 1 .58-1.456 5.573 5.573 0 0 1 2.119-2.119 5.972 5.972 0 0 1 1.451-.58 6.6 6.6 0 0 1 1.659-.2 7.212 7.212 0 0 1 .9.055 5.517 5.517 0 0 1 .816.164 6.117 6.117 0 0 1 .728.257 4.616 4.616 0 0 1 .641.334 3.391 3.391 0 0 1 .537.416 4.244 4.244 0 0 1 .427.471v-1.369h3.143v11.41h-3.143V68.5a4.152 4.152 0 0 1-.684.679 4.237 4.237 0 0 1-.914.548 5.214 5.214 0 0 1-1.133.35 6.908 6.908 0 0 1-1.319.12 6.6 6.6 0 0 1-1.659-.2M443.4 61.349a5.086 5.086 0 0 0 1.336-.153 2.426 2.426 0 0 0 .931-.465 1.849 1.849 0 0 0 .547-.772 2.974 2.974 0 0 0 .175-1.062 2.931 2.931 0 0 0-.175-1.057 1.817 1.817 0 0 0-.547-.761 2.476 2.476 0 0 0-.931-.46 5.1 5.1 0 0 0-1.336-.153h-3.088v4.884zm-6.34-7.577h6.64a8.611 8.611 0 0 1 2.716.383 5.218 5.218 0 0 1 1.894 1.062 4.237 4.237 0 0 1 1.111 1.632 5.683 5.683 0 0 1 .367 2.059 5.581 5.581 0 0 1-.367 2.053 4.31 4.31 0 0 1-1.111 1.621 5.171 5.171 0 0 1-1.894 1.068 8.6 8.6 0 0 1-2.716.383h-3.394v5.836h-3.252zm-13.965 4.687h3.121v1.369a3.551 3.551 0 0 1 .679-.706 4.283 4.283 0 0 1 .887-.537 4.826 4.826 0 0 1 1.09-.339 6.678 6.678 0 0 1 1.265-.115 5.424 5.424 0 0 1 1.938.328 4 4 0 0 1 1.467.947 4.088 4.088 0 0 1 .92 1.527 6.148 6.148 0 0 1 .318 2.037v6.9h-3.121v-6.09a4.229 4.229 0 0 0-.186-1.314 2.624 2.624 0 0 0-.531-.953 2.153 2.153 0 0 0-.849-.575 3.221 3.221 0 0 0-1.15-.192 3.267 3.267 0 0 0-1.155.192 2.147 2.147 0 0 0-.854.575 2.62 2.62 0 0 0-.531.953 4.231 4.231 0 0 0-.186 1.314v6.088h-3.121zm-7.679 8.962a3.935 3.935 0 0 0 .86-.318 2.875 2.875 0 0 0 .706-.509 3.272 3.272 0 0 0 .531-.679 3.022 3.022 0 0 0 .328-.821 4.012 4.012 0 0 0 .109-.953 3.941 3.941 0 0 0-.109-.947 3.093 3.093 0 0 0-.859-1.5 3.222 3.222 0 0 0-.706-.515 3.464 3.464 0 0 0-.86-.323 4.32 4.32 0 0 0-.991-.109 4.268 4.268 0 0 0-.98.109 3.367 3.367 0 0 0-.854.323 3.273 3.273 0 0 0-.7.515 2.849 2.849 0 0 0-.52.679 3.737 3.737 0 0 0-.328.816 3.582 3.582 0 0 0-.12.953 3.657 3.657 0 0 0 .12.953 3.562 3.562 0 0 0 .328.821 2.993 2.993 0 0 0 .52.679 2.912 2.912 0 0 0 .7.509 3.818 3.818 0 0 0 .854.318 4.073 4.073 0 0 0 .98.115 4.121 4.121 0 0 0 .991-.115m-2.831 2.568a7.394 7.394 0 0 1-1.626-.586 5.993 5.993 0 0 1-1.341-.914 5.6 5.6 0 0 1-1.007-1.21 5.748 5.748 0 0 1-.641-1.467 6.323 6.323 0 0 1 0-3.34 5.659 5.659 0 0 1 .641-1.462 5.785 5.785 0 0 1 1.007-1.21 5.9 5.9 0 0 1 1.341-.92 7.408 7.408 0 0 1 1.626-.586 8.334 8.334 0 0 1 3.7 0 7.185 7.185 0 0 1 1.615.586 6.241 6.241 0 0 1 1.341.92 5.768 5.768 0 0 1 1.024 1.21 5.559 5.559 0 0 1 .646 1.462 6.323 6.323 0 0 1 0 3.34 5.646 5.646 0 0 1-.646 1.467 5.578 5.578 0 0 1-1.024 1.21 6.348 6.348 0 0 1-1.341.914 7.19 7.19 0 0 1-1.61.586 8.358 8.358 0 0 1-3.706 0M400.4 67.42a3.931 3.931 0 0 0 .86-.318 2.876 2.876 0 0 0 .706-.509 3.27 3.27 0 0 0 .531-.679 3.011 3.011 0 0 0 .328-.821 4.009 4.009 0 0 0 .109-.953 3.941 3.941 0 0 0-.109-.947 3.093 3.093 0 0 0-.859-1.5 3.223 3.223 0 0 0-.706-.515 3.462 3.462 0 0 0-.86-.323 4.32 4.32 0 0 0-.991-.109 4.269 4.269 0 0 0-.98.109 3.366 3.366 0 0 0-.854.323 3.279 3.279 0 0 0-.7.515 2.849 2.849 0 0 0-.52.679 3.751 3.751 0 0 0-.328.816 3.584 3.584 0 0 0-.12.953 3.66 3.66 0 0 0 .12.953 3.572 3.572 0 0 0 .328.821 2.994 2.994 0 0 0 .52.679 2.916 2.916 0 0 0 .7.509 3.816 3.816 0 0 0 .854.318 4.072 4.072 0 0 0 .98.115 4.12 4.12 0 0 0 .991-.115m-2.831 2.568a7.4 7.4 0 0 1-1.626-.586 6 6 0 0 1-1.341-.914 5.6 5.6 0 0 1-1.007-1.21 5.748 5.748 0 0 1-.641-1.467 6.323 6.323 0 0 1 0-3.34 5.663 5.663 0 0 1 .641-1.462 5.793 5.793 0 0 1 1.007-1.21 5.9 5.9 0 0 1 1.341-.92 7.41 7.41 0 0 1 1.626-.586 8.334 8.334 0 0 1 3.7 0 7.184 7.184 0 0 1 1.615.586 6.24 6.24 0 0 1 1.341.92 5.76 5.76 0 0 1 1.024 1.21 5.552 5.552 0 0 1 .646 1.462 6.323 6.323 0 0 1 0 3.34 5.636 5.636 0 0 1-.646 1.467 5.575 5.575 0 0 1-1.024 1.21 6.348 6.348 0 0 1-1.341.914 7.193 7.193 0 0 1-1.61.586 8.358 8.358 0 0 1-3.706 0m-24.625-16.218h3.285l5.617 8.585 5.639-8.585h3.285v16.1h-3.252V58.83l-4.665 7.117h-1.992l-4.66-7.117v11.038h-3.252z" transform="translate(-347.363 -50.083)" style="fill:#f0f1f4"/>
    </g>
    <path d="M18.079 6.57a3.285 3.285 0 1 0-3.285-3.285 3.285 3.285 0 0 0 3.285 3.285M8.007 21.364a8.007 8.007 0 1 1 8.007-8.007 8.007 8.007 0 0 1-8.007 8.007" style="fill:#7d00ff"/>
</svg>
