<svg xmlns="http://www.w3.org/2000/svg" width="133" height="11" viewBox="0 0 133 11">
    <g data-name="Group 21366">
        <path data-name="Path 11922" d="M19.472 52.84h-.128a4.222 4.222 0 0 1-3.933 4.447v.1a4.22 4.22 0 0 1 3.933 4.451h.128a4.224 4.224 0 0 1 3.938-4.451v-.1a4.219 4.219 0 0 1-3.938-4.447z" transform="translate(-15.41 -50.84)" style="fill:#2687cf"/>
        <path data-name="Path 11928" d="M19.472 52.84h-.128a4.222 4.222 0 0 1-3.933 4.447v.1a4.22 4.22 0 0 1 3.933 4.451h.128a4.224 4.224 0 0 1 3.938-4.451v-.1a4.219 4.219 0 0 1-3.938-4.447z" transform="translate(31.59 -52.84)" style="fill:#b1a62f"/>
        <path data-name="Path 11931" d="M19.472 52.84h-.128a4.222 4.222 0 0 1-3.933 4.447v.1a4.22 4.22 0 0 1 3.933 4.451h.128a4.224 4.224 0 0 1 3.938-4.451v-.1a4.219 4.219 0 0 1-3.938-4.447z" transform="translate(109.59 -51.84)" style="fill:#a590e0"/>
        <path data-name="Path 11926" d="M17.441 52.84h-.064a2.267 2.267 0 0 1-1.967 2.471v.056a2.266 2.266 0 0 1 1.967 2.473h.064a2.267 2.267 0 0 1 1.969-2.473v-.056a2.265 2.265 0 0 1-1.969-2.471z" transform="translate(9.59 -51.84)" style="fill:#a881ed"/>
        <path data-name="Path 11929" d="M17.441 52.84h-.064a2.267 2.267 0 0 1-1.967 2.471v.056a2.266 2.266 0 0 1 1.967 2.473h.064a2.267 2.267 0 0 1 1.969-2.473v-.056a2.265 2.265 0 0 1-1.969-2.471z" transform="translate(62.59 -50.84)" style="fill:#fcc97c"/>
    </g>
</svg>
