<svg data-name="Group 15561" xmlns="http://www.w3.org/2000/svg" width="32" height="32"><defs><linearGradient id="a" x1=".5" y1="1" x2=".5" y2=".124" gradientUnits="objectBoundingBox"><stop offset="0" stop-color="#ffa000"/><stop offset="1" stop-color="#ffd081"/></linearGradient></defs><path data-name="Rectangle 18151" style="fill:none;opacity:.1" d="M0 0h32v32H0z"/><g data-name="Path 11426" transform="translate(5.248 5.24)" style="fill:url(#a)"><path d="M5.785 17.496a.357.357 0 0 1-.21-.068.335.335 0 0 1-.137-.333l.852-4.738.048-.264-.194-.186-3.508-3.364a.334.334 0 0 1-.086-.331.352.352 0 0 1 .283-.23l4.86-.698.26-.038.117-.235 2.14-4.318a.356.356 0 0 1 .637-.002l2.167 4.314.118.233.258.037 4.858.699a.353.353 0 0 1 .286.23.334.334 0 0 1-.086.331l-3.509 3.364-.193.185.047.264.852 4.739.001.003v.003a.338.338 0 0 1-.355.4l-.012-.001h-.013a.364.364 0 0 1-.164-.039l-4.343-2.245-.23-.12-.23.12-4.347 2.247a.363.363 0 0 1-.167.04z" style="stroke:none"/><path d="m15.102 16.89-.896-4.981 3.638-3.488-5.042-.725-2.272-4.523-2.245 4.53-5.046.726 3.639 3.488-.892 4.958 4.543-2.349 4.573 2.364m-9.317 1.106a.86.86 0 0 1-.503-.162.837.837 0 0 1-.336-.827l.852-4.739-3.511-3.367a.834.834 0 0 1-.213-.841.85.85 0 0 1 .69-.573l4.858-.698 2.14-4.318a.853.853 0 0 1 .767-.475c.327 0 .625.184.767.475l2.165 4.31 4.859.698a.85.85 0 0 1 .69.572.834.834 0 0 1-.213.842l-3.512 3.367.853 4.739a.837.837 0 0 1-.87.993.863.863 0 0 1-.392-.093l-4.347-2.247-4.347 2.247a.86.86 0 0 1-.397.097z" style="fill:#f49e0c;stroke:none"/></g></svg>