<svg xmlns="http://www.w3.org/2000/svg" width="32" height="32"><g data-name="Group 15758"><path data-name="Rectangle 18151" style="fill:none;opacity:.1" d="M0 0h32v32H0z"/><path data-name="Path 11426" d="M15.268 17.992a.861.861 0 0 1-.392-.093l-4.347-2.247L6.182 17.9a.861.861 0 0 1-.9-.065.837.837 0 0 1-.336-.827l.854-4.74L2.287 8.9a.834.834 0 0 1-.213-.842.85.85 0 0 1 .69-.572l4.858-.7 2.14-4.315a.857.857 0 0 1 1.534 0l2.165 4.31 4.858.7a.85.85 0 0 1 .69.572.834.834 0 0 1-.213.842l-3.511 3.365.853 4.74a.837.837 0 0 1-.341.842.86.86 0 0 1-.528.152z" transform="translate(5.248 5.24)" style="fill:#4d4e52"/></g></svg>