<svg xmlns="http://www.w3.org/2000/svg" width="22" height="24"><g opacity=".87" fill="#1db2d5"><path data-name="Path 5705" d="M4.219 6.403v11.622l-1.25-1.259a.973.973 0 0 0-1.376 1.376l2.906 2.906a.969.969 0 0 0 1.376 0l2.906-2.906a.973.973 0 1 0-1.376-1.376l-1.249 1.259V6.403a1.511 1.511 0 0 1 1.482-1.54h2.393a.969.969 0 1 0 0-1.937H7.638a3.448 3.448 0 0 0-3.419 3.477z"/><path data-name="Path 5706" d="M13.218 6.113a.973.973 0 1 0 1.376 1.376l1.249-1.263v11.627a1.511 1.511 0 0 1-1.482 1.54h-2.392a.969.969 0 0 0 0 1.937h2.393a3.448 3.448 0 0 0 3.419-3.478V6.226l1.25 1.259a.973.973 0 1 0 1.376-1.376L17.5 3.207a.969.969 0 0 0-1.376 0z"/></g></svg>