<svg data-name="Group 14188" xmlns="http://www.w3.org/2000/svg" width="18" height="18"><g data-name="Group 14187" fill="#fff"><path data-name="Path 5705" d="M13.433 14.25h-9l.975.968a.753.753 0 1 1-1.065 1.064l-2.25-2.25a.75.75 0 0 1 0-1.065l2.25-2.25a.753.753 0 1 1 1.065 1.065l-.975.967h9a1.17 1.17 0 0 0 1.192-1.146V9.75a.75.75 0 1 1 1.5 0v1.853a2.67 2.67 0 0 1-2.692 2.647z"/><path data-name="Path 5706" d="M13.658 7.283a.753.753 0 0 1-1.065-1.065l.975-.968h-9A1.17 1.17 0 0 0 3.375 6.4v1.85a.75.75 0 1 1-1.5 0V6.4a2.67 2.67 0 0 1 2.693-2.65h9l-.975-.968a.753.753 0 1 1 1.065-1.065l2.25 2.25a.75.75 0 0 1 0 1.065z"/></g></svg>