<svg xmlns="http://www.w3.org/2000/svg" width="163.375" height="164.5"><g data-name="Group 17047"><path d="m107.286 13.292 38.925 38.932v55.055l-38.925 38.932H52.217l-38.925-38.932V52.224l38.925-38.932zM112.789 0H46.715L0 46.715v66.068L46.715 159.5h66.068l46.717-46.711V46.715L112.789 0zM69.783 39.876h19.938l-6.646 53.168h-6.646zm9.969 81.413a8.307 8.307 0 1 1 8.307-8.307 8.31 8.31 0 0 1-8.307 8.307z" transform="translate(3.372 4.496)" style="fill:#3e4252;stroke:#3e4252;opacity:.3"/><path data-name="error" d="m107.286 13.292 38.925 38.932v55.055l-38.925 38.932H52.217l-38.925-38.932V52.224l38.925-38.932zM112.789 0H46.715L0 46.715v66.068L46.715 159.5h66.068l46.717-46.711V46.715L112.789 0zM69.783 39.876h19.938l-6.646 53.168h-6.646zm9.969 81.413a8.307 8.307 0 1 1 8.307-8.307 8.31 8.31 0 0 1-8.307 8.307z" style="fill:#ff5252"/></g></svg>