<svg width="22" height="24" viewBox="0 0 22 24" fill="none" xmlns="http://www.w3.org/2000/svg">
<path d="M20.4598 22.5116C20.9484 22.4098 21.2391 21.9 21.0181 21.4526C20.2815 19.9606 19.0275 18.6493 17.3853 17.6693C15.4318 16.5034 13.0383 15.8714 10.5759 15.8714C8.11355 15.8714 5.72 16.5034 3.76648 17.6693C2.12433 18.6493 0.870271 19.9606 0.13366 21.4526C-0.087265 21.9 0.203457 22.4098 0.691994 22.5116L3.81405 23.1622C8.27404 24.0917 12.8778 24.0917 17.3378 23.1622L20.4598 22.5116Z" fill="white"/>
<path d="M16.7902 7.17144C16.7902 10.6035 14.0079 13.3857 10.5759 13.3857C7.14383 13.3857 4.3616 10.6035 4.3616 7.17144C4.3616 3.73938 7.14383 0.957153 10.5759 0.957153C14.0079 0.957153 16.7902 3.73938 16.7902 7.17144Z" fill="white"/>
</svg>
