<svg width="470" height="367" viewBox="0 0 470 367" fill="none" xmlns="http://www.w3.org/2000/svg">
<g opacity="0.6" filter="url(#filter0_f_2_117)">
<rect width="128.31" height="201.23" rx="12" transform="matrix(-0.866044 0.499967 -0.866044 -0.499967 389.396 261.608)" fill="url(#paint0_linear_2_117)"/>
</g>
<rect width="128.31" height="201.23" rx="12" transform="matrix(-0.866044 0.499967 -0.866044 -0.499967 389.396 261.608)" fill="url(#paint1_linear_2_117)"/>
<mask id="mask0_2_117" style="mask-type:alpha" maskUnits="userSpaceOnUse" x="110" y="164" width="274" height="159">
<rect width="128.31" height="201.23" rx="12" transform="matrix(-0.866044 0.499967 -0.866044 -0.499967 389.396 261.608)" fill="url(#paint2_linear_2_117)"/>
</mask>
<g mask="url(#mask0_2_117)">
<path d="M278.172 239.987L315.256 261.396L278.171 282.805L278.172 239.987Z" fill="url(#paint3_linear_2_117)" fill-opacity="0.6"/>
<path d="M166.918 218.579L204.002 239.988L241.088 218.578L166.918 218.579Z" fill="url(#paint4_linear_2_117)" fill-opacity="0.6"/>
<path d="M315.256 261.396L352.34 282.805L315.255 304.214L315.256 261.396Z" fill="url(#paint5_linear_2_117)" fill-opacity="0.6"/>
<path d="M204.002 239.988L241.087 261.396L278.172 239.987L204.002 239.988Z" fill="url(#paint6_linear_2_117)" fill-opacity="0.6"/>
<path d="M315.257 218.578L352.341 239.987L315.256 261.396L315.257 218.578Z" fill="url(#paint7_linear_2_117)" fill-opacity="0.6"/>
<path d="M204.003 197.17L241.087 218.578L278.172 197.169L204.003 197.17Z" fill="url(#paint8_linear_2_117)" fill-opacity="0.6"/>
<path d="M352.341 239.987L389.425 261.395L352.34 282.805L352.341 239.987Z" fill="url(#paint9_linear_2_117)" fill-opacity="0.6"/>
<path d="M241.087 218.578L278.172 239.987L315.257 218.578L241.087 218.578Z" fill="url(#paint10_linear_2_117)" fill-opacity="0.6"/>
<path d="M241.087 261.396L278.171 282.805L241.086 304.214L241.087 261.396Z" fill="url(#paint11_linear_2_117)" fill-opacity="0.6"/>
<path d="M129.833 239.988L166.917 261.397L204.002 239.987L129.833 239.988Z" fill="url(#paint12_linear_2_117)" fill-opacity="0.6"/>
<path d="M278.171 282.805L315.255 304.214L278.17 325.623L278.171 282.805Z" fill="url(#paint13_linear_2_117)" fill-opacity="0.6"/>
<path d="M166.917 261.397L204.002 282.805L241.087 261.396L166.917 261.397Z" fill="url(#paint14_linear_2_117)" fill-opacity="0.6"/>
</g>
<g opacity="0.6">
<rect width="23.5389" height="30.923" rx="5" transform="matrix(-0.866044 0.499967 -0.866044 -0.499967 197.933 215.228)" fill="url(#paint15_linear_2_117)" stroke="#2F333C"/>
<rect width="16.1541" height="6.46151" rx="3.23076" transform="matrix(-0.866044 0.499967 -0.866044 -0.499967 184.343 210.613)" stroke="#2F333C"/>
<path d="M167.101 202.043L178.283 208.498" stroke="#2F333C"/>
<path d="M182.711 211.055L193.893 217.51" stroke="#2F333C"/>
<path d="M161.097 205.51L171.662 211.608" stroke="#2F333C"/>
<path d="M177.308 214.868L187.872 220.967" stroke="#2F333C"/>
<path d="M155.093 208.976L166.274 215.431" stroke="#2F333C"/>
<path d="M170.703 217.987L181.885 224.442" stroke="#2F333C"/>
</g>
<path d="M353.901 254.752L359.655 258.074L353.901 261.396L353.901 254.752Z" fill="#48315A"/>
<path d="M336.637 251.43L342.392 254.752L348.146 251.43L336.637 251.43Z" fill="#48315A"/>
<path d="M359.655 258.074L365.409 261.396L359.655 264.718L359.655 258.074Z" fill="#48315A"/>
<path d="M342.392 254.752L348.146 258.074L353.901 254.752L342.392 254.752Z" fill="#48315A"/>
<g filter="url(#filter1_i_2_117)">
<path d="M180.64 195.008L183.481 193.368L182.734 192.937L183.202 192.667L184.914 193.395L181.38 195.435L180.64 195.008Z" fill="url(#paint16_linear_2_117)"/>
<path d="M187.263 195.575C187.526 195.423 187.761 195.35 187.966 195.356C188.172 195.363 188.433 195.457 188.75 195.64L190.551 196.68C190.867 196.862 191.031 197.013 191.042 197.132C191.055 197.252 190.93 197.388 190.667 197.54L190.442 197.67C190.271 197.768 190.114 197.828 189.97 197.85C189.829 197.873 189.597 197.863 189.274 197.819L185.962 197.352L188 198.528L188.517 198.229L188.982 198.708L188.703 198.869C188.44 199.021 188.204 199.093 187.996 199.086C187.791 199.079 187.53 198.985 187.213 198.802L184.264 197.099L184.582 196.915C184.737 196.826 184.889 196.776 185.037 196.764C185.187 196.754 185.397 196.767 185.667 196.802L189.586 197.341L190.043 197.076L188.046 195.923L187.323 196.341L186.809 195.837L187.263 195.575Z" fill="url(#paint17_linear_2_117)"/>
<path d="M190.296 200.582C189.979 200.399 189.814 200.248 189.801 200.128C189.79 200.009 189.916 199.873 190.179 199.721L190.465 199.557L191.334 199.886L190.843 200.17L192.734 201.261C192.869 201.339 192.98 201.379 193.066 201.38C193.155 201.383 193.262 201.348 193.388 201.275L193.643 201.127C193.772 201.053 193.834 200.991 193.829 200.94C193.827 200.887 193.76 200.823 193.627 200.746L192.442 200.062L193.013 199.733L194.068 200.342C194.201 200.419 194.31 200.458 194.397 200.459C194.483 200.46 194.59 200.424 194.718 200.35L194.894 200.248C195.025 200.173 195.089 200.11 195.087 200.06C195.085 200.011 195.017 199.947 194.884 199.871L193.152 198.871L192.714 199.124L192.15 198.649L192.369 198.522C192.633 198.37 192.867 198.298 193.073 198.304C193.278 198.31 193.539 198.405 193.856 198.588L195.754 199.683C196.07 199.866 196.234 200.016 196.245 200.135C196.256 200.254 196.13 200.389 195.866 200.541L195.548 200.725C195.342 200.844 195.14 200.903 194.941 200.903C194.742 200.903 194.496 200.842 194.204 200.719C194.459 200.897 194.593 201.057 194.609 201.198C194.624 201.34 194.523 201.474 194.304 201.601L193.935 201.813C193.648 201.979 193.388 202.058 193.156 202.049C192.926 202.039 192.651 201.941 192.333 201.758L190.296 200.582Z" fill="url(#paint18_linear_2_117)"/>
<path d="M197.17 204.596L197.983 204.127L195.326 202.593L195.913 202.254L200.727 202.508L201.497 202.953L199.31 204.215L200.16 204.705L199.572 205.044L198.723 204.554L197.91 205.023L197.17 204.596ZM198.57 203.788L200.14 202.882L196.653 202.681L198.57 203.788Z" fill="url(#paint19_linear_2_117)"/>
<path d="M204.337 206.883L206.48 205.876L209.51 207.625L208.853 207.935L206.404 206.521L205.644 206.868C205.976 207.024 206.263 207.164 206.504 207.287C206.747 207.413 206.963 207.529 207.151 207.638C207.73 207.973 208.065 208.281 208.156 208.563C208.249 208.844 208.097 209.099 207.701 209.327C207.29 209.565 206.839 209.649 206.348 209.58C205.859 209.513 205.275 209.283 204.596 208.891C204.24 208.685 203.93 208.492 203.667 208.312C203.406 208.133 203.199 207.973 203.046 207.831L203.547 207.339C203.828 207.573 204.105 207.786 204.377 207.979C204.653 208.172 204.932 208.349 205.213 208.511C205.653 208.766 206.006 208.919 206.271 208.973C206.539 209.025 206.776 208.992 206.981 208.873C207.176 208.761 207.228 208.63 207.137 208.481C207.047 208.331 206.793 208.137 206.378 207.897C206.112 207.743 205.808 207.582 205.465 207.412C205.122 207.242 204.746 207.066 204.337 206.883Z" fill="url(#paint20_linear_2_117)"/>
<path d="M210.246 210.272C210.213 210.286 210.181 210.3 210.15 210.316C210.119 210.331 210.079 210.353 210.031 210.381C209.692 210.576 209.526 210.723 209.533 210.821C209.544 210.92 209.702 211.057 210.007 211.233L210.986 211.798C211.227 211.937 211.423 212.016 211.573 212.034C211.726 212.053 211.883 212.016 212.045 211.923L212.237 211.812C212.401 211.717 212.459 211.623 212.413 211.53C212.371 211.437 212.195 211.301 211.885 211.122C211.635 210.978 211.372 210.835 211.096 210.693C210.824 210.551 210.54 210.411 210.246 210.272ZM210.824 209.992C211.131 210.124 211.423 210.258 211.7 210.394C211.98 210.531 212.246 210.671 212.496 210.816C213.062 211.143 213.384 211.405 213.461 211.603C213.541 211.8 213.41 211.996 213.07 212.193L212.595 212.467C212.303 212.635 211.99 212.704 211.656 212.672C211.322 212.64 210.95 212.505 210.538 212.268L209.055 211.411C208.613 211.156 208.387 210.936 208.378 210.752C208.369 210.569 208.571 210.358 208.982 210.12L209.443 209.854C210.096 209.477 210.826 209.316 211.633 209.371C212.445 209.426 213.262 209.691 214.085 210.166C214.116 210.184 214.148 210.204 214.181 210.226C214.219 210.247 214.265 210.278 214.321 210.318L214.241 210.923L214.015 210.793C213.27 210.362 212.663 210.091 212.194 209.979C211.727 209.865 211.27 209.869 210.824 209.992Z" fill="url(#paint21_linear_2_117)"/>
<path d="M214.231 214.468L219.092 213.846L216.773 212.507L216.016 212.944L215.406 212.442L216.63 211.735L220.525 213.984L219.961 214.309L215.124 214.984L214.231 214.468Z" fill="url(#paint22_linear_2_117)"/>
<path d="M224.882 216.499C225.198 216.681 225.362 216.832 225.373 216.951C225.386 217.071 225.261 217.207 224.998 217.359L224.679 217.543C224.476 217.66 224.273 217.72 224.072 217.721C223.871 217.722 223.622 217.664 223.325 217.546C223.556 217.712 223.675 217.863 223.684 217.999C223.693 218.134 223.591 218.263 223.379 218.385L223.01 218.598C222.725 218.763 222.465 218.84 222.231 218.83C221.998 218.821 221.722 218.724 221.401 218.539L219.161 217.246C218.843 217.062 218.675 216.904 218.657 216.771C218.642 216.637 218.778 216.487 219.065 216.321L219.434 216.108C219.644 215.987 219.866 215.929 220.1 215.934C220.337 215.938 220.597 216.005 220.88 216.135C220.681 215.964 220.582 215.819 220.582 215.702C220.584 215.586 220.686 215.47 220.887 215.353L221.205 215.169C221.469 215.017 221.703 214.945 221.909 214.951C222.117 214.959 222.379 215.054 222.695 215.236L224.882 216.499ZM224.012 216.686L222.377 215.742C222.242 215.664 222.129 215.625 222.038 215.623C221.95 215.621 221.841 215.657 221.713 215.731L221.537 215.832C221.411 215.905 221.349 215.968 221.351 216.02C221.356 216.071 221.425 216.135 221.56 216.213L223.196 217.158C223.329 217.234 223.438 217.273 223.525 217.274C223.613 217.277 223.721 217.241 223.85 217.167L224.026 217.066C224.156 216.99 224.219 216.927 224.215 216.876C224.212 216.826 224.145 216.763 224.012 216.686ZM222.702 217.531L220.907 216.495C220.774 216.418 220.664 216.379 220.578 216.378C220.492 216.377 220.384 216.414 220.253 216.489L219.998 216.637C219.869 216.711 219.805 216.772 219.805 216.821C219.807 216.868 219.877 216.931 220.014 217.01L221.809 218.046C221.944 218.124 222.052 218.164 222.134 218.165C222.221 218.166 222.328 218.13 222.456 218.056L222.712 217.909C222.842 217.833 222.906 217.771 222.904 217.721C222.902 217.671 222.834 217.608 222.702 217.531Z" fill="url(#paint23_linear_2_117)"/>
<path d="M230.701 222.299C230.409 222.176 230.124 222.046 229.845 221.908C229.569 221.769 229.299 221.623 229.036 221.471C228.469 221.144 228.145 220.882 228.063 220.684C227.986 220.486 228.117 220.289 228.455 220.094L228.926 219.822C229.218 219.653 229.53 219.584 229.862 219.615C230.196 219.647 230.569 219.782 230.98 220.019L232.46 220.874C232.902 221.129 233.128 221.349 233.137 221.532C233.145 221.716 232.944 221.927 232.533 222.165L232.071 222.431C231.419 222.808 230.689 222.968 229.882 222.914C229.074 222.859 228.259 222.594 227.436 222.119C227.368 222.079 227.317 222.048 227.284 222.027C227.251 222.008 227.221 221.988 227.194 221.967L227.274 221.366L227.496 221.494C228.244 221.926 228.852 222.198 229.321 222.31C229.792 222.424 230.252 222.42 230.701 222.299ZM231.279 222.011C231.325 221.992 231.367 221.973 231.405 221.954C231.447 221.935 231.481 221.917 231.507 221.902C231.853 221.703 232.022 221.553 232.015 221.452C232.008 221.351 231.851 221.212 231.544 221.034L230.572 220.473C230.326 220.332 230.126 220.252 229.971 220.234C229.816 220.216 229.655 220.256 229.487 220.353L229.291 220.466C229.121 220.564 229.058 220.66 229.102 220.755C229.146 220.849 229.325 220.987 229.639 221.169C229.861 221.296 230.108 221.432 230.383 221.575C230.661 221.718 230.96 221.863 231.279 222.011Z" fill="url(#paint24_linear_2_117)"/>
<path d="M232.808 224.396L235.313 225.842L237.593 224.526L235.087 223.08L232.808 224.396ZM234.122 222.791C234.443 222.606 234.716 222.512 234.942 222.509C235.172 222.507 235.441 222.595 235.751 222.774L238.123 224.143C238.435 224.323 238.588 224.479 238.581 224.611C238.579 224.742 238.418 224.9 238.097 225.086L236.249 226.153C235.928 226.338 235.653 226.432 235.423 226.434C235.197 226.437 234.928 226.348 234.616 226.168L232.244 224.798C231.934 224.62 231.781 224.464 231.783 224.333C231.789 224.201 231.953 224.043 232.274 223.858L234.122 222.791Z" fill="url(#paint25_linear_2_117)"/>
<path d="M238.465 228.39L241.305 226.75L240.559 226.319L241.027 226.049L242.739 226.777L239.205 228.817L238.465 228.39Z" fill="url(#paint26_linear_2_117)"/>
<path d="M245.088 228.957C245.351 228.805 245.585 228.732 245.791 228.738C245.997 228.745 246.258 228.839 246.574 229.022L248.376 230.062C248.692 230.244 248.856 230.395 248.867 230.514C248.88 230.634 248.755 230.77 248.492 230.922L248.266 231.052C248.096 231.151 247.939 231.211 247.795 231.232C247.654 231.255 247.421 231.245 247.098 231.202L243.787 230.734L245.824 231.91L246.342 231.612L246.806 232.09L246.528 232.251C246.264 232.403 246.029 232.475 245.821 232.468C245.615 232.461 245.354 232.367 245.038 232.184L242.088 230.481L242.407 230.298C242.562 230.208 242.713 230.158 242.861 230.146C243.012 230.136 243.222 230.149 243.492 230.185L247.41 230.723L247.868 230.458L245.871 229.305L245.147 229.723L244.633 229.219L245.088 228.957Z" fill="url(#paint27_linear_2_117)"/>
<path d="M250.755 235.485C250.438 235.302 250.274 235.151 250.26 235.031C250.249 234.912 250.375 234.776 250.639 234.624L250.924 234.46L251.793 234.789L251.302 235.073L253.193 236.165C253.328 236.242 253.439 236.282 253.525 236.283C253.614 236.286 253.721 236.251 253.847 236.178L254.102 236.03C254.231 235.956 254.293 235.894 254.288 235.843C254.286 235.79 254.219 235.726 254.086 235.649L252.901 234.965L253.472 234.636L254.527 235.245C254.66 235.322 254.769 235.361 254.856 235.362C254.942 235.363 255.049 235.327 255.177 235.253L255.353 235.151C255.484 235.076 255.548 235.013 255.546 234.963C255.544 234.914 255.476 234.85 255.343 234.774L253.611 233.774L253.173 234.027L252.609 233.552L252.828 233.425C253.092 233.273 253.326 233.201 253.532 233.207C253.738 233.213 253.999 233.308 254.315 233.491L256.213 234.586C256.529 234.769 256.693 234.919 256.704 235.038C256.715 235.157 256.589 235.292 256.325 235.444L256.007 235.628C255.801 235.747 255.599 235.806 255.4 235.806C255.201 235.806 254.955 235.745 254.663 235.622C254.918 235.8 255.052 235.96 255.068 236.101C255.083 236.243 254.982 236.377 254.763 236.504L254.394 236.716C254.107 236.882 253.847 236.961 253.615 236.952C253.385 236.942 253.11 236.844 252.792 236.661L250.755 235.485Z" fill="url(#paint28_linear_2_117)"/>
<path d="M257.629 239.499L258.442 239.03L255.785 237.496L256.372 237.157L261.186 237.411L261.956 237.856L259.769 239.118L260.619 239.608L260.032 239.947L259.182 239.457L258.369 239.926L257.629 239.499ZM259.03 238.691L260.599 237.785L257.112 237.584L259.03 238.691Z" fill="url(#paint29_linear_2_117)"/>
<path d="M262.162 240.265L264.305 239.258L267.334 241.007L266.677 241.317L264.229 239.903L263.469 240.25C263.801 240.406 264.087 240.546 264.328 240.67C264.572 240.795 264.787 240.912 264.975 241.02C265.555 241.355 265.89 241.663 265.981 241.945C266.073 242.226 265.922 242.481 265.526 242.71C265.115 242.947 264.663 243.031 264.172 242.962C263.683 242.895 263.099 242.665 262.42 242.273C262.064 242.067 261.755 241.874 261.491 241.694C261.23 241.516 261.024 241.355 260.871 241.214L261.372 240.721C261.653 240.955 261.929 241.168 262.201 241.361C262.478 241.554 262.757 241.731 263.038 241.894C263.478 242.148 263.831 242.302 264.096 242.355C264.364 242.408 264.6 242.374 264.806 242.256C265.001 242.143 265.053 242.012 264.962 241.863C264.871 241.713 264.618 241.519 264.202 241.279C263.937 241.125 263.633 240.964 263.29 240.794C262.947 240.624 262.571 240.448 262.162 240.265Z" fill="url(#paint30_linear_2_117)"/>
<path d="M268.071 243.654C268.038 243.668 268.006 243.683 267.975 243.698C267.944 243.713 267.904 243.735 267.855 243.763C267.517 243.958 267.351 244.105 267.357 244.204C267.369 244.302 267.527 244.439 267.832 244.615L268.811 245.18C269.052 245.32 269.248 245.398 269.398 245.416C269.551 245.435 269.708 245.398 269.869 245.305L270.062 245.194C270.225 245.099 270.284 245.005 270.237 244.912C270.195 244.819 270.02 244.683 269.71 244.504C269.46 244.36 269.197 244.217 268.92 244.075C268.648 243.933 268.365 243.793 268.071 243.654ZM268.648 243.374C268.956 243.506 269.248 243.64 269.524 243.776C269.805 243.913 270.07 244.054 270.32 244.198C270.887 244.525 271.209 244.787 271.286 244.985C271.366 245.182 271.235 245.378 270.894 245.575L270.42 245.849C270.128 246.017 269.815 246.086 269.481 246.054C269.147 246.022 268.774 245.887 268.363 245.65L266.88 244.794C266.437 244.538 266.212 244.319 266.203 244.135C266.194 243.951 266.395 243.74 266.807 243.503L267.268 243.236C267.92 242.86 268.65 242.699 269.458 242.754C270.27 242.808 271.087 243.073 271.91 243.548C271.941 243.566 271.973 243.586 272.006 243.608C272.044 243.63 272.09 243.66 272.145 243.7L272.066 244.305L271.84 244.175C271.095 243.744 270.487 243.473 270.019 243.361C269.552 243.247 269.095 243.252 268.648 243.374Z" fill="url(#paint31_linear_2_117)"/>
</g>
<path fill-rule="evenodd" clip-rule="evenodd" d="M258.587 291.876C255.802 292.616 253.578 293.123 253.644 293.003C253.71 292.883 254.819 291.889 256.109 290.793C257.398 289.697 258.53 288.611 258.624 288.38C258.788 287.976 258.685 287.896 256.041 286.381L253.287 284.803L254.025 285.762C254.431 286.289 254.848 286.843 254.952 286.994C255.063 287.154 254.765 287.643 254.235 288.17C253.736 288.666 252.142 290.257 250.693 291.704L248.057 294.336L249.48 295.224L250.903 296.113L258.293 294.313C262.358 293.323 265.899 292.456 266.162 292.385C266.591 292.271 266.486 292.168 265.145 291.394L263.649 290.531L258.587 291.876ZM267.052 293.245C266.632 293.415 264.043 294.491 261.3 295.636C258.556 296.78 255.968 297.857 255.55 298.027L254.788 298.338L256.193 299.149C257.485 299.895 257.641 299.943 258.15 299.759C258.853 299.505 270.169 294.787 270.413 294.646C270.513 294.588 269.97 294.18 269.205 293.738L267.816 292.936L267.052 293.245ZM274.024 296.859C271.808 296.252 269.034 296.594 267.814 297.623C267.139 298.193 267.166 299.425 267.881 300.686C268.567 301.895 268.031 302.495 266.513 302.216C265.307 301.995 264.133 301.286 263.389 300.329L262.773 299.538L261.721 300.001C261.142 300.255 260.483 300.525 260.255 300.6C259.693 300.785 260.727 301.766 262.66 302.882C265.089 304.284 267.269 304.688 269.6 304.168C272.235 303.58 272.842 302.461 271.741 300.225C271.126 298.978 271.44 298.519 272.796 298.682C273.644 298.784 275.069 299.614 275.821 300.444C276.14 300.797 276.309 300.769 277.933 300.102C278.726 299.777 278.78 299.702 278.487 299.326C278.02 298.725 275.253 297.196 274.024 296.859ZM283.722 302.274C283.438 302.166 282.917 302.087 282.565 302.098C282.092 302.114 271.688 304.498 267.702 305.505C267.443 305.57 267.736 305.813 268.858 306.461L270.362 307.328L271.494 307.001L272.626 306.674L274.51 307.696L276.394 308.717L275.962 309.11C274.945 310.034 274.931 309.966 276.299 310.756L277.58 311.496L278.1 311.046C278.386 310.798 280.367 309.06 282.502 307.184L286.384 303.771L285.312 303.121C284.722 302.763 284.007 302.382 283.722 302.274ZM279.61 305.918L278.138 307.202L276.943 306.513C275.885 305.902 275.805 305.809 276.239 305.702C276.508 305.636 277.765 305.305 279.031 304.968C280.296 304.63 281.276 304.417 281.207 304.494C281.138 304.57 280.42 305.211 279.61 305.918Z" fill="black"/>
<g opacity="0.6" filter="url(#filter2_f_2_117)">
<rect width="126.312" height="201.23" rx="12" transform="matrix(-0.866044 0.499967 -0.866044 -0.499967 388.666 205.608)" fill="url(#paint32_linear_2_117)"/>
</g>
<rect width="126.312" height="201.23" rx="12" transform="matrix(-0.866044 0.499967 -0.866044 -0.499967 388.666 205.608)" fill="url(#paint33_linear_2_117)"/>
<mask id="mask1_2_117" style="mask-type:alpha" maskUnits="userSpaceOnUse" x="111" y="108" width="272" height="158">
<rect width="126.312" height="201.23" rx="12" transform="matrix(-0.866044 0.499967 -0.866044 -0.499967 388.666 205.608)" fill="url(#paint34_linear_2_117)"/>
</mask>
<g mask="url(#mask1_2_117)">
<path d="M277.907 183.719L314.991 205.128L278.483 226.203L277.907 183.719Z" fill="url(#paint35_linear_2_117)" fill-opacity="0.6"/>
<path d="M167.23 161.977L204.315 183.386L240.822 162.31L167.23 161.977Z" fill="url(#paint36_linear_2_117)" fill-opacity="0.6"/>
<path d="M314.991 205.128L352.075 226.536L315.567 247.612L314.991 205.128Z" fill="url(#paint37_linear_2_117)" fill-opacity="0.6"/>
<path d="M204.315 183.386L241.399 204.795L277.907 183.719L204.315 183.386Z" fill="url(#paint38_linear_2_117)" fill-opacity="0.6"/>
<path d="M314.414 162.643L351.498 184.052L314.991 205.127L314.414 162.643Z" fill="url(#paint39_linear_2_117)" fill-opacity="0.6"/>
<path d="M203.738 140.901L240.822 162.31L277.33 141.234L203.738 140.901Z" fill="url(#paint40_linear_2_117)" fill-opacity="0.6"/>
<path d="M351.498 184.052L388.583 205.46L352.075 226.536L351.498 184.052Z" fill="url(#paint41_linear_2_117)" fill-opacity="0.6"/>
<path d="M240.822 162.31L277.906 183.719L314.414 162.643L240.822 162.31Z" fill="url(#paint42_linear_2_117)" fill-opacity="0.6"/>
<path d="M241.399 204.795L278.483 226.203L241.975 247.279L241.399 204.795Z" fill="url(#paint43_linear_2_117)" fill-opacity="0.6"/>
<path d="M130.723 183.053L167.807 204.462L204.314 183.386L130.723 183.053Z" fill="url(#paint44_linear_2_117)" fill-opacity="0.6"/>
<path d="M278.483 226.203L315.567 247.612L279.06 268.688L278.483 226.203Z" fill="url(#paint45_linear_2_117)" fill-opacity="0.6"/>
<path d="M167.807 204.462L204.891 225.87L241.399 204.795L167.807 204.462Z" fill="url(#paint46_linear_2_117)" fill-opacity="0.6"/>
</g>
<path fill-rule="evenodd" clip-rule="evenodd" d="M259.268 235.061C256.516 235.783 254.316 236.276 254.38 236.157C254.443 236.039 255.53 235.057 256.795 233.975C258.06 232.894 259.168 231.821 259.258 231.592C259.415 231.192 259.312 231.113 256.668 229.598L253.914 228.02L254.66 228.974C255.069 229.499 255.491 230.051 255.596 230.201C255.708 230.36 255.419 230.844 254.9 231.365C254.412 231.855 252.852 233.426 251.433 234.855L248.853 237.455L250.277 238.343L251.701 239.23L259.01 237.478C263.029 236.514 266.531 235.669 266.791 235.601C267.216 235.489 267.11 235.387 265.769 234.613L264.273 233.749L259.268 235.061ZM267.686 236.458C267.272 236.625 264.718 237.68 262.011 238.804C259.303 239.927 256.751 240.983 256.338 241.151L255.586 241.456L256.991 242.266C258.283 243.012 258.438 243.061 258.941 242.881C259.635 242.632 270.8 238.001 271.04 237.863C271.139 237.806 270.594 237.398 269.829 236.957L268.439 236.154L267.686 236.458ZM274.652 240.075C272.446 239.463 269.698 239.789 268.502 240.805C267.839 241.367 267.883 242.59 268.609 243.844C269.306 245.047 268.782 245.64 267.272 245.357C266.073 245.131 264.898 244.422 264.147 243.47L263.526 242.683L262.488 243.137C261.917 243.387 261.266 243.651 261.041 243.724C260.486 243.906 261.525 244.884 263.458 246C265.887 247.402 268.056 247.813 270.361 247.307C272.968 246.735 273.556 245.628 272.433 243.404C271.806 242.164 272.111 241.71 273.458 241.878C274.301 241.983 275.727 242.813 276.484 243.64C276.805 243.991 276.972 243.965 278.575 243.31C279.358 242.991 279.41 242.917 279.114 242.543C278.642 241.944 275.876 240.414 274.652 240.075ZM284.348 245.491C284.065 245.382 283.547 245.302 283.198 245.312C282.728 245.325 272.437 247.644 268.496 248.625C268.24 248.689 268.534 248.931 269.656 249.578L271.16 250.446L272.279 250.127L273.398 249.807L275.281 250.829L277.164 251.851L276.74 252.24C275.744 253.151 275.729 253.084 277.098 253.874L278.378 254.613L278.888 254.169C279.169 253.925 281.111 252.21 283.204 250.357L287.009 246.988L285.937 246.339C285.347 245.981 284.632 245.6 284.348 245.491ZM280.317 249.088L278.874 250.356L277.679 249.667C276.621 249.056 276.54 248.963 276.97 248.859C277.236 248.795 278.478 248.472 279.73 248.143C280.981 247.814 281.95 247.606 281.883 247.682C281.815 247.758 281.111 248.391 280.317 249.088Z" fill="white"/>
<g opacity="0.6">
<rect width="23.1724" height="30.923" rx="5" transform="matrix(-0.866044 0.499967 -0.866044 -0.499967 198.068 158.728)" fill="url(#paint47_linear_2_117)" stroke="#2F333C"/>
<rect width="15.9026" height="6.46151" rx="3.23076" transform="matrix(-0.866044 0.499967 -0.866044 -0.499967 184.128 154.315)" stroke="#2F333C"/>
<path d="M167.189 145.571L178.37 152.026" stroke="#2F333C"/>
<path d="M182.799 154.583L193.98 161.038" stroke="#2F333C"/>
<path d="M161.279 148.983L171.843 155.082" stroke="#2F333C"/>
<path d="M177.489 158.342L188.053 164.441" stroke="#2F333C"/>
<path d="M155.368 152.396L166.549 158.851" stroke="#2F333C"/>
<path d="M170.978 161.407L182.159 167.862" stroke="#2F333C"/>
</g>
<path d="M353.245 198.709L358.999 202.031L353.334 205.301L353.245 198.709Z" fill="white"/>
<path d="M336.071 195.335L341.826 198.657L347.491 195.387L336.071 195.335Z" fill="white"/>
<path d="M358.999 202.031L364.754 205.353L359.089 208.623L358.999 202.031Z" fill="white"/>
<path d="M341.826 198.657L347.58 201.979L353.245 198.709L341.826 198.657Z" fill="white"/>
<g filter="url(#filter3_i_2_117)">
<path d="M180.528 138.651L183.324 137.037L182.577 136.606L183.038 136.34L184.746 137.07L181.268 139.078L180.528 138.651Z" fill="url(#paint48_linear_2_117)"/>
<path d="M187.107 139.243C187.366 139.094 187.597 139.023 187.802 139.03C188.006 139.037 188.266 139.132 188.582 139.315L190.384 140.355C190.7 140.537 190.865 140.688 190.877 140.806C190.892 140.925 190.77 141.059 190.511 141.209L190.289 141.337C190.121 141.434 189.966 141.493 189.824 141.513C189.683 141.536 189.453 141.524 189.132 141.48L185.84 141.001L187.877 142.177L188.387 141.883L188.854 142.36L188.58 142.519C188.321 142.668 188.088 142.739 187.881 142.73C187.677 142.723 187.417 142.628 187.101 142.446L184.151 140.743L184.465 140.562C184.617 140.474 184.767 140.424 184.914 140.414C185.063 140.404 185.271 140.418 185.54 140.455L189.435 141.006L189.886 140.746L187.888 139.593L187.176 140.004L186.659 139.502L187.107 139.243Z" fill="url(#paint49_linear_2_117)"/>
<path d="M190.183 144.225C189.867 144.042 189.701 143.892 189.686 143.772C189.674 143.655 189.797 143.521 190.056 143.371L190.337 143.209L191.204 143.54L190.721 143.819L192.612 144.911C192.747 144.989 192.857 145.028 192.943 145.03C193.031 145.033 193.137 144.999 193.261 144.927L193.512 144.782C193.638 144.709 193.699 144.647 193.694 144.596C193.691 144.544 193.623 144.48 193.491 144.403L192.306 143.72L192.868 143.395L193.923 144.004C194.056 144.081 194.165 144.12 194.25 144.122C194.336 144.123 194.442 144.088 194.568 144.015L194.741 143.915C194.87 143.841 194.933 143.779 194.93 143.73C194.927 143.68 194.859 143.617 194.726 143.541L192.995 142.541L192.563 142.79L191.997 142.316L192.213 142.191C192.472 142.042 192.704 141.971 192.908 141.978C193.112 141.985 193.372 142.08 193.689 142.263L195.587 143.358C195.903 143.541 196.067 143.691 196.08 143.809C196.092 143.927 195.969 144.061 195.71 144.21L195.396 144.391C195.194 144.508 194.994 144.566 194.796 144.565C194.599 144.564 194.354 144.502 194.063 144.379C194.318 144.557 194.454 144.716 194.471 144.856C194.488 144.997 194.389 145.13 194.174 145.254L193.811 145.463C193.528 145.627 193.271 145.704 193.041 145.694C192.812 145.683 192.539 145.585 192.22 145.401L190.183 144.225Z" fill="url(#paint50_linear_2_117)"/>
<path d="M197.058 148.239L197.859 147.777L195.201 146.243L195.779 145.909L200.559 146.184L201.329 146.628L199.177 147.871L200.026 148.361L199.448 148.695L198.599 148.205L197.798 148.667L197.058 148.239ZM198.437 147.444L199.982 146.552L196.519 146.337L198.437 147.444Z" fill="url(#paint51_linear_2_117)"/>
<path d="M204.2 150.541L206.313 149.551L209.343 151.3L208.695 151.605L206.246 150.191L205.497 150.532C205.828 150.688 206.114 150.828 206.355 150.952C206.598 151.077 206.814 151.194 207.002 151.302C207.582 151.637 207.918 151.944 208.012 152.225C208.108 152.504 207.961 152.756 207.571 152.981C207.166 153.215 206.72 153.296 206.232 153.226C205.746 153.156 205.163 152.926 204.484 152.534C204.128 152.328 203.818 152.135 203.554 151.956C203.293 151.777 203.086 151.617 202.932 151.476L203.423 150.99C203.705 151.223 203.982 151.436 204.254 151.628C204.531 151.821 204.81 151.998 205.091 152.16C205.531 152.414 205.884 152.569 206.148 152.623C206.414 152.676 206.648 152.644 206.851 152.527C207.042 152.417 207.092 152.287 207 152.138C206.908 151.99 206.654 151.795 206.238 151.555C205.973 151.402 205.669 151.241 205.327 151.07C204.984 150.9 204.609 150.724 204.2 150.541Z" fill="url(#paint52_linear_2_117)"/>
<path d="M210.109 153.929C210.076 153.943 210.045 153.958 210.014 153.973C209.984 153.988 209.944 154.009 209.897 154.037C209.563 154.229 209.401 154.374 209.409 154.472C209.421 154.569 209.58 154.706 209.885 154.882L210.864 155.447C211.105 155.587 211.3 155.665 211.45 155.684C211.601 155.704 211.757 155.668 211.916 155.576L212.105 155.466C212.266 155.373 212.323 155.281 212.276 155.188C212.233 155.095 212.057 154.959 211.747 154.781C211.497 154.636 211.234 154.493 210.958 154.351C210.686 154.209 210.403 154.069 210.109 153.929ZM210.678 153.655C210.985 153.786 211.276 153.921 211.553 154.058C211.833 154.194 212.099 154.335 212.348 154.479C212.915 154.806 213.238 155.068 213.317 155.265C213.399 155.46 213.272 155.655 212.937 155.848L212.469 156.118C212.182 156.284 211.872 156.35 211.541 156.317C211.209 156.284 210.837 156.149 210.426 155.911L208.943 155.055C208.5 154.8 208.273 154.581 208.262 154.398C208.251 154.216 208.448 154.007 208.853 153.774L209.307 153.511C209.949 153.141 210.671 152.984 211.473 153.042C212.279 153.101 213.094 153.367 213.917 153.842C213.948 153.86 213.98 153.88 214.013 153.901C214.051 153.923 214.097 153.954 214.152 153.993L214.082 154.594L213.856 154.463C213.111 154.033 212.504 153.761 212.038 153.647C211.573 153.533 211.12 153.535 210.678 153.655Z" fill="url(#paint53_linear_2_117)"/>
<path d="M214.119 158.111L218.934 157.516L216.615 156.177L215.87 156.607L215.258 156.106L216.463 155.41L220.358 157.659L219.803 157.979L215.012 158.627L214.119 158.111Z" fill="url(#paint54_linear_2_117)"/>
<path d="M224.714 160.174C225.031 160.356 225.195 160.507 225.208 160.624C225.223 160.744 225.1 160.878 224.841 161.028L224.528 161.209C224.327 161.324 224.127 161.382 223.928 161.383C223.728 161.383 223.48 161.324 223.185 161.206C223.415 161.372 223.536 161.522 223.546 161.657C223.557 161.791 223.458 161.918 223.249 162.039L222.886 162.248C222.605 162.411 222.348 162.486 222.115 162.475C221.885 162.465 221.609 162.367 221.289 162.182L219.049 160.889C218.73 160.705 218.561 160.548 218.542 160.416C218.525 160.283 218.658 160.134 218.941 159.971L219.304 159.762C219.51 159.642 219.73 159.586 219.963 159.592C220.198 159.597 220.457 159.664 220.739 159.795C220.539 159.624 220.439 159.48 220.437 159.364C220.438 159.249 220.537 159.134 220.735 159.019L221.049 158.838C221.308 158.689 221.54 158.618 221.744 158.625C221.95 158.633 222.212 158.729 222.528 158.911L224.714 160.174ZM223.854 160.356L222.219 159.412C222.084 159.334 221.971 159.294 221.881 159.292C221.794 159.29 221.686 159.325 221.56 159.397L221.387 159.497C221.263 159.569 221.202 159.631 221.205 159.683C221.21 159.733 221.28 159.798 221.415 159.876L223.051 160.82C223.184 160.897 223.293 160.936 223.378 160.937C223.466 160.94 223.573 160.905 223.7 160.832L223.873 160.732C224.001 160.658 224.063 160.596 224.058 160.545C224.055 160.496 223.987 160.433 223.854 160.356ZM222.565 161.188L220.77 160.152C220.638 160.076 220.529 160.036 220.443 160.035C220.357 160.033 220.25 160.069 220.122 160.143L219.87 160.289C219.744 160.362 219.681 160.422 219.682 160.47C219.685 160.517 219.755 160.58 219.892 160.659L221.687 161.696C221.822 161.774 221.93 161.813 222.011 161.815C222.097 161.817 222.203 161.781 222.329 161.708L222.58 161.563C222.709 161.489 222.772 161.427 222.769 161.377C222.766 161.328 222.698 161.265 222.565 161.188Z" fill="url(#paint55_linear_2_117)"/>
<path d="M230.567 165.955C230.276 165.832 229.991 165.701 229.712 165.563C229.436 165.424 229.166 165.278 228.903 165.126C228.337 164.799 228.012 164.537 227.928 164.341C227.849 164.144 227.975 163.949 228.309 163.757L228.772 163.489C229.06 163.323 229.368 163.256 229.698 163.288C230.03 163.321 230.401 163.457 230.813 163.694L232.293 164.549C232.735 164.804 232.962 165.023 232.973 165.205C232.984 165.388 232.787 165.596 232.382 165.83L231.928 166.092C231.286 166.463 230.564 166.619 229.762 166.561C228.96 166.503 228.148 166.236 227.325 165.761C227.257 165.722 227.206 165.691 227.172 165.67C227.139 165.65 227.109 165.631 227.083 165.61L227.154 165.014L227.376 165.142C228.124 165.574 228.731 165.846 229.198 165.96C229.667 166.075 230.123 166.073 230.567 165.955ZM231.136 165.672C231.182 165.653 231.223 165.635 231.26 165.616C231.302 165.597 231.335 165.58 231.362 165.565C231.701 165.369 231.867 165.221 231.859 165.121C231.851 165.02 231.694 164.882 231.386 164.704L230.414 164.143C230.168 164.001 229.969 163.921 229.815 163.903C229.661 163.884 229.501 163.923 229.336 164.018L229.143 164.13C228.975 164.226 228.914 164.322 228.959 164.416C229.005 164.51 229.184 164.647 229.498 164.829C229.719 164.956 229.967 165.092 230.241 165.235C230.52 165.378 230.818 165.524 231.136 165.672Z" fill="url(#paint56_linear_2_117)"/>
<path d="M232.686 168.045L235.191 169.491L237.435 168.196L234.93 166.75L232.686 168.045ZM233.968 166.459C234.284 166.276 234.553 166.184 234.777 166.183C235.005 166.181 235.274 166.27 235.584 166.449L237.956 167.818C238.268 167.998 238.422 168.154 238.417 168.284C238.416 168.415 238.258 168.571 237.943 168.753L236.123 169.804C235.808 169.986 235.536 170.078 235.307 170.079C235.084 170.081 234.816 169.991 234.504 169.811L232.131 168.442C231.822 168.263 231.667 168.108 231.668 167.978C231.672 167.847 231.833 167.691 232.148 167.509L233.968 166.459Z" fill="url(#paint57_linear_2_117)"/>
<path d="M238.353 172.033L241.149 170.419L240.402 169.988L240.863 169.722L242.571 170.452L239.092 172.46L238.353 172.033Z" fill="url(#paint58_linear_2_117)"/>
<path d="M244.931 172.626C245.19 172.476 245.422 172.405 245.626 172.412C245.83 172.419 246.091 172.514 246.407 172.697L248.209 173.737C248.525 173.92 248.689 174.07 248.702 174.188C248.717 174.307 248.595 174.441 248.335 174.591L248.113 174.719C247.946 174.816 247.791 174.875 247.648 174.896C247.508 174.918 247.278 174.907 246.957 174.862L243.665 174.383L245.702 175.56L246.211 175.265L246.679 175.743L246.404 175.901C246.145 176.051 245.913 176.121 245.706 176.113C245.502 176.105 245.242 176.01 244.925 175.828L241.976 174.125L242.289 173.944C242.442 173.856 242.591 173.807 242.738 173.796C242.887 173.786 243.096 173.8 243.364 173.837L247.26 174.388L247.71 174.128L245.713 172.975L245.001 173.386L244.484 172.884L244.931 172.626Z" fill="url(#paint59_linear_2_117)"/>
<path d="M250.642 179.128C250.326 178.945 250.16 178.795 250.145 178.675C250.133 178.558 250.256 178.424 250.515 178.274L250.796 178.112L251.663 178.443L251.18 178.722L253.071 179.814C253.206 179.892 253.316 179.931 253.402 179.933C253.49 179.936 253.596 179.902 253.72 179.83L253.971 179.685C254.098 179.612 254.158 179.55 254.153 179.499C254.15 179.447 254.082 179.383 253.95 179.306L252.765 178.623L253.327 178.298L254.382 178.907C254.515 178.984 254.624 179.023 254.71 179.025C254.795 179.026 254.901 178.991 255.027 178.918L255.201 178.818C255.329 178.744 255.392 178.682 255.389 178.633C255.386 178.583 255.318 178.52 255.186 178.444L253.454 177.444L253.022 177.693L252.456 177.219L252.672 177.094C252.931 176.945 253.163 176.874 253.367 176.881C253.571 176.888 253.831 176.983 254.148 177.166L256.046 178.261C256.362 178.444 256.526 178.594 256.539 178.712C256.551 178.83 256.428 178.964 256.169 179.113L255.855 179.294C255.653 179.411 255.453 179.469 255.255 179.468C255.058 179.467 254.813 179.405 254.522 179.282C254.777 179.46 254.913 179.619 254.93 179.759C254.947 179.9 254.848 180.033 254.633 180.157L254.27 180.366C253.987 180.53 253.73 180.607 253.5 180.597C253.271 180.586 252.998 180.488 252.679 180.304L250.642 179.128Z" fill="url(#paint60_linear_2_117)"/>
<path d="M257.517 183.142L258.318 182.68L255.66 181.146L256.238 180.812L261.018 181.087L261.788 181.531L259.636 182.774L260.485 183.264L259.907 183.598L259.058 183.108L258.257 183.57L257.517 183.142ZM258.896 182.347L260.441 181.455L256.978 181.24L258.896 182.347Z" fill="url(#paint61_linear_2_117)"/>
<path d="M262.025 183.923L264.138 182.933L267.167 184.682L266.52 184.987L264.071 183.573L263.322 183.914C263.653 184.07 263.939 184.21 264.18 184.334C264.423 184.459 264.639 184.576 264.827 184.684C265.406 185.019 265.743 185.326 265.837 185.607C265.933 185.886 265.786 186.138 265.396 186.363C264.991 186.597 264.544 186.679 264.056 186.608C263.57 186.539 262.988 186.308 262.309 185.916C261.953 185.71 261.643 185.518 261.379 185.338C261.118 185.159 260.91 184.999 260.757 184.858L261.247 184.372C261.529 184.605 261.807 184.818 262.079 185.01C262.356 185.203 262.635 185.38 262.916 185.542C263.356 185.797 263.708 185.951 263.972 186.005C264.239 186.058 264.473 186.026 264.675 185.91C264.867 185.799 264.917 185.669 264.825 185.521C264.733 185.372 264.479 185.178 264.063 184.938C263.798 184.784 263.494 184.623 263.151 184.453C262.809 184.283 262.433 184.106 262.025 183.923Z" fill="url(#paint62_linear_2_117)"/>
<path d="M267.934 187.312C267.901 187.325 267.869 187.34 267.839 187.355C267.808 187.37 267.769 187.391 267.721 187.419C267.388 187.611 267.225 187.756 267.233 187.854C267.246 187.951 267.404 188.088 267.71 188.265L268.688 188.83C268.93 188.969 269.125 189.048 269.274 189.066C269.426 189.086 269.581 189.05 269.74 188.958L269.93 188.849C270.091 188.756 270.148 188.663 270.1 188.57C270.057 188.477 269.881 188.342 269.571 188.163C269.322 188.018 269.058 187.875 268.782 187.734C268.51 187.592 268.227 187.451 267.934 187.312ZM268.503 187.037C268.81 187.169 269.101 187.303 269.377 187.44C269.658 187.577 269.923 187.717 270.173 187.861C270.739 188.188 271.062 188.45 271.142 188.647C271.223 188.842 271.097 189.037 270.761 189.23L270.294 189.5C270.007 189.666 269.697 189.732 269.365 189.699C269.033 189.666 268.662 189.531 268.25 189.293L266.767 188.437C266.325 188.182 266.098 187.963 266.087 187.78C266.075 187.598 266.272 187.39 266.677 187.156L267.131 186.894C267.774 186.523 268.496 186.366 269.298 186.425C270.104 186.483 270.918 186.749 271.741 187.224C271.772 187.242 271.804 187.262 271.838 187.284C271.875 187.305 271.922 187.336 271.977 187.375L271.906 187.976L271.681 187.845C270.935 187.415 270.329 187.143 269.862 187.03C269.398 186.915 268.944 186.917 268.503 187.037Z" fill="url(#paint63_linear_2_117)"/>
</g>
<g opacity="0.6" filter="url(#filter4_f_2_117)">
<rect width="128.309" height="201.233" rx="12" transform="matrix(-0.866044 0.499967 -0.866044 -0.499967 389.399 141.61)" fill="url(#paint64_linear_2_117)"/>
</g>
<rect width="128.309" height="201.233" rx="12" transform="matrix(-0.866044 0.499967 -0.866044 -0.499967 389.399 141.61)" fill="url(#paint65_linear_2_117)"/>
<mask id="mask2_2_117" style="mask-type:alpha" maskUnits="userSpaceOnUse" x="110" y="44" width="274" height="159">
<rect width="128.309" height="201.233" rx="12" transform="matrix(-0.866044 0.499967 -0.866044 -0.499967 389.399 141.61)" fill="url(#paint66_linear_2_117)"/>
</mask>
<g mask="url(#mask2_2_117)">
<path fill-rule="evenodd" clip-rule="evenodd" d="M258.574 171.886C255.79 172.626 253.565 173.133 253.632 173.013C253.697 172.893 254.806 171.899 256.096 170.803C257.385 169.707 258.517 168.621 258.611 168.39C258.775 167.985 258.672 167.906 256.028 166.391L253.274 164.813L254.012 165.772C254.418 166.299 254.835 166.853 254.939 167.004C255.05 167.164 254.752 167.652 254.222 168.18C253.723 168.676 252.129 170.267 250.68 171.714L248.044 174.346L249.467 175.234L250.89 176.122L258.28 174.323C262.345 173.333 265.886 172.465 266.149 172.395C266.578 172.281 266.473 172.178 265.132 171.404L263.636 170.541L258.574 171.886ZM267.039 173.255C266.619 173.425 264.031 174.501 261.287 175.645C258.543 176.79 255.955 177.866 255.537 178.037L254.775 178.348L256.18 179.158C257.472 179.905 257.628 179.953 258.137 179.769C258.84 179.515 270.156 174.797 270.4 174.656C270.501 174.598 269.957 174.19 269.193 173.748L267.803 172.946L267.039 173.255ZM274.011 176.869C271.796 176.262 269.021 176.603 267.802 177.633C267.127 178.202 267.154 179.435 267.868 180.696C268.555 181.905 268.019 182.505 266.501 182.226C265.294 182.005 264.12 181.296 263.376 180.339L262.761 179.548L261.708 180.011C261.13 180.265 260.47 180.535 260.243 180.609C259.68 180.795 260.714 181.776 262.647 182.892C265.076 184.294 267.256 184.698 269.587 184.178C272.222 183.59 272.83 182.471 271.728 180.235C271.114 178.988 271.427 178.529 272.783 178.692C273.631 178.794 275.057 179.624 275.808 180.454C276.127 180.807 276.296 180.779 277.921 180.112C278.714 179.787 278.767 179.712 278.475 179.336C278.007 178.735 275.24 177.206 274.011 176.869ZM283.71 182.284C283.426 182.176 282.905 182.097 282.553 182.108C282.079 182.124 271.675 184.508 267.69 185.515C267.43 185.58 267.724 185.823 268.846 186.471L270.349 187.338L271.482 187.011L272.614 186.684L274.498 187.706L276.382 188.727L275.949 189.121C274.932 190.044 274.918 189.976 276.287 190.766L277.568 191.506L278.088 191.056C278.374 190.809 280.355 189.071 282.49 187.194L286.371 183.781L285.299 183.131C284.709 182.773 283.994 182.392 283.71 182.284ZM279.598 185.928L278.125 187.213L276.931 186.523C275.873 185.912 275.792 185.819 276.227 185.712C276.496 185.646 277.752 185.315 279.018 184.978C280.284 184.64 281.263 184.427 281.195 184.504C281.126 184.58 280.407 185.221 279.598 185.928Z" fill="#FFFEFE"/>
<g opacity="0.6">
<rect width="23.5388" height="30.9235" rx="5" transform="matrix(-0.866044 0.499967 -0.866044 -0.499967 197.934 95.2281)" fill="#14EFFD" stroke="#2F333C"/>
<rect width="16.1541" height="6.46162" rx="3.23081" transform="matrix(-0.866044 0.499967 -0.866044 -0.499967 183.944 90.8437)" stroke="#2F333C"/>
<path d="M166.99 82.1077L178.172 88.5627" stroke="#2F333C"/>
<path d="M182.601 91.1197L193.782 97.5747" stroke="#2F333C"/>
<path d="M160.986 85.5738L171.551 91.6727" stroke="#2F333C"/>
<path d="M177.197 94.9323L187.762 101.031" stroke="#2F333C"/>
<path d="M154.982 89.0399L166.164 95.4949" stroke="#2F333C"/>
<path d="M170.593 98.0518L181.774 104.507" stroke="#2F333C"/>
</g>
<path d="M353.792 134.817L359.546 138.139L353.792 141.461L353.792 134.817Z" fill="#FFFEFE"/>
<path d="M336.528 131.495L342.283 134.817L348.037 131.495L336.528 131.495Z" fill="#FFFEFE"/>
<path d="M359.546 138.139L365.301 141.461L359.546 144.783L359.546 138.139Z" fill="#FFFEFE"/>
<path d="M342.283 134.817L348.037 138.139L353.792 134.817L342.283 134.817Z" fill="#FFFEFE"/>
<g filter="url(#filter5_i_2_117)">
<path d="M180.529 75.0718L183.37 73.4321L182.623 73.0011L183.091 72.7311L184.803 73.4589L181.269 75.4989L180.529 75.0718Z" fill="url(#paint67_linear_2_117)"/>
<path d="M187.152 75.6387C187.415 75.4868 187.65 75.414 187.855 75.4204C188.061 75.4268 188.322 75.5212 188.638 75.7039L190.44 76.744C190.756 76.9266 190.92 77.0772 190.931 77.196C190.944 77.316 190.819 77.452 190.556 77.604L190.331 77.7342C190.16 77.8326 190.003 77.8926 189.859 77.9143C189.718 77.9373 189.486 77.9271 189.163 77.8837L185.851 77.4163L187.889 78.5924L188.406 78.2936L188.871 78.7724L188.592 78.9333C188.329 79.0853 188.093 79.1574 187.885 79.1498C187.68 79.1434 187.419 79.0489 187.102 78.8663L184.153 77.1634L184.471 76.9796C184.626 76.8902 184.777 76.8397 184.926 76.8282C185.076 76.818 185.286 76.8308 185.556 76.8665L189.475 77.4048L189.932 77.1405L187.935 75.9873L187.212 76.4049L186.697 75.9011L187.152 75.6387Z" fill="url(#paint68_linear_2_117)"/>
<path d="M190.185 80.6458C189.868 80.4631 189.704 80.3118 189.69 80.1918C189.679 80.073 189.805 79.9377 190.068 79.7857L190.354 79.621L191.223 79.9504L190.732 80.2339L192.623 81.3257C192.758 81.4036 192.869 81.4432 192.955 81.4445C193.044 81.4471 193.151 81.4119 193.277 81.3392L193.532 81.1917C193.661 81.1176 193.723 81.055 193.718 81.0039C193.716 80.9516 193.649 80.8871 193.516 80.8105L192.331 80.1267L192.902 79.7972L193.957 80.4063C194.09 80.4829 194.199 80.5219 194.286 80.5232C194.372 80.5244 194.479 80.4881 194.607 80.414L194.783 80.3125C194.914 80.2371 194.978 80.1746 194.976 80.1248C194.974 80.0749 194.906 80.0117 194.773 79.9351L193.041 78.9352L192.603 79.1881L192.039 78.7131L192.258 78.5866C192.522 78.4347 192.756 78.3619 192.962 78.3683C193.167 78.3747 193.428 78.4691 193.745 78.6518L195.643 79.7474C195.959 79.93 196.123 80.0807 196.134 80.1995C196.145 80.3182 196.019 80.4536 195.755 80.6055L195.437 80.7894C195.231 80.9082 195.029 80.9676 194.83 80.9676C194.631 80.9676 194.385 80.9063 194.093 80.7837C194.348 80.9612 194.483 81.1208 194.498 81.2625C194.513 81.4043 194.412 81.5384 194.193 81.6648L193.824 81.8774C193.537 82.0434 193.277 82.1219 193.045 82.113C192.815 82.1028 192.54 82.0057 192.222 81.8219L190.185 80.6458Z" fill="url(#paint69_linear_2_117)"/>
<path d="M197.059 84.6606L197.872 84.1913L195.215 82.657L195.802 82.318L200.616 82.5727L201.386 83.0171L199.2 84.2794L200.049 84.7698L199.462 85.1088L198.612 84.6184L197.799 85.0877L197.059 84.6606ZM198.46 83.8522L200.029 82.9462L196.542 82.7451L198.46 83.8522Z" fill="url(#paint70_linear_2_117)"/>
<path d="M204.226 86.9476L206.37 85.9401L209.399 87.6889L208.742 87.9992L206.293 86.5856L205.534 86.9323C205.865 87.0881 206.152 87.2279 206.393 87.3518C206.636 87.4769 206.852 87.5938 207.04 87.7023C207.619 88.0369 207.955 88.3453 208.045 88.6275C208.138 88.9084 207.987 89.1632 207.591 89.3918C207.179 89.6293 206.728 89.7136 206.237 89.6446C205.748 89.5769 205.164 89.3471 204.485 88.955C204.129 88.7495 203.819 88.5566 203.556 88.3766C203.295 88.1978 203.088 88.0375 202.936 87.8958L203.437 87.4035C203.718 87.6372 203.994 87.8505 204.266 88.0433C204.543 88.2361 204.821 88.4136 205.102 88.5758C205.542 88.8299 205.895 88.9838 206.161 89.0374C206.428 89.0898 206.665 89.0566 206.871 88.9378C207.065 88.8254 207.117 88.6945 207.027 88.5451C206.936 88.3957 206.683 88.201 206.267 87.9609C206.001 87.8077 205.697 87.6461 205.354 87.4763C205.012 87.3065 204.635 87.1302 204.226 86.9476Z" fill="url(#paint71_linear_2_117)"/>
<path d="M210.136 90.3361C210.102 90.3501 210.07 90.3648 210.039 90.3802C210.008 90.3955 209.969 90.4172 209.92 90.4453C209.581 90.6407 209.416 90.7875 209.422 90.8858C209.433 90.9842 209.591 91.1214 209.897 91.2977L210.875 91.8627C211.117 92.0019 211.312 92.0804 211.463 92.0983C211.615 92.1175 211.772 92.0804 211.934 91.9872L212.126 91.8761C212.29 91.7816 212.349 91.6878 212.302 91.5946C212.26 91.5013 212.084 91.3653 211.775 91.1866C211.525 91.0423 211.261 90.8992 210.985 90.7575C210.713 90.6158 210.43 90.4753 210.136 90.3361ZM210.713 90.0564C211.02 90.188 211.312 90.3221 211.589 90.4587C211.87 90.5953 212.135 90.7358 212.385 90.8801C212.951 91.207 213.273 91.4694 213.351 91.6673C213.43 91.864 213.3 92.0607 212.959 92.2573L212.485 92.5312C212.193 92.6998 211.88 92.7681 211.546 92.7362C211.212 92.7043 210.839 92.5695 210.428 92.332L208.944 91.4758C208.502 91.2204 208.276 91.0008 208.268 90.8169C208.259 90.633 208.46 90.4223 208.871 90.1848L209.333 89.9185C209.985 89.5418 210.715 89.3809 211.523 89.4358C212.334 89.4907 213.152 89.7557 213.974 90.2307C214.005 90.2486 214.038 90.2684 214.071 90.2901C214.108 90.3118 214.155 90.3425 214.21 90.3821L214.13 90.9874L213.905 90.8571C213.159 90.4268 212.552 90.1554 212.083 90.043C211.617 89.9294 211.16 89.9339 210.713 90.0564Z" fill="url(#paint72_linear_2_117)"/>
<path d="M214.12 94.5329L218.981 93.9104L216.662 92.5714L215.906 93.0082L215.295 92.5063L216.519 91.7995L220.415 94.0483L219.851 94.3739L215.013 95.0481L214.12 94.5329Z" fill="url(#paint73_linear_2_117)"/>
<path d="M224.771 96.5633C225.087 96.7459 225.251 96.8966 225.262 97.0153C225.275 97.1354 225.151 97.2714 224.887 97.4233L224.569 97.6072C224.365 97.7247 224.163 97.7841 223.962 97.7853C223.76 97.7866 223.511 97.7285 223.215 97.611C223.445 97.777 223.565 97.9277 223.573 98.0631C223.582 98.1984 223.48 98.3274 223.268 98.45L222.9 98.6626C222.614 98.8274 222.355 98.9046 222.12 98.8944C221.888 98.8855 221.611 98.7884 221.291 98.6032L219.051 97.3103C218.732 97.1264 218.564 96.9681 218.547 96.8353C218.531 96.7012 218.667 96.5511 218.955 96.3851L219.323 96.1725C219.533 96.0512 219.755 95.9931 219.99 95.9982C220.227 96.002 220.487 96.0691 220.77 96.1993C220.571 96.0282 220.471 95.8839 220.471 95.7664C220.473 95.6502 220.575 95.534 220.776 95.4178L221.095 95.2339C221.358 95.082 221.593 95.0092 221.798 95.0156C222.006 95.0232 222.268 95.1184 222.585 95.301L224.771 96.5633ZM223.902 96.751L222.266 95.8067C222.131 95.7288 222.018 95.6892 221.928 95.6879C221.839 95.6854 221.731 95.7211 221.603 95.7952L221.427 95.8967C221.301 95.9695 221.239 96.0321 221.241 96.0844C221.245 96.1355 221.315 96.2 221.45 96.2779L223.086 97.2222C223.218 97.2988 223.328 97.3378 223.414 97.339C223.503 97.3416 223.611 97.3058 223.739 97.2318L223.915 97.1303C224.046 97.0549 224.109 96.9917 224.104 96.9406C224.102 96.8908 224.035 96.8276 223.902 96.751ZM222.591 97.5957L220.796 96.5594C220.664 96.4828 220.554 96.4439 220.468 96.4426C220.381 96.4413 220.273 96.4784 220.143 96.5537L219.887 96.7012C219.759 96.7753 219.695 96.8366 219.695 96.8851C219.697 96.9323 219.767 96.9955 219.904 97.0747L221.699 98.111C221.834 98.1889 221.942 98.2285 222.024 98.2297C222.11 98.231 222.217 98.1946 222.346 98.1206L222.601 97.9731C222.732 97.8977 222.796 97.8351 222.794 97.7853C222.791 97.7355 222.724 97.6723 222.591 97.5957Z" fill="url(#paint74_linear_2_117)"/>
<path d="M230.591 102.363C230.299 102.241 230.014 102.11 229.735 101.973C229.458 101.833 229.188 101.688 228.925 101.536C228.359 101.209 228.035 100.947 227.953 100.749C227.876 100.551 228.006 100.354 228.345 100.159L228.816 99.8866C229.108 99.718 229.42 99.6491 229.751 99.6797C230.085 99.7117 230.458 99.8464 230.87 100.084L232.349 100.938C232.792 101.194 233.017 101.413 233.026 101.597C233.035 101.781 232.834 101.992 232.422 102.229L231.961 102.495C231.309 102.872 230.579 103.033 229.771 102.978C228.964 102.923 228.149 102.658 227.326 102.183C227.257 102.144 227.207 102.113 227.173 102.091C227.14 102.072 227.11 102.052 227.084 102.032L227.163 101.43L227.386 101.559C228.133 101.99 228.742 102.262 229.211 102.375C229.682 102.488 230.142 102.485 230.591 102.363ZM231.168 102.076C231.215 102.057 231.257 102.038 231.294 102.019C231.336 101.999 231.371 101.982 231.397 101.967C231.742 101.768 231.911 101.618 231.905 101.517C231.898 101.416 231.741 101.277 231.434 101.099L230.461 100.538C230.216 100.396 230.016 100.316 229.861 100.298C229.706 100.281 229.545 100.32 229.377 100.417L229.181 100.53C229.01 100.629 228.947 100.725 228.992 100.819C229.036 100.914 229.215 101.052 229.529 101.233C229.75 101.361 229.998 101.496 230.272 101.639C230.551 101.782 230.85 101.928 231.168 102.076Z" fill="url(#paint75_linear_2_117)"/>
<path d="M232.698 104.461L235.203 105.907L237.482 104.591L234.977 103.145L232.698 104.461ZM234.012 102.856C234.332 102.67 234.606 102.577 234.831 102.574C235.061 102.571 235.331 102.66 235.641 102.838L238.013 104.208C238.325 104.388 238.478 104.544 238.471 104.675C238.469 104.807 238.307 104.965 237.987 105.15L236.139 106.217C235.818 106.402 235.542 106.496 235.312 106.499C235.087 106.501 234.818 106.413 234.506 106.233L232.134 104.863C231.824 104.684 231.67 104.529 231.673 104.398C231.679 104.266 231.843 104.108 232.164 103.922L234.012 102.856Z" fill="url(#paint76_linear_2_117)"/>
<path d="M238.355 108.454L241.195 106.815L240.449 106.384L240.916 106.114L242.628 106.842L239.095 108.882L238.355 108.454Z" fill="url(#paint77_linear_2_117)"/>
<path d="M244.978 109.021C245.241 108.87 245.475 108.797 245.681 108.803C245.887 108.809 246.148 108.904 246.464 109.087L248.266 110.127C248.582 110.309 248.746 110.46 248.757 110.579C248.77 110.699 248.645 110.835 248.382 110.987L248.156 111.117C247.986 111.215 247.829 111.275 247.685 111.297C247.544 111.32 247.311 111.31 246.988 111.266L243.677 110.799L245.714 111.975L246.232 111.676L246.696 112.155L246.418 112.316C246.154 112.468 245.919 112.54 245.711 112.533C245.505 112.526 245.244 112.432 244.928 112.249L241.978 110.546L242.297 110.362C242.452 110.273 242.603 110.222 242.751 110.211C242.902 110.201 243.112 110.214 243.382 110.249L247.3 110.788L247.758 110.523L245.761 109.37L245.037 109.788L244.523 109.284L244.978 109.021Z" fill="url(#paint78_linear_2_117)"/>
<path d="M250.645 115.549C250.328 115.367 250.164 115.215 250.15 115.095C250.139 114.977 250.265 114.841 250.529 114.689L250.814 114.525L251.683 114.854L251.192 115.138L253.083 116.229C253.218 116.307 253.329 116.347 253.415 116.348C253.504 116.351 253.611 116.316 253.737 116.243L253.993 116.095C254.121 116.021 254.183 115.959 254.178 115.908C254.176 115.855 254.109 115.791 253.976 115.714L252.791 115.03L253.362 114.701L254.417 115.31C254.55 115.387 254.659 115.426 254.746 115.427C254.832 115.428 254.939 115.392 255.068 115.318L255.243 115.216C255.374 115.141 255.438 115.078 255.436 115.028C255.434 114.979 255.366 114.915 255.233 114.839L253.501 113.839L253.064 114.092L252.499 113.617L252.718 113.49C252.982 113.338 253.216 113.265 253.422 113.272C253.628 113.278 253.889 113.373 254.205 113.555L256.103 114.651C256.419 114.834 256.583 114.984 256.594 115.103C256.605 115.222 256.479 115.357 256.216 115.509L255.897 115.693C255.691 115.812 255.489 115.871 255.29 115.871C255.091 115.871 254.845 115.81 254.553 115.687C254.808 115.865 254.943 116.024 254.958 116.166C254.974 116.308 254.872 116.442 254.653 116.568L254.285 116.781C253.997 116.947 253.737 117.026 253.505 117.017C253.275 117.006 253 116.909 252.682 116.725L250.645 115.549Z" fill="url(#paint79_linear_2_117)"/>
<path d="M257.52 119.564L258.332 119.095L255.675 117.561L256.262 117.222L261.076 117.476L261.846 117.921L259.66 119.183L260.509 119.673L259.922 120.012L259.072 119.522L258.259 119.991L257.52 119.564ZM258.92 118.756L260.489 117.85L257.002 117.649L258.92 118.756Z" fill="url(#paint80_linear_2_117)"/>
<path d="M262.052 120.33L264.195 119.323L267.225 121.072L266.568 121.382L264.119 119.968L263.359 120.315C263.691 120.471 263.977 120.611 264.219 120.735C264.462 120.86 264.678 120.977 264.866 121.085C265.445 121.42 265.78 121.728 265.871 122.01C265.964 122.291 265.812 122.546 265.416 122.775C265.005 123.012 264.554 123.096 264.063 123.027C263.574 122.96 262.99 122.73 262.311 122.338C261.955 122.132 261.645 121.939 261.382 121.759C261.121 121.581 260.914 121.42 260.761 121.279L261.262 120.786C261.543 121.02 261.82 121.233 262.092 121.426C262.368 121.619 262.647 121.796 262.928 121.959C263.368 122.213 263.721 122.367 263.986 122.42C264.254 122.473 264.491 122.439 264.696 122.321C264.891 122.208 264.943 122.077 264.852 121.928C264.762 121.778 264.508 121.584 264.092 121.344C263.827 121.19 263.523 121.029 263.18 120.859C262.837 120.689 262.461 120.513 262.052 120.33Z" fill="url(#paint81_linear_2_117)"/>
<path d="M267.961 123.719C267.928 123.733 267.896 123.748 267.865 123.763C267.834 123.778 267.794 123.8 267.746 123.828C267.407 124.023 267.241 124.17 267.248 124.269C267.259 124.367 267.417 124.504 267.722 124.68L268.701 125.245C268.942 125.385 269.138 125.463 269.288 125.481C269.441 125.5 269.598 125.463 269.76 125.37L269.952 125.259C270.116 125.164 270.174 125.071 270.128 124.977C270.086 124.884 269.91 124.748 269.6 124.569C269.35 124.425 269.087 124.282 268.811 124.14C268.539 123.998 268.255 123.858 267.961 123.719ZM268.539 123.439C268.846 123.571 269.138 123.705 269.414 123.841C269.695 123.978 269.961 124.119 270.211 124.263C270.777 124.59 271.099 124.852 271.176 125.05C271.256 125.247 271.125 125.443 270.785 125.64L270.31 125.914C270.018 126.083 269.705 126.151 269.371 126.119C269.037 126.087 268.665 125.952 268.253 125.715L266.77 124.859C266.328 124.603 266.102 124.384 266.093 124.2C266.084 124.016 266.286 123.805 266.697 123.568L267.158 123.301C267.811 122.925 268.541 122.764 269.348 122.819C270.16 122.873 270.977 123.138 271.8 123.613C271.831 123.631 271.863 123.651 271.896 123.673C271.934 123.695 271.98 123.725 272.036 123.765L271.956 124.37L271.73 124.24C270.985 123.81 270.378 123.538 269.909 123.426C269.442 123.312 268.985 123.317 268.539 123.439Z" fill="url(#paint82_linear_2_117)"/>
</g>
</g>
<defs>
<filter id="filter0_f_2_117" x="66.0878" y="120.515" width="361.221" height="245.73" filterUnits="userSpaceOnUse" color-interpolation-filters="sRGB">
<feFlood flood-opacity="0" result="BackgroundImageFix"/>
<feBlend mode="normal" in="SourceGraphic" in2="BackgroundImageFix" result="shape"/>
<feGaussianBlur stdDeviation="22" result="effect1_foregroundBlur_2_117"/>
</filter>
<filter id="filter1_i_2_117" x="180.64" y="192.667" width="93.5049" height="54.3946" filterUnits="userSpaceOnUse" color-interpolation-filters="sRGB">
<feFlood flood-opacity="0" result="BackgroundImageFix"/>
<feBlend mode="normal" in="SourceGraphic" in2="BackgroundImageFix" result="shape"/>
<feColorMatrix in="SourceAlpha" type="matrix" values="0 0 0 0 0 0 0 0 0 0 0 0 0 0 0 0 0 0 127 0" result="hardAlpha"/>
<feOffset dx="2" dy="1"/>
<feGaussianBlur stdDeviation="1"/>
<feComposite in2="hardAlpha" operator="arithmetic" k2="-1" k3="1"/>
<feColorMatrix type="matrix" values="0 0 0 0 0 0 0 0 0 0 0 0 0 0 0 0 0 0 0.15 0"/>
<feBlend mode="normal" in2="shape" result="effect1_innerShadow_2_117"/>
</filter>
<filter id="filter2_f_2_117" x="67.0879" y="64.5145" width="359.49" height="244.731" filterUnits="userSpaceOnUse" color-interpolation-filters="sRGB">
<feFlood flood-opacity="0" result="BackgroundImageFix"/>
<feBlend mode="normal" in="SourceGraphic" in2="BackgroundImageFix" result="shape"/>
<feGaussianBlur stdDeviation="22" result="effect1_foregroundBlur_2_117"/>
</filter>
<filter id="filter3_i_2_117" x="180.528" y="136.34" width="93.4491" height="54.3674" filterUnits="userSpaceOnUse" color-interpolation-filters="sRGB">
<feFlood flood-opacity="0" result="BackgroundImageFix"/>
<feBlend mode="normal" in="SourceGraphic" in2="BackgroundImageFix" result="shape"/>
<feColorMatrix in="SourceAlpha" type="matrix" values="0 0 0 0 0 0 0 0 0 0 0 0 0 0 0 0 0 0 127 0" result="hardAlpha"/>
<feOffset dx="2" dy="1"/>
<feGaussianBlur stdDeviation="1"/>
<feComposite in2="hardAlpha" operator="arithmetic" k2="-1" k3="1"/>
<feColorMatrix type="matrix" values="0 0 0 0 0 0 0 0 0 0 0 0 0 0 0 0 0 0 0.15 0"/>
<feBlend mode="normal" in2="shape" result="effect1_innerShadow_2_117"/>
</filter>
<filter id="filter4_f_2_117" x="66.0879" y="0.514511" width="361.223" height="245.732" filterUnits="userSpaceOnUse" color-interpolation-filters="sRGB">
<feFlood flood-opacity="0" result="BackgroundImageFix"/>
<feBlend mode="normal" in="SourceGraphic" in2="BackgroundImageFix" result="shape"/>
<feGaussianBlur stdDeviation="22" result="effect1_foregroundBlur_2_117"/>
</filter>
<filter id="filter5_i_2_117" x="180.529" y="72.731" width="93.5063" height="54.3955" filterUnits="userSpaceOnUse" color-interpolation-filters="sRGB">
<feFlood flood-opacity="0" result="BackgroundImageFix"/>
<feBlend mode="normal" in="SourceGraphic" in2="BackgroundImageFix" result="shape"/>
<feColorMatrix in="SourceAlpha" type="matrix" values="0 0 0 0 0 0 0 0 0 0 0 0 0 0 0 0 0 0 127 0" result="hardAlpha"/>
<feOffset dx="2" dy="1"/>
<feGaussianBlur stdDeviation="1"/>
<feComposite in2="hardAlpha" operator="arithmetic" k2="-1" k3="1"/>
<feColorMatrix type="matrix" values="0 0 0 0 0 0 0 0 0 0 0 0 0 0 0 0 0 0 0.15 0"/>
<feBlend mode="normal" in2="shape" result="effect1_innerShadow_2_117"/>
</filter>
<linearGradient id="paint0_linear_2_117" x1="64.155" y1="0" x2="64.155" y2="201.23" gradientUnits="userSpaceOnUse">
<stop stop-color="#6B8CFF"/>
<stop offset="1" stop-color="#52FFFF"/>
</linearGradient>
<linearGradient id="paint1_linear_2_117" x1="64.155" y1="0" x2="64.155" y2="201.23" gradientUnits="userSpaceOnUse">
<stop stop-color="#6B8CFF"/>
<stop offset="1" stop-color="#52FFFF"/>
</linearGradient>
<linearGradient id="paint2_linear_2_117" x1="64.155" y1="0" x2="64.155" y2="201.23" gradientUnits="userSpaceOnUse">
<stop stop-color="#E42C64"/>
<stop offset="1" stop-color="#614AD3"/>
</linearGradient>
<linearGradient id="paint3_linear_2_117" x1="278.172" y1="239.987" x2="259.632" y2="272.102" gradientUnits="userSpaceOnUse">
<stop stop-color="#7A3131" stop-opacity="0.5"/>
<stop offset="1" stop-color="#C05555" stop-opacity="0.1"/>
</linearGradient>
<linearGradient id="paint4_linear_2_117" x1="278.172" y1="239.987" x2="259.632" y2="272.102" gradientUnits="userSpaceOnUse">
<stop stop-color="#7A3131" stop-opacity="0.5"/>
<stop offset="1" stop-color="#C05555" stop-opacity="0.1"/>
</linearGradient>
<linearGradient id="paint5_linear_2_117" x1="278.172" y1="239.987" x2="259.632" y2="272.102" gradientUnits="userSpaceOnUse">
<stop stop-color="#7A3131" stop-opacity="0.5"/>
<stop offset="1" stop-color="#C05555" stop-opacity="0.1"/>
</linearGradient>
<linearGradient id="paint6_linear_2_117" x1="278.172" y1="239.987" x2="259.632" y2="272.102" gradientUnits="userSpaceOnUse">
<stop stop-color="#7A3131" stop-opacity="0.5"/>
<stop offset="1" stop-color="#C05555" stop-opacity="0.1"/>
</linearGradient>
<linearGradient id="paint7_linear_2_117" x1="315.257" y1="218.578" x2="296.717" y2="250.693" gradientUnits="userSpaceOnUse">
<stop stop-color="#7A3131" stop-opacity="0.5"/>
<stop offset="1" stop-color="#C05555" stop-opacity="0.1"/>
</linearGradient>
<linearGradient id="paint8_linear_2_117" x1="315.257" y1="218.578" x2="296.717" y2="250.693" gradientUnits="userSpaceOnUse">
<stop stop-color="#7A3131" stop-opacity="0.5"/>
<stop offset="1" stop-color="#C05555" stop-opacity="0.1"/>
</linearGradient>
<linearGradient id="paint9_linear_2_117" x1="315.257" y1="218.578" x2="296.717" y2="250.693" gradientUnits="userSpaceOnUse">
<stop stop-color="#7A3131" stop-opacity="0.5"/>
<stop offset="1" stop-color="#C05555" stop-opacity="0.1"/>
</linearGradient>
<linearGradient id="paint10_linear_2_117" x1="315.257" y1="218.578" x2="296.717" y2="250.693" gradientUnits="userSpaceOnUse">
<stop stop-color="#7A3131" stop-opacity="0.5"/>
<stop offset="1" stop-color="#C05555" stop-opacity="0.1"/>
</linearGradient>
<linearGradient id="paint11_linear_2_117" x1="241.087" y1="261.396" x2="222.546" y2="293.511" gradientUnits="userSpaceOnUse">
<stop stop-color="#7A3131" stop-opacity="0.5"/>
<stop offset="1" stop-color="#C05555" stop-opacity="0.1"/>
</linearGradient>
<linearGradient id="paint12_linear_2_117" x1="241.087" y1="261.396" x2="222.546" y2="293.511" gradientUnits="userSpaceOnUse">
<stop stop-color="#7A3131" stop-opacity="0.5"/>
<stop offset="1" stop-color="#C05555" stop-opacity="0.1"/>
</linearGradient>
<linearGradient id="paint13_linear_2_117" x1="241.087" y1="261.396" x2="222.546" y2="293.511" gradientUnits="userSpaceOnUse">
<stop stop-color="#7A3131" stop-opacity="0.5"/>
<stop offset="1" stop-color="#C05555" stop-opacity="0.1"/>
</linearGradient>
<linearGradient id="paint14_linear_2_117" x1="241.087" y1="261.396" x2="222.546" y2="293.511" gradientUnits="userSpaceOnUse">
<stop stop-color="#7A3131" stop-opacity="0.5"/>
<stop offset="1" stop-color="#C05555" stop-opacity="0.1"/>
</linearGradient>
<linearGradient id="paint15_linear_2_117" x1="0.905342" y1="1.21266" x2="22.4607" y2="30.8291" gradientUnits="userSpaceOnUse">
<stop stop-color="#A496AF"/>
<stop offset="1" stop-color="#7E6691" stop-opacity="0.3"/>
</linearGradient>
<linearGradient id="paint16_linear_2_117" x1="176.621" y1="194.55" x2="245.957" y2="314.654" gradientUnits="userSpaceOnUse">
<stop stop-color="#315468"/>
<stop offset="1" stop-color="#4D6082"/>
</linearGradient>
<linearGradient id="paint17_linear_2_117" x1="176.621" y1="194.55" x2="245.957" y2="314.654" gradientUnits="userSpaceOnUse">
<stop stop-color="#315468"/>
<stop offset="1" stop-color="#4D6082"/>
</linearGradient>
<linearGradient id="paint18_linear_2_117" x1="176.621" y1="194.55" x2="245.957" y2="314.654" gradientUnits="userSpaceOnUse">
<stop stop-color="#315468"/>
<stop offset="1" stop-color="#4D6082"/>
</linearGradient>
<linearGradient id="paint19_linear_2_117" x1="176.621" y1="194.55" x2="245.957" y2="314.654" gradientUnits="userSpaceOnUse">
<stop stop-color="#315468"/>
<stop offset="1" stop-color="#4D6082"/>
</linearGradient>
<linearGradient id="paint20_linear_2_117" x1="176.621" y1="194.55" x2="245.957" y2="314.654" gradientUnits="userSpaceOnUse">
<stop stop-color="#315468"/>
<stop offset="1" stop-color="#4D6082"/>
</linearGradient>
<linearGradient id="paint21_linear_2_117" x1="176.621" y1="194.55" x2="245.957" y2="314.654" gradientUnits="userSpaceOnUse">
<stop stop-color="#315468"/>
<stop offset="1" stop-color="#4D6082"/>
</linearGradient>
<linearGradient id="paint22_linear_2_117" x1="176.621" y1="194.55" x2="245.957" y2="314.654" gradientUnits="userSpaceOnUse">
<stop stop-color="#315468"/>
<stop offset="1" stop-color="#4D6082"/>
</linearGradient>
<linearGradient id="paint23_linear_2_117" x1="176.621" y1="194.55" x2="245.957" y2="314.654" gradientUnits="userSpaceOnUse">
<stop stop-color="#315468"/>
<stop offset="1" stop-color="#4D6082"/>
</linearGradient>
<linearGradient id="paint24_linear_2_117" x1="176.621" y1="194.55" x2="245.957" y2="314.654" gradientUnits="userSpaceOnUse">
<stop stop-color="#315468"/>
<stop offset="1" stop-color="#4D6082"/>
</linearGradient>
<linearGradient id="paint25_linear_2_117" x1="176.621" y1="194.55" x2="245.957" y2="314.654" gradientUnits="userSpaceOnUse">
<stop stop-color="#315468"/>
<stop offset="1" stop-color="#4D6082"/>
</linearGradient>
<linearGradient id="paint26_linear_2_117" x1="176.621" y1="194.55" x2="245.957" y2="314.654" gradientUnits="userSpaceOnUse">
<stop stop-color="#315468"/>
<stop offset="1" stop-color="#4D6082"/>
</linearGradient>
<linearGradient id="paint27_linear_2_117" x1="176.621" y1="194.55" x2="245.957" y2="314.654" gradientUnits="userSpaceOnUse">
<stop stop-color="#315468"/>
<stop offset="1" stop-color="#4D6082"/>
</linearGradient>
<linearGradient id="paint28_linear_2_117" x1="176.621" y1="194.55" x2="245.957" y2="314.654" gradientUnits="userSpaceOnUse">
<stop stop-color="#315468"/>
<stop offset="1" stop-color="#4D6082"/>
</linearGradient>
<linearGradient id="paint29_linear_2_117" x1="176.621" y1="194.55" x2="245.957" y2="314.654" gradientUnits="userSpaceOnUse">
<stop stop-color="#315468"/>
<stop offset="1" stop-color="#4D6082"/>
</linearGradient>
<linearGradient id="paint30_linear_2_117" x1="176.621" y1="194.55" x2="245.957" y2="314.654" gradientUnits="userSpaceOnUse">
<stop stop-color="#315468"/>
<stop offset="1" stop-color="#4D6082"/>
</linearGradient>
<linearGradient id="paint31_linear_2_117" x1="176.621" y1="194.55" x2="245.957" y2="314.654" gradientUnits="userSpaceOnUse">
<stop stop-color="#315468"/>
<stop offset="1" stop-color="#4D6082"/>
</linearGradient>
<linearGradient id="paint32_linear_2_117" x1="63.1561" y1="0" x2="63.1561" y2="201.23" gradientUnits="userSpaceOnUse">
<stop stop-color="#E42C64"/>
<stop offset="1" stop-color="#614AD3"/>
</linearGradient>
<linearGradient id="paint33_linear_2_117" x1="63.1561" y1="0" x2="63.1561" y2="201.23" gradientUnits="userSpaceOnUse">
<stop stop-color="#E42C64"/>
<stop offset="1" stop-color="#614AD3"/>
</linearGradient>
<linearGradient id="paint34_linear_2_117" x1="63.1561" y1="0" x2="63.1561" y2="201.23" gradientUnits="userSpaceOnUse">
<stop stop-color="#E42C64"/>
<stop offset="1" stop-color="#614AD3"/>
</linearGradient>
<linearGradient id="paint35_linear_2_117" x1="277.907" y1="183.719" x2="259.655" y2="215.334" gradientUnits="userSpaceOnUse">
<stop stop-color="white" stop-opacity="0.5"/>
<stop offset="1" stop-color="white" stop-opacity="0.1"/>
</linearGradient>
<linearGradient id="paint36_linear_2_117" x1="277.907" y1="183.719" x2="259.655" y2="215.334" gradientUnits="userSpaceOnUse">
<stop stop-color="white" stop-opacity="0.5"/>
<stop offset="1" stop-color="white" stop-opacity="0.1"/>
</linearGradient>
<linearGradient id="paint37_linear_2_117" x1="277.907" y1="183.719" x2="259.655" y2="215.334" gradientUnits="userSpaceOnUse">
<stop stop-color="white" stop-opacity="0.5"/>
<stop offset="1" stop-color="white" stop-opacity="0.1"/>
</linearGradient>
<linearGradient id="paint38_linear_2_117" x1="277.907" y1="183.719" x2="259.655" y2="215.334" gradientUnits="userSpaceOnUse">
<stop stop-color="white" stop-opacity="0.5"/>
<stop offset="1" stop-color="white" stop-opacity="0.1"/>
</linearGradient>
<linearGradient id="paint39_linear_2_117" x1="314.414" y1="162.643" x2="296.163" y2="194.258" gradientUnits="userSpaceOnUse">
<stop stop-color="white" stop-opacity="0.5"/>
<stop offset="1" stop-color="white" stop-opacity="0.1"/>
</linearGradient>
<linearGradient id="paint40_linear_2_117" x1="314.414" y1="162.643" x2="296.163" y2="194.258" gradientUnits="userSpaceOnUse">
<stop stop-color="white" stop-opacity="0.5"/>
<stop offset="1" stop-color="white" stop-opacity="0.1"/>
</linearGradient>
<linearGradient id="paint41_linear_2_117" x1="314.414" y1="162.643" x2="296.163" y2="194.258" gradientUnits="userSpaceOnUse">
<stop stop-color="white" stop-opacity="0.5"/>
<stop offset="1" stop-color="white" stop-opacity="0.1"/>
</linearGradient>
<linearGradient id="paint42_linear_2_117" x1="314.414" y1="162.643" x2="296.163" y2="194.258" gradientUnits="userSpaceOnUse">
<stop stop-color="white" stop-opacity="0.5"/>
<stop offset="1" stop-color="white" stop-opacity="0.1"/>
</linearGradient>
<linearGradient id="paint43_linear_2_117" x1="241.399" y1="204.795" x2="223.147" y2="236.41" gradientUnits="userSpaceOnUse">
<stop stop-color="white" stop-opacity="0.5"/>
<stop offset="1" stop-color="white" stop-opacity="0.1"/>
</linearGradient>
<linearGradient id="paint44_linear_2_117" x1="241.399" y1="204.795" x2="223.147" y2="236.41" gradientUnits="userSpaceOnUse">
<stop stop-color="white" stop-opacity="0.5"/>
<stop offset="1" stop-color="white" stop-opacity="0.1"/>
</linearGradient>
<linearGradient id="paint45_linear_2_117" x1="241.399" y1="204.795" x2="223.147" y2="236.41" gradientUnits="userSpaceOnUse">
<stop stop-color="white" stop-opacity="0.5"/>
<stop offset="1" stop-color="white" stop-opacity="0.1"/>
</linearGradient>
<linearGradient id="paint46_linear_2_117" x1="241.399" y1="204.795" x2="223.147" y2="236.41" gradientUnits="userSpaceOnUse">
<stop stop-color="white" stop-opacity="0.5"/>
<stop offset="1" stop-color="white" stop-opacity="0.1"/>
</linearGradient>
<linearGradient id="paint47_linear_2_117" x1="0.891246" y1="1.21266" x2="22.5484" y2="30.5057" gradientUnits="userSpaceOnUse">
<stop stop-color="#C4C4C4"/>
<stop offset="1" stop-color="#C4C4C4" stop-opacity="0.3"/>
</linearGradient>
<linearGradient id="paint48_linear_2_117" x1="176.534" y1="138.179" x2="245.87" y2="258.283" gradientUnits="userSpaceOnUse">
<stop stop-color="#D0E4F0"/>
<stop offset="1" stop-color="#D7E3F9"/>
</linearGradient>
<linearGradient id="paint49_linear_2_117" x1="176.534" y1="138.179" x2="245.87" y2="258.283" gradientUnits="userSpaceOnUse">
<stop stop-color="#D0E4F0"/>
<stop offset="1" stop-color="#D7E3F9"/>
</linearGradient>
<linearGradient id="paint50_linear_2_117" x1="176.534" y1="138.179" x2="245.87" y2="258.283" gradientUnits="userSpaceOnUse">
<stop stop-color="#D0E4F0"/>
<stop offset="1" stop-color="#D7E3F9"/>
</linearGradient>
<linearGradient id="paint51_linear_2_117" x1="176.534" y1="138.179" x2="245.87" y2="258.283" gradientUnits="userSpaceOnUse">
<stop stop-color="#D0E4F0"/>
<stop offset="1" stop-color="#D7E3F9"/>
</linearGradient>
<linearGradient id="paint52_linear_2_117" x1="176.534" y1="138.179" x2="245.87" y2="258.283" gradientUnits="userSpaceOnUse">
<stop stop-color="#D0E4F0"/>
<stop offset="1" stop-color="#D7E3F9"/>
</linearGradient>
<linearGradient id="paint53_linear_2_117" x1="176.534" y1="138.179" x2="245.87" y2="258.283" gradientUnits="userSpaceOnUse">
<stop stop-color="#D0E4F0"/>
<stop offset="1" stop-color="#D7E3F9"/>
</linearGradient>
<linearGradient id="paint54_linear_2_117" x1="176.534" y1="138.179" x2="245.87" y2="258.283" gradientUnits="userSpaceOnUse">
<stop stop-color="#D0E4F0"/>
<stop offset="1" stop-color="#D7E3F9"/>
</linearGradient>
<linearGradient id="paint55_linear_2_117" x1="176.534" y1="138.179" x2="245.87" y2="258.283" gradientUnits="userSpaceOnUse">
<stop stop-color="#D0E4F0"/>
<stop offset="1" stop-color="#D7E3F9"/>
</linearGradient>
<linearGradient id="paint56_linear_2_117" x1="176.534" y1="138.179" x2="245.87" y2="258.283" gradientUnits="userSpaceOnUse">
<stop stop-color="#D0E4F0"/>
<stop offset="1" stop-color="#D7E3F9"/>
</linearGradient>
<linearGradient id="paint57_linear_2_117" x1="176.534" y1="138.179" x2="245.87" y2="258.283" gradientUnits="userSpaceOnUse">
<stop stop-color="#D0E4F0"/>
<stop offset="1" stop-color="#D7E3F9"/>
</linearGradient>
<linearGradient id="paint58_linear_2_117" x1="176.534" y1="138.179" x2="245.87" y2="258.283" gradientUnits="userSpaceOnUse">
<stop stop-color="#D0E4F0"/>
<stop offset="1" stop-color="#D7E3F9"/>
</linearGradient>
<linearGradient id="paint59_linear_2_117" x1="176.534" y1="138.179" x2="245.87" y2="258.283" gradientUnits="userSpaceOnUse">
<stop stop-color="#D0E4F0"/>
<stop offset="1" stop-color="#D7E3F9"/>
</linearGradient>
<linearGradient id="paint60_linear_2_117" x1="176.534" y1="138.179" x2="245.87" y2="258.283" gradientUnits="userSpaceOnUse">
<stop stop-color="#D0E4F0"/>
<stop offset="1" stop-color="#D7E3F9"/>
</linearGradient>
<linearGradient id="paint61_linear_2_117" x1="176.534" y1="138.179" x2="245.87" y2="258.283" gradientUnits="userSpaceOnUse">
<stop stop-color="#D0E4F0"/>
<stop offset="1" stop-color="#D7E3F9"/>
</linearGradient>
<linearGradient id="paint62_linear_2_117" x1="176.534" y1="138.179" x2="245.87" y2="258.283" gradientUnits="userSpaceOnUse">
<stop stop-color="#D0E4F0"/>
<stop offset="1" stop-color="#D7E3F9"/>
</linearGradient>
<linearGradient id="paint63_linear_2_117" x1="176.534" y1="138.179" x2="245.87" y2="258.283" gradientUnits="userSpaceOnUse">
<stop stop-color="#D0E4F0"/>
<stop offset="1" stop-color="#D7E3F9"/>
</linearGradient>
<linearGradient id="paint64_linear_2_117" x1="64.1547" y1="0" x2="64.1547" y2="201.233" gradientUnits="userSpaceOnUse">
<stop stop-color="#785CC8"/>
<stop offset="1" stop-color="#E0CDFF"/>
</linearGradient>
<linearGradient id="paint65_linear_2_117" x1="64.1547" y1="0" x2="64.1547" y2="201.233" gradientUnits="userSpaceOnUse">
<stop stop-color="#785CC8"/>
<stop offset="1" stop-color="#E0CDFF"/>
</linearGradient>
<linearGradient id="paint66_linear_2_117" x1="64.1547" y1="0" x2="64.1547" y2="201.233" gradientUnits="userSpaceOnUse">
<stop stop-color="#E42C64"/>
<stop offset="1" stop-color="#614AD3"/>
</linearGradient>
<linearGradient id="paint67_linear_2_117" x1="176.51" y1="74.6143" x2="245.847" y2="194.72" gradientUnits="userSpaceOnUse">
<stop stop-color="#859DAB"/>
<stop offset="1" stop-color="#19263D"/>
</linearGradient>
<linearGradient id="paint68_linear_2_117" x1="176.51" y1="74.6143" x2="245.847" y2="194.72" gradientUnits="userSpaceOnUse">
<stop stop-color="#859DAB"/>
<stop offset="1" stop-color="#19263D"/>
</linearGradient>
<linearGradient id="paint69_linear_2_117" x1="176.51" y1="74.6143" x2="245.847" y2="194.72" gradientUnits="userSpaceOnUse">
<stop stop-color="#859DAB"/>
<stop offset="1" stop-color="#19263D"/>
</linearGradient>
<linearGradient id="paint70_linear_2_117" x1="176.51" y1="74.6143" x2="245.847" y2="194.72" gradientUnits="userSpaceOnUse">
<stop stop-color="#859DAB"/>
<stop offset="1" stop-color="#19263D"/>
</linearGradient>
<linearGradient id="paint71_linear_2_117" x1="176.51" y1="74.6143" x2="245.847" y2="194.72" gradientUnits="userSpaceOnUse">
<stop stop-color="#859DAB"/>
<stop offset="1" stop-color="#19263D"/>
</linearGradient>
<linearGradient id="paint72_linear_2_117" x1="176.51" y1="74.6143" x2="245.847" y2="194.72" gradientUnits="userSpaceOnUse">
<stop stop-color="#859DAB"/>
<stop offset="1" stop-color="#19263D"/>
</linearGradient>
<linearGradient id="paint73_linear_2_117" x1="176.51" y1="74.6143" x2="245.847" y2="194.72" gradientUnits="userSpaceOnUse">
<stop stop-color="#859DAB"/>
<stop offset="1" stop-color="#19263D"/>
</linearGradient>
<linearGradient id="paint74_linear_2_117" x1="176.51" y1="74.6143" x2="245.847" y2="194.72" gradientUnits="userSpaceOnUse">
<stop stop-color="#859DAB"/>
<stop offset="1" stop-color="#19263D"/>
</linearGradient>
<linearGradient id="paint75_linear_2_117" x1="176.51" y1="74.6143" x2="245.847" y2="194.72" gradientUnits="userSpaceOnUse">
<stop stop-color="#859DAB"/>
<stop offset="1" stop-color="#19263D"/>
</linearGradient>
<linearGradient id="paint76_linear_2_117" x1="176.51" y1="74.6143" x2="245.847" y2="194.72" gradientUnits="userSpaceOnUse">
<stop stop-color="#859DAB"/>
<stop offset="1" stop-color="#19263D"/>
</linearGradient>
<linearGradient id="paint77_linear_2_117" x1="176.51" y1="74.6143" x2="245.847" y2="194.72" gradientUnits="userSpaceOnUse">
<stop stop-color="#859DAB"/>
<stop offset="1" stop-color="#19263D"/>
</linearGradient>
<linearGradient id="paint78_linear_2_117" x1="176.51" y1="74.6143" x2="245.847" y2="194.72" gradientUnits="userSpaceOnUse">
<stop stop-color="#859DAB"/>
<stop offset="1" stop-color="#19263D"/>
</linearGradient>
<linearGradient id="paint79_linear_2_117" x1="176.51" y1="74.6143" x2="245.847" y2="194.72" gradientUnits="userSpaceOnUse">
<stop stop-color="#859DAB"/>
<stop offset="1" stop-color="#19263D"/>
</linearGradient>
<linearGradient id="paint80_linear_2_117" x1="176.51" y1="74.6143" x2="245.847" y2="194.72" gradientUnits="userSpaceOnUse">
<stop stop-color="#859DAB"/>
<stop offset="1" stop-color="#19263D"/>
</linearGradient>
<linearGradient id="paint81_linear_2_117" x1="176.51" y1="74.6143" x2="245.847" y2="194.72" gradientUnits="userSpaceOnUse">
<stop stop-color="#859DAB"/>
<stop offset="1" stop-color="#19263D"/>
</linearGradient>
<linearGradient id="paint82_linear_2_117" x1="176.51" y1="74.6143" x2="245.847" y2="194.72" gradientUnits="userSpaceOnUse">
<stop stop-color="#859DAB"/>
<stop offset="1" stop-color="#19263D"/>
</linearGradient>
</defs>
</svg>
